<?xml version="1.0" encoding="utf-8"?>
<!-- Generator: Adobe Illustrator 19.2.1, SVG Export Plug-In . SVG Version: 6.00 Build 0)  -->
<svg version="1.1" id="Layer_1" xmlns="http://www.w3.org/2000/svg" xmlns:xlink="http://www.w3.org/1999/xlink" x="0px" y="0px"
	 viewBox="0 0 782 782" style="enable-background:new 0 0 782 782;" xml:space="preserve">
<style type="text/css">
	.st0{fill:#FFFFFF;}
</style>
<g>
	<path class="st0" d="M390.9,769.6c-210.5,0-380-169.5-379.4-380.5C12.1,178.9,184.9,9.6,396.3,12.4
		C602.6,15.2,772,183.3,770.5,393.8C769.1,603.5,597.7,770.1,390.9,769.6z M750.9,390.8C750.8,192.6,590.7,35.7,398.1,32
		c-199.5-3.8-364,155-367.2,353c-3.2,199.8,157.6,365,360.1,365.1C590,750.3,750.9,589.4,750.9,390.8z"/>
	<path class="st0" d="M391,727.5C203.2,727.8,50.9,574.1,53.6,385.9C56.3,203.1,206.8,52,395.9,54.6
		c185.8,2.5,335.4,155.3,332.4,342.2C725.3,578.9,576.1,727.6,391,727.5z M73,390.3c-0.2,173,138.6,317.2,317,317.7
		c176.4,0.5,314.5-139.7,318.6-309C713,221,570.6,74.9,392.6,74C217,73.1,73.8,214.1,73,390.3z"/>
	<path class="st0" d="M92.1,452.3c60.2-27.9,120.4-55.9,181.3-84.1c-39-54.2-77.7-108-116.5-161.9c0.2-0.3,0.4-0.6,0.5-0.9
		c37.4,17.3,74.8,34.7,113.4,52.5c-11.9-43.9-23.5-86.7-35.1-129.5c0.3-0.2,0.6-0.3,0.9-0.5c3.6,5.8,7.2,11.7,10.7,17.5
		c27.7,45.7,55.4,91.4,83.3,137.1c1.6,2.6,4.4,5,7.2,6.3c16.4,7.9,32.8,15.5,49.4,22.9c2.1,0.9,5.2,1,7.3,0
		c17-7.6,34-15.4,50.7-23.5c2.6-1.3,4.9-3.9,6.4-6.5c30.6-50.2,61.1-100.5,91.5-150.7c0.6-1,1.2-1.9,2.9-2.5
		c-11.6,42.8-23.2,85.5-35.1,129.4c38.4-17.8,75.8-35.1,113.2-52.5c0.3,0.2,0.5,0.5,0.8,0.7c-38.7,53.8-77.4,107.6-116.5,162
		c60.8,28.2,121.2,56.2,181.6,84.2c-0.1,0.3-0.2,0.6-0.3,0.8c-17.2-3-34.3-6-51.5-9c-53.5-9.4-106.9-18.8-160.4-28.1
		c-1.6-0.3-4.1,0.8-5.3,2c-7.1,7.5-10,16.9-12.6,26.7c-5.8,22.2-12,44.3-17.8,66.6c-0.7,2.5-0.5,5.6,0.2,8.1
		c13.8,45.9,27.7,91.8,41.6,137.7c0.4,1.2,0.6,2.4,0.2,4c-19.8-27.5-39.6-55-60.1-83.4c-11.1,40.7-21.9,80.4-32.7,120.1
		c-0.4,0-0.8,0.1-1.1,0.1c-10.8-39.7-21.6-79.3-32.7-120.2c-20.4,28.3-40.2,55.9-60.1,83.4c-0.3-0.2-0.6-0.3-0.9-0.5
		c4.3-14.1,8.5-28.3,12.8-42.4c10-33.1,20.1-66.2,30.1-99.4c0.7-2.2,0.7-5,0.1-7.2c-7.1-26.5-14-53.1-21.8-79.5
		c-1.7-5.8-6.5-10.7-10.1-15.8c-0.5-0.7-2.4-0.6-3.6-0.4c-70.2,12.3-140.4,24.7-210.5,37c-0.5,0.1-1,0.1-1.4,0.1
		C92.2,452.8,92.1,452.5,92.1,452.3z M495.5,362.1c29.1-40.5,58-80.6,87.5-121.7c-1.9,0.6-2.5,0.8-3,1
		c-23.6,10.9-47.2,21.8-70.6,32.9c-1.9,0.9-3.6,3.4-4.2,5.4c-5.6,19.9-10.9,39.8-16.3,59.7c-1.5,5.7-3.1,11.5-4.6,17.3
		C488.1,358.7,491.6,360.3,495.5,362.1z M297.7,356.8c-7.2-26.6-14.2-52.6-21.5-78.6c-0.5-1.7-2.5-3.4-4.2-4.2
		c-13.7-6.5-27.4-12.8-41.2-19.2c-10.2-4.7-20.4-9.4-30.6-14.1c-0.2,0.2-0.4,0.5-0.6,0.7c28.9,40.2,57.8,80.4,86.8,120.6
		C290.4,360.2,293.8,358.6,297.7,356.8z M391,531.6c-7,9.8-13.4,18.9-20.1,27.8c-2.1,2.7-2.3,5.1-1.4,8.3
		c5.1,18.3,9.9,36.6,14.9,54.8c2,7.3,4,14.5,6.2,22.4c0.8-1.1,1.1-1.5,1.2-1.9c7-25.7,14-51.3,20.9-77c0.4-1.4,0.3-3.5-0.4-4.6
		C405.5,551.6,398.4,541.9,391,531.6z M390.9,507.3c7.2-10,13.9-19.4,20.8-28.7c1.9-2.5,2.2-4.7,1.3-7.8
		c-6.6-21.4-13.1-42.9-19.6-64.4c-0.6-1.8-1.3-3.6-2-5.5c-0.8,0.5-1.2,0.6-1.3,0.9c-7.3,23.8-14.7,47.7-21.9,71.5
		c-0.3,0.9,0,2.4,0.6,3.2C376,486.7,383.3,496.7,390.9,507.3z M458.2,398.3c3-10.8,5.8-20.8,8.4-31c0.3-1-0.5-3.1-1.3-3.6
		c-12-5.7-24-11.3-36.5-17c-8.5,14.1-16.8,27.7-25.4,41.9C422.2,392,440,395.1,458.2,398.3z M323.6,398.3
		c18.3-3.2,36.3-6.4,54.8-9.7c-8.2-13.6-16-26.5-24-39.3c-0.6-0.9-3.2-1.6-4.3-1.1c-11.1,4.9-22.1,10-33.1,15.3
		c-1,0.5-2.2,2.3-1.9,3.2C317.8,377.2,320.7,387.6,323.6,398.3z M471.2,350.9c6.1-22.6,12-44.5,18.3-67.4
		c-10.5,4.8-19.7,9.1-28.8,13.4c-1,0.5-2.1,1.2-2.7,2.1c-7.2,11.7-14.3,23.4-21.7,35.7C448,340.1,459.3,345.3,471.2,350.9z
		 M345.6,334.7c-4.3-7-8.8-13.1-11.8-19.9c-6-13-15.5-21.4-29.1-25.7c-3.9-1.2-7.6-3.4-12.3-5.5c6.3,23.1,12.2,44.9,18.3,67.3
		C322.5,345.4,333.8,340.1,345.6,334.7z M483.6,402.8c34.7,6.1,68.5,12,102.3,18c0.1-0.3,0.2-0.7,0.3-1
		c-28.6-13.3-57.2-26.5-86.1-39.9C494.7,387.4,489.4,394.8,483.6,402.8z M298.3,402.8c-5.8-8.1-11.1-15.4-16.5-23
		c-29,13.4-57.5,26.7-86,39.9c0.1,0.3,0.2,0.7,0.4,1C229.8,414.8,263.5,408.9,298.3,402.8z M326.4,412.1c2.6,5.7,4.2,10.8,7,15.1
		c4.7,7.4,10.2,14.4,15.3,21.6c2.7,3.7,5.4,7.4,8.6,11.9c5.9-19.4,11.4-37.7,17.3-57C358.4,406.5,343.3,409.1,326.4,412.1z
		 M407.3,403.6c5.9,19.4,11.5,37.7,17.3,57.1c9.3-13,18.2-25,26.6-37.4c2-3,2.2-7.4,3.3-11.4C438.6,409.1,423.5,406.5,407.3,403.6z
		 M365.9,340.8c8.5,13.9,16.6,27.3,25.1,41.2c8.6-14.2,16.7-27.5,25-41.3c-8.1-3.8-15.8-7.5-23.7-11c-0.9-0.4-2.3-0.2-3.3,0.3
		C381.4,333.5,373.9,337.1,365.9,340.8z M362.6,492.1c-1.5,4.8-2.7,8.4-3.7,12.1c-1.1,4-3.6,8.3-2.9,12c1.7,9.5,4.8,18.8,7.6,29.3
		c6.3-8.8,12-16.6,17.5-24.4c0.5-0.7,0.6-2.3,0.1-3C375.2,509.6,369.2,501.3,362.6,492.1z M419.3,492.1
		c-6.6,9.1-12.6,17.3-18.3,25.6c-0.6,0.9-0.2,3.1,0.5,4.2c4,5.9,8.2,11.7,12.4,17.5c1.3,1.8,2.6,3.5,4.4,5.8
		c2.7-9.9,5.1-18.5,7.4-27.2c0.4-1.5,0.4-3.4,0-4.9C423.8,506.5,421.7,499.9,419.3,492.1z M506.6,220.4c-0.3-0.1-0.6-0.2-0.9-0.3
		c-11,18.2-22.1,36.5-33.1,54.7c6.9-2.2,13-4.9,18.9-7.9c1.4-0.7,2.9-2.3,3.4-3.8C499,248.9,502.8,234.6,506.6,220.4z M308.3,275.3
		c0.3-0.2,0.6-0.5,0.9-0.7c-11.1-18.2-22.1-36.5-33.2-54.7c3.1,14.8,7,29.2,11.1,43.6c0.4,1.3,1.9,2.7,3.2,3.4
		C296.2,269.8,302.3,272.5,308.3,275.3z M348.2,543c-0.3-0.1-0.7-0.2-1-0.2c-4.1,13.6-8.2,27.2-12.3,40.9
		c6.4-7.1,11.8-14.6,17.1-22.2c0.6-0.8,0.7-2.2,0.4-3.2C351.1,553.1,349.6,548.1,348.2,543z M434.6,542.4c-6.3,11.4-6,17.4,0.8,26.8
		c3.6,4.9,7.1,9.9,10.7,14.8c0.3-0.2,0.6-0.4,0.9-0.6C443,569.9,438.8,556.4,434.6,542.4z M347.8,309.2c-0.2,0.3-0.4,0.6-0.6,0.9
		c3.7,6.1,7.4,12.2,11.3,18.6c5.1-2.4,9.9-4.6,15.6-7.3C364.6,316.9,356.2,313.1,347.8,309.2z M423.3,328.7
		c4-6.5,7.7-12.7,11.4-18.8c-0.2-0.2-0.5-0.5-0.7-0.7c-8.4,3.9-16.8,7.9-26.2,12.2C413.5,324.1,418.2,326.2,423.3,328.7z
		 M348.2,488.8c5.1-10.5,3.6-16.1-6.6-24.2C343.8,472.8,345.9,480.5,348.2,488.8z M433.7,488.6c2.2-8.2,4.3-15.9,6.7-24.5
		C429.7,474.5,428.6,478.6,433.7,488.6z M475.8,387.8c0.3,0.1,0.6,0.3,0.9,0.4c3.4-4.7,6.8-9.4,10.4-14.4c-2.5-1.2-4.4-2-6.7-3.1
		C478.8,376.7,477.3,382.3,475.8,387.8z M301.5,370.8c-2.4,1.1-4.3,2-6.6,3.1c3.6,5,7,9.6,10.4,14.3c0.3-0.2,0.6-0.3,0.8-0.5
		C304.6,382.2,303.1,376.7,301.5,370.8z"/>
	<path class="st0" d="M348.2,488.8c-2.2-8.2-4.4-15.9-6.6-24.2"/>
</g>
</svg>
