<svg version="1.1" id="Layer_1" xmlns="http://www.w3.org/2000/svg" xmlns:xlink="http://www.w3.org/1999/xlink" x="0px" y="0px"
	 viewBox="0 0 288 288" style="enable-background:new 0 0 288 288;" xml:space="preserve">
<style type="text/css">
	.st0{opacity:0.25;}
</style>
<g class="st0">
	<g>
		<g>
			<path d="M199.6,82.1l-0.2-1.4c1-0.1,1.9-0.7,2.6-1.5c0.6-0.8,0.9-1.8,0.8-2.9c-0.1-1-0.7-1.9-1.5-2.6c-0.8-0.6-1.8-0.9-2.9-0.8
				l-0.2-1.4c1.4-0.2,2.8,0.2,3.9,1c1.1,0.9,1.8,2.1,2,3.5c0.2,1.4-0.2,2.8-1,3.9C202.3,81.2,201,82,199.6,82.1z"/>
		</g>
		<g>
			<path d="M70.6,225.9c-0.7,0-1.4-0.1-2-0.3c-1.9-0.5-3.5-1.8-4.5-3.5l1.7-0.9c0.7,1.3,1.9,2.2,3.3,2.6c1.4,0.4,2.9,0.2,4.2-0.5
				c2.7-1.5,3.6-4.8,2.1-7.5l1.7-0.9c2,3.6,0.7,8.1-2.9,10.1C73.1,225.6,71.8,225.9,70.6,225.9z"/>
		</g>
		<g>
			<path d="M243.4,180.6c-3.1-2.8-3.3-7.6-0.5-10.7c2.8-3.1,7.6-3.3,10.7-0.5l-1.3,1.5c-2.3-2.1-5.8-1.9-7.9,0.4
				c-2.1,2.3-1.9,5.8,0.4,7.9L243.4,180.6z"/>
		</g>
		<g>
			<path d="M80.8,19.7c-1,0-1.9-0.4-2.7-1c-0.8-0.7-1.3-1.7-1.3-2.8c-0.1-1.1,0.3-2.1,1-2.9c0.7-0.8,1.7-1.3,2.8-1.3l0.1,1
				c-0.8,0-1.5,0.4-2,1c-0.5,0.6-0.8,1.4-0.7,2.1c0,0.8,0.4,1.5,1,2c0.6,0.5,1.4,0.8,2.1,0.7l0.1,1C80.9,19.7,80.8,19.7,80.8,19.7z"
				/>
		</g>
		<g>
			<path d="M277.2,155.1l-0.8-1.1c0.9-0.6,1.4-1.6,1.6-2.6c0.2-1.1-0.1-2.1-0.7-3c-1.3-1.8-3.8-2.2-5.6-0.9l-0.8-1.1
				c2.4-1.8,5.8-1.2,7.5,1.2c0.8,1.2,1.2,2.6,1,4C279.2,153,278.4,154.2,277.2,155.1z"/>
		</g>
		<g>
			<path d="M161.8,183l-1.1-1.8c2.8-1.8,3.6-5.5,1.8-8.3c-1.8-2.8-5.5-3.6-8.3-1.8l-1.1-1.8c3.8-2.4,8.8-1.3,11.2,2.4
				C166.6,175.5,165.5,180.5,161.8,183z"/>
		</g>
		<g>
			<path d="M10.6,35.2c-1.4,0-2.7-0.7-3.5-1.9L8,32.6c0.4,0.7,1.1,1.2,1.9,1.4c0.8,0.2,1.6,0,2.3-0.4c1.4-0.9,1.9-2.8,1-4.2l0.9-0.6
				c1.2,1.9,0.6,4.5-1.3,5.7C12.1,34.9,11.4,35.2,10.6,35.2z"/>
		</g>
		<g>
			<path d="M266.9,58.4c-0.9-1.1-1.3-2.5-1.1-4c0.2-1.4,0.9-2.7,2-3.6c2.3-1.8,5.7-1.5,7.6,0.8l-1.1,0.9c-1.4-1.7-3.9-2-5.6-0.6
				c-0.8,0.7-1.4,1.6-1.5,2.7c-0.1,1.1,0.2,2.1,0.8,2.9L266.9,58.4z"/>
		</g>
		<g>
			<path d="M120.1,179.9c-3.6-3-4.1-8.3-1.1-11.9c1.4-1.7,3.5-2.8,5.7-3c2.3-0.2,4.5,0.5,6.2,1.9l-1.4,1.7c-1.3-1.1-2.9-1.6-4.6-1.4
				c-1.7,0.2-3.2,1-4.2,2.3c-2.2,2.7-1.8,6.6,0.8,8.8L120.1,179.9z"/>
		</g>
		<path d="M237.3,17.8L237.3,17.8c1.2,0,2.3,0.7,2.9,1.8c0.4,0.8,0.5,1.6,0.2,2.4c-0.3,0.8-0.8,1.5-1.6,1.9
			c-0.5,0.2-0.9,0.3-1.4,0.3c-1.2,0-2.3-0.7-2.9-1.8c-0.8-1.6-0.2-3.5,1.4-4.3C236.3,17.9,236.8,17.8,237.3,17.8 M237.3,16.4
			c-0.7,0-1.4,0.2-2.1,0.5c-2.3,1.2-3.2,3.9-2,6.2c0.8,1.6,2.4,2.5,4.1,2.5c0.7,0,1.4-0.2,2.1-0.5c2.3-1.2,3.2-3.9,2-6.2
			C240.6,17.3,239,16.4,237.3,16.4L237.3,16.4z"/>
		<path d="M54.9,107.6L54.9,107.6c0.1,0,0.2,0,0.3,0c0.7,0.1,1.3,0.4,1.7,0.9c0.4,0.5,0.6,1.2,0.6,1.9c-0.1,1.3-1.2,2.3-2.6,2.3
			c-0.1,0-0.2,0-0.3,0c-1.4-0.1-2.4-1.4-2.3-2.8C52.5,108.6,53.6,107.6,54.9,107.6 M54.9,106.5c-1.9,0-3.5,1.4-3.7,3.3
			c-0.2,2,1.3,3.9,3.3,4.1c0.1,0,0.3,0,0.4,0c1.9,0,3.5-1.4,3.7-3.3c0.2-2-1.3-3.9-3.3-4.1C55.2,106.5,55.1,106.5,54.9,106.5
			L54.9,106.5z"/>
		<path d="M258.1,88.1c1.2,0,2.2,0.8,2.6,1.9c0.4,1.4-0.4,2.9-1.8,3.3c-0.2,0.1-0.5,0.1-0.8,0.1c-1.2,0-2.2-0.8-2.6-1.9
			c-0.4-1.4,0.4-2.9,1.8-3.3C257.6,88.2,257.9,88.1,258.1,88.1 M258.1,86.9c-0.4,0-0.7,0-1.1,0.2c-2.1,0.6-3.2,2.8-2.6,4.8
			c0.5,1.7,2,2.8,3.7,2.8c0.4,0,0.7,0,1.1-0.2c2.1-0.6,3.2-2.8,2.6-4.8C261.4,88,259.8,86.9,258.1,86.9L258.1,86.9z"/>
		<path d="M123.1,15L123.1,15c0.6,0,1.1,0.1,1.7,0.4c1,0.4,1.7,1.2,2.1,2.3c0.4,1,0.3,2.1-0.1,3.1c-0.7,1.4-2.1,2.4-3.7,2.4
			c-0.6,0-1.1-0.1-1.7-0.4c-2-0.9-2.9-3.3-2-5.3C120.1,16,121.6,15,123.1,15 M123.1,13.2c-2.2,0-4.3,1.3-5.3,3.4
			c-1.3,2.9,0,6.4,2.9,7.7c0.8,0.4,1.6,0.5,2.4,0.5c2.2,0,4.3-1.3,5.3-3.4c1.3-2.9,0-6.4-2.9-7.7C124.8,13.4,123.9,13.2,123.1,13.2
			L123.1,13.2z"/>
		<path d="M200.4,136.8L200.4,136.8c0.2,0,0.3,0,0.5,0c1.6,0.3,2.7,1.8,2.4,3.4c-0.2,1.4-1.5,2.5-2.9,2.5c-0.2,0-0.3,0-0.5,0
			c-1.6-0.3-2.7-1.8-2.4-3.4C197.8,137.9,199,136.8,200.4,136.8 M200.4,135.5c-2,0-3.8,1.5-4.2,3.5c-0.4,2.3,1.2,4.5,3.5,4.9
			c0.2,0,0.5,0.1,0.7,0.1c2,0,3.8-1.5,4.2-3.5c0.4-2.3-1.2-4.5-3.5-4.9C200.9,135.5,200.7,135.5,200.4,135.5L200.4,135.5z"/>
		<path d="M52.4,143.1L52.4,143.1c0.8,0,1.5,0.3,2.1,0.7c0.7,0.6,1.2,1.4,1.3,2.3c0.1,0.9-0.1,1.8-0.7,2.6c-0.7,0.8-1.7,1.3-2.7,1.3
			c-0.8,0-1.5-0.3-2.1-0.7c-1.5-1.2-1.8-3.4-0.6-4.9C50.3,143.6,51.3,143.1,52.4,143.1 M52.4,141.6c-1.5,0-3,0.7-4,1.9
			c-1.7,2.2-1.3,5.4,0.9,7.1c0.9,0.7,2,1.1,3.1,1.1c1.5,0,3-0.7,4-1.9c1.7-2.2,1.3-5.4-0.9-7.1C54.6,141.9,53.5,141.6,52.4,141.6
			L52.4,141.6z"/>
		<path d="M19.7,261.3L19.7,261.3c0.8,0,1.5,0.3,1.9,1c0.4,0.5,0.6,1.2,0.5,1.8c-0.1,0.6-0.4,1.2-0.9,1.6c-0.4,0.3-0.9,0.5-1.5,0.5
			c-0.8,0-1.5-0.3-1.9-1c-0.4-0.5-0.6-1.2-0.5-1.8c0.1-0.6,0.4-1.2,0.9-1.6C18.6,261.5,19.1,261.3,19.7,261.3 M19.7,260.2
			c-0.7,0-1.5,0.2-2.1,0.7c-1.5,1.2-1.8,3.4-0.7,4.9c0.7,0.9,1.7,1.4,2.8,1.4c0.7,0,1.5-0.2,2.1-0.7c1.5-1.2,1.8-3.4,0.7-4.9
			C21.8,260.7,20.7,260.2,19.7,260.2L19.7,260.2z"/>
		<path d="M137.2,68.5L137.2,68.5c1.8,0,3.5,1.2,4.1,2.9c0.8,2.3-0.3,4.8-2.6,5.6c-0.5,0.2-1,0.3-1.5,0.3c-1.8,0-3.5-1.2-4.1-2.9
			c-0.4-1.1-0.4-2.3,0.1-3.4c0.5-1.1,1.4-1.9,2.5-2.3C136.2,68.6,136.7,68.5,137.2,68.5 M137.2,66.5c-0.7,0-1.5,0.1-2.2,0.4
			c-3.3,1.2-5,4.9-3.8,8.2c0.9,2.6,3.4,4.2,6,4.2c0.7,0,1.5-0.1,2.2-0.4c3.3-1.2,5-4.9,3.8-8.2C142.3,68.2,139.8,66.5,137.2,66.5
			L137.2,66.5z"/>
		<path d="M138.6,252.6L138.6,252.6c0.4,0,0.8,0.1,1.1,0.3c0.6,0.3,1.1,0.8,1.3,1.4c0.2,0.6,0.2,1.3-0.1,1.9
			c-0.4,0.9-1.3,1.4-2.3,1.4c-0.4,0-0.8-0.1-1.1-0.3c-1.2-0.6-1.8-2.1-1.1-3.4C136.8,253.1,137.7,252.6,138.6,252.6 M138.6,251.5
			c-1.3,0-2.6,0.7-3.3,2c-0.9,1.8-0.1,4,1.7,4.9c0.5,0.3,1.1,0.4,1.6,0.4c1.3,0,2.6-0.7,3.3-2c0.9-1.8,0.1-4-1.7-4.9
			C139.7,251.6,139.2,251.5,138.6,251.5L138.6,251.5z"/>
		<path d="M104.7,50.3l4.1,4.5l-6,0.6l-4.1-4.5L104.7,50.3 M105.3,48.7l-9.8,0.9l6.6,7.3l9.8-0.9L105.3,48.7L105.3,48.7z"/>
		<path d="M14.5,194.8l4.2,4.4l-1,6l-4.2-4.4L14.5,194.8 M13.6,191.6l-1.7,9.7l6.7,7.1l1.7-9.7L13.6,191.6L13.6,191.6z"/>
		<path d="M237.1,256.9l8.1,4l1.6,8.9l-8.1-4L237.1,256.9 M234.1,252.9l2.7,14.3l13,6.5l-2.7-14.3L234.1,252.9L234.1,252.9z"/>
		<path d="M55.6,47.2l4.4,1.6l1.4,4.5L57,51.7L55.6,47.2 M53.8,45.3l2.3,7.2l7.1,2.5l-2.3-7.2L53.8,45.3L53.8,45.3z"/>
		<path d="M140.7,199.2l0.6,5.3l-3.9,3.7l-0.6-5.3L140.7,199.2 M141.7,196.4l-6.3,6l1,8.6l6.3-6L141.7,196.4L141.7,196.4z"/>
		<path d="M85.2,143.6l4.3,2.4l0.7,4.8l-4.3-2.4L85.2,143.6 M83.7,141.4l1.1,7.8l6.9,3.8l-1.1-7.8L83.7,141.4L83.7,141.4z"/>
		<path d="M102.9,266.6l-2,4.1l-4.5,0.9l2-4.1L102.9,266.6 M104.9,265.1l-7.2,1.4l-3.2,6.6l7.2-1.4L104.9,265.1L104.9,265.1z"/>
		<path d="M150.7,115.4l-5,7.5l-9.1,0.5l5-7.5L150.7,115.4 M155,112.9l-14.6,0.8l-8.1,12.2l14.6-0.8L155,112.9L155,112.9z"/>
		<path d="M35.2,12.9l5.9,6.2l-1.4,8.5l-5.9-6.2L35.2,12.9 M33.8,8.4L31.6,22l9.6,10l2.2-13.7L33.8,8.4L33.8,8.4z"/>
		<g>
			<path d="M17.9,71.9c-0.1,0-0.3,0-0.4-0.1C17,71.6,16.7,71,17,70.5c0.6-1.2,1.5-2.1,2.8-2.4c1.2-0.4,2.5-0.2,3.6,0.4
				c0.6,0.4,1.3,0.5,2,0.3c0.7-0.2,1.2-0.7,1.5-1.3c0.6-1.2,1.5-2.1,2.8-2.4c1.2-0.4,2.5-0.2,3.6,0.4c0.5,0.3,0.7,0.9,0.4,1.4
				c-0.3,0.5-0.9,0.6-1.4,0.4c-0.6-0.4-1.3-0.5-2-0.3c-0.7,0.2-1.2,0.7-1.5,1.3c-0.6,1.2-1.5,2.1-2.8,2.4c-1.2,0.4-2.5,0.2-3.6-0.4
				c-0.6-0.4-1.3-0.5-2-0.3c-0.7,0.2-1.2,0.7-1.5,1.3C18.7,71.7,18.3,71.9,17.9,71.9z"/>
		</g>
		<g>
			<path d="M219.1,115.9C219.1,115.9,219.1,115.9,219.1,115.9c-0.4,0-0.7-0.3-0.7-0.7c0-0.5-0.1-0.9-0.5-1.2
				c-0.3-0.3-0.8-0.5-1.2-0.4c-0.9,0-1.7-0.2-2.2-0.8c-0.6-0.6-0.9-1.4-0.9-2.2c0-0.5-0.1-0.9-0.5-1.2c-0.3-0.3-0.8-0.5-1.2-0.4
				c-0.4,0-0.7-0.3-0.7-0.6c0-0.4,0.3-0.7,0.6-0.7c0.9,0,1.7,0.2,2.3,0.8c0.6,0.6,0.9,1.4,0.9,2.2c0,0.5,0.1,0.9,0.5,1.2
				c0.3,0.3,0.8,0.5,1.2,0.4c0.9,0,1.7,0.2,2.3,0.8c0.6,0.6,0.9,1.4,0.9,2.2C219.8,115.6,219.5,115.9,219.1,115.9z"/>
		</g>
		<g>
			<path d="M204.7,244c-0.3,0-0.6-0.3-0.6-0.6c0-0.3,0.3-0.6,0.6-0.6c0.4,0,0.8-0.2,1.1-0.5c0.3-0.3,0.4-0.7,0.3-1.1
				c-0.1-0.8,0.1-1.5,0.6-2.1c0.5-0.6,1.2-0.9,2-0.9c0.4,0,0.8-0.2,1.1-0.5c0.3-0.3,0.4-0.7,0.3-1.1c0-0.3,0.2-0.6,0.5-0.7
				c0.3,0,0.6,0.2,0.7,0.5c0.1,0.8-0.1,1.5-0.6,2.1c-0.5,0.6-1.2,0.9-2,0.9c-0.4,0-0.8,0.2-1.1,0.5c-0.3,0.3-0.4,0.7-0.3,1.1
				c0.1,0.8-0.1,1.5-0.6,2.1C206.2,243.6,205.5,244,204.7,244C204.7,244,204.7,244,204.7,244z"/>
		</g>
		<g>
			<path d="M48.4,192.2c-0.2,0-0.4-0.1-0.6-0.2c-1-0.8-1.5-1.8-1.6-3c-0.1-1.2,0.4-2.3,1.2-3.2c0.5-0.5,0.7-1.1,0.7-1.7
				c0-0.6-0.4-1.2-0.9-1.7c-1-0.8-1.5-1.8-1.6-3c-0.1-1.2,0.4-2.3,1.2-3.2c0.4-0.4,1-0.4,1.3,0c0.4,0.4,0.4,1,0,1.3
				c-0.5,0.5-0.7,1.1-0.7,1.7c0,0.6,0.4,1.2,0.9,1.7c1,0.8,1.5,1.8,1.6,3c0.1,1.2-0.4,2.3-1.2,3.2c-0.5,0.5-0.7,1.1-0.7,1.7
				c0,0.6,0.4,1.2,0.9,1.7c0.4,0.3,0.5,0.9,0.1,1.3C49,192.1,48.7,192.2,48.4,192.2z"/>
		</g>
		<g>
			<path d="M58.8,259.7c-1.1,0-2.2-0.4-3.1-1.1c-1.1-0.9-1.7-2.2-1.8-3.6c0-0.8-0.4-1.5-1-2c-0.6-0.5-1.3-0.7-2.1-0.6
				c-1.4,0.2-2.8-0.1-3.9-1c-1.1-0.9-1.7-2.2-1.8-3.6c0-0.6,0.4-1.1,1.1-1.2c0.6,0,1.1,0.4,1.2,1.1c0,0.8,0.4,1.5,1,2
				c0.6,0.5,1.3,0.7,2.1,0.6c1.4-0.2,2.8,0.1,3.9,1c1.1,0.9,1.7,2.2,1.8,3.6c0,0.8,0.4,1.5,1,2c0.6,0.5,1.3,0.7,2.1,0.6
				c0.6-0.1,1.2,0.3,1.3,0.9c0.1,0.6-0.3,1.2-0.9,1.3C59.3,259.7,59,259.7,58.8,259.7z"/>
		</g>
		<g>
			<path d="M12.1,106.6c0,0-0.1,0-0.1,0c-0.4,0-0.7-0.4-0.7-0.8c0-0.4,0.4-0.7,0.8-0.7c0.6,0,1-0.2,1.4-0.5c0.4-0.4,0.5-0.9,0.5-1.4
				c-0.1-1,0.3-1.9,0.9-2.6c0.7-0.7,1.6-1,2.5-1c0.5,0,1-0.2,1.4-0.5c0.4-0.4,0.5-0.9,0.5-1.4c0-0.4,0.3-0.8,0.7-0.8
				c0.4,0,0.8,0.3,0.8,0.7c0.1,1-0.3,1.9-0.9,2.6c-0.7,0.7-1.6,1-2.5,1c-0.5,0-1,0.2-1.4,0.5c-0.4,0.4-0.5,0.9-0.5,1.4
				c0.1,1-0.3,1.9-0.9,2.6C13.9,106.3,13,106.6,12.1,106.6z"/>
		</g>
		<g>
			<path d="M104.4,113.8c-0.6,0-1.2-0.1-1.7-0.4c-0.9-0.5-1.5-1.3-1.7-2.3c-0.1-0.6-0.5-1-0.9-1.3c-0.5-0.3-1-0.3-1.6-0.1
				c-1,0.3-2,0.2-2.9-0.2c-0.9-0.5-1.5-1.3-1.7-2.3c-0.1-0.4,0.2-0.9,0.6-1c0.4-0.1,0.9,0.2,1,0.6c0.1,0.6,0.5,1,0.9,1.3
				c0.5,0.3,1,0.3,1.6,0.1c1-0.3,2-0.2,2.9,0.2c0.9,0.5,1.5,1.3,1.7,2.3c0.1,0.6,0.5,1,0.9,1.3c0.5,0.3,1,0.3,1.6,0.1
				c0.4-0.1,0.9,0.1,1,0.5c0.1,0.4-0.1,0.9-0.5,1C105.2,113.7,104.8,113.8,104.4,113.8z"/>
		</g>
		<g>
			<path d="M19.3,149.9c-0.3,0-0.5-0.1-0.7-0.3c-0.9-0.9-1.3-2.1-1.3-3.3c0.1-1.2,0.6-2.3,1.6-3.1c0.5-0.4,0.9-1,0.9-1.7
				s-0.2-1.3-0.7-1.8c-0.9-0.9-1.3-2.1-1.3-3.3c0.1-1.2,0.6-2.3,1.6-3.1c0.4-0.3,1-0.3,1.4,0.1c0.3,0.4,0.3,1-0.1,1.4
				c-0.5,0.4-0.9,1-0.9,1.7c0,0.7,0.2,1.3,0.7,1.8c0.9,0.9,1.3,2.1,1.3,3.3c-0.1,1.2-0.6,2.3-1.6,3.1c-0.5,0.4-0.9,1-0.9,1.7
				c0,0.7,0.2,1.3,0.7,1.8c0.4,0.4,0.4,1,0,1.4C19.8,149.8,19.5,149.9,19.3,149.9z"/>
		</g>
		<g>
			<path d="M162.2,51.9c-0.5,0-1-0.1-1.5-0.3c-0.5-0.2-0.7-0.7-0.6-1.2c0.2-0.5,0.7-0.7,1.2-0.6c0.6,0.2,1.3,0.2,1.8-0.1
				c0.6-0.3,1-0.8,1.1-1.5c0.3-1.2,1.1-2.1,2.1-2.6c1-0.5,2.2-0.6,3.4-0.2c0.6,0.2,1.3,0.2,1.8-0.1c0.6-0.3,1-0.8,1.1-1.5
				c0.1-0.5,0.6-0.8,1.1-0.7c0.5,0.1,0.8,0.6,0.7,1.2c-0.3,1.2-1.1,2.1-2.1,2.7c-1,0.5-2.2,0.6-3.4,0.2c-0.6-0.2-1.3-0.2-1.8,0.1
				c-0.6,0.3-1,0.8-1.1,1.5c-0.3,1.2-1.1,2.1-2.1,2.7C163.5,51.8,162.8,51.9,162.2,51.9z"/>
		</g>
		<g>
			<path d="M213.9,162.6c-0.1,0-0.3,0-0.4-0.1l-3.6-3.3c-0.2-0.2-0.2-0.6,0-0.8c0.2-0.2,0.6-0.2,0.8,0l3.6,3.3
				c0.2,0.2,0.2,0.6,0,0.8C214.2,162.5,214,162.6,213.9,162.6z"/>
		</g>
		<g>
			<path d="M95.1,189.1c-0.2,0-0.3-0.1-0.4-0.2l-3.4-3.9c-0.2-0.2-0.2-0.6,0.1-0.8c0.2-0.2,0.6-0.2,0.8,0.1l3.4,3.9
				c0.2,0.2,0.2,0.6-0.1,0.8C95.4,189.1,95.2,189.1,95.1,189.1z"/>
		</g>
		<g>
			<path d="M70.9,80.9c-0.3,0-0.6-0.2-0.7-0.5c-0.1-0.4,0.1-0.8,0.5-0.8l6-1.4c0.4-0.1,0.8,0.1,0.8,0.5c0.1,0.4-0.1,0.8-0.5,0.8
				l-6,1.4C71,80.9,71,80.9,70.9,80.9z"/>
		</g>
		<g>
			<path d="M196,27.8c-0.3,0-0.6-0.2-0.6-0.5c-0.1-0.4,0.1-0.7,0.5-0.8l5.7-1.4c0.4-0.1,0.7,0.1,0.8,0.5c0.1,0.4-0.1,0.7-0.5,0.8
				l-5.7,1.4C196.1,27.8,196.1,27.8,196,27.8z"/>
		</g>
		<g>
			<path d="M271.8,250.2c-0.3,0-0.5-0.2-0.6-0.5l-1.2-5.2c-0.1-0.3,0.1-0.7,0.5-0.7c0.3-0.1,0.7,0.1,0.7,0.5l1.2,5.2
				c0.1,0.3-0.1,0.7-0.5,0.7C271.9,250.2,271.9,250.2,271.8,250.2z"/>
		</g>
		<g>
			<path d="M173.5,256.1c-0.2,0-0.4-0.1-0.5-0.3l-2.1-4.8c-0.1-0.3,0-0.6,0.3-0.8c0.3-0.1,0.6,0,0.8,0.3l2.1,4.8
				c0.1,0.3,0,0.6-0.3,0.8C173.7,256.1,173.6,256.1,173.5,256.1z"/>
		</g>
		<g>
			<path d="M171.2,219c-0.5,0-1-0.4-1-0.9c0-0.5,0.4-1,0.9-1l8.7-0.5c0.5,0,1,0.4,1,0.9c0,0.5-0.4,1-0.9,1L171.2,219
				C171.3,219,171.2,219,171.2,219z"/>
		</g>
		<g>
			<path d="M114.3,230.8c-0.2,0-0.4-0.1-0.5-0.4l-1.3-4.4c-0.1-0.3,0.1-0.6,0.4-0.6c0.3-0.1,0.6,0.1,0.6,0.4l1.3,4.4
				c0.1,0.3-0.1,0.6-0.4,0.6C114.4,230.8,114.3,230.8,114.3,230.8z"/>
		</g>
		<g>
			<path d="M277,199.5c0,0-0.1,0-0.1,0l-7.6-0.9c-0.5-0.1-0.8-0.5-0.8-1c0.1-0.5,0.5-0.8,1-0.8l7.6,0.9c0.5,0.1,0.8,0.5,0.8,1
				C277.8,199.1,277.4,199.5,277,199.5z"/>
		</g>
		<g>
			<polygon points="239.5,140.4 237.9,138.8 246,130.7 254,138.7 252.4,140.3 246,133.9 			"/>
		</g>
		<g>
			<polygon points="204.8,203.4 203.4,202.5 206.7,196.7 200.9,193.3 201.7,191.9 209,196.1 			"/>
		</g>
		<g>
			<polygon points="158.1,281.6 153.8,275.5 155,274.6 158.5,279.5 163.3,276 164.2,277.2 			"/>
		</g>
		<g>
			<polygon points="232.7,60.1 224.7,58.6 226.2,50.6 227.7,50.9 226.5,57.3 232.9,58.5 			"/>
		</g>
		<g>
			<polygon points="166.2,18.3 158.4,11.8 159.7,10.2 166,15.5 171.2,9.2 172.7,10.5 			"/>
		</g>
		<g>
			<polygon points="172.7,101.2 171.7,95.4 166,96.4 165.8,95 172.9,93.8 174.1,100.9 			"/>
		</g>
		<g>
			<polygon points="273.3,21.7 267.1,16.7 268,15.5 273.1,19.5 277,14.5 278.3,15.4 			"/>
		</g>
		<g>
			<polygon points="205.6,277.6 202.6,271.9 196.9,274.9 196.1,273.5 203.2,269.7 207,276.8 			"/>
		</g>
		<g>
			<polygon points="241,214.9 233.2,207.2 234.7,205.6 241,211.8 247.2,205.6 248.7,207.1 			"/>
		</g>
	</g>
</g>
</svg>
