<svg id="Layer_1" xmlns="http://www.w3.org/2000/svg" viewBox="0 0 473 473"><style>.st1{fill:#6a6de9}</style><path d="M395.1 77.8C352.7 35.3 296.4 12 236.4 12S120.1 35.3 77.7 77.8c-82 82-87.7 213.3-14.1 301.9-7.2 14.5-18.8 31.4-36 39.9-8.3 4.1-12.9 12.9-11.5 22s8.4 16.2 17.6 17.7c4.3.7 10.3 1.3 17.8 1.3 19.8 0 49.1-4.7 79-26.2 33.3 17.9 69.8 26.7 105.9 26.7 58.1 0 115.6-22.5 158.9-65.8 42.4-42.4 65.8-98.7 65.8-158.7s-23.5-116.4-66-158.8zm-10.6 306.8c-67.5 67.5-172 80.9-254.2 32.6-5.4-3.2-12.1-2.2-16.4 2.1-.4.2-.8.5-1.1.8-27.1 21-53.7 25.4-71.3 25.4h-.1c20.3-14.8 33.1-36.8 40.6-53.9 1.2-2.9 1.4-5.9.7-8.7-.3-2.7-1.4-5.4-3.3-7.6C6.2 292.6 10 166.6 88.2 88.4c81.7-81.7 214.6-81.7 296.2 0 81.8 81.7 81.8 214.5.1 296.2z" fill="#6a6de9" stroke="#6a6de9" stroke-width="12" stroke-miterlimit="10"/><circle class="st1" cx="236.4" cy="236.5" r="16.6"/><circle class="st1" cx="322" cy="236.5" r="16.6"/><circle class="st1" cx="150.8" cy="236.5" r="16.6"/></svg>