<?xml version="1.0" encoding="utf-8"?>
<!-- Generator: Adobe Illustrator 21.0.0, SVG Export Plug-In . SVG Version: 6.00 Build 0)  -->
<svg version="1.1" id="Layer_1" xmlns="http://www.w3.org/2000/svg" xmlns:xlink="http://www.w3.org/1999/xlink" x="0px" y="0px"
	 viewBox="0 0 121 121" style="enable-background:new 0 0 121 121;" xml:space="preserve">
<style type="text/css">
	.st0{opacity:0.25;}
	.st1{fill:#FFFFFF;}
</style>
<g class="st0">
	<g>
		<g>
			<circle class="st1" cx="5.8" cy="2.9" r="0.5"/>
			<circle class="st1" cx="11.3" cy="2.9" r="0.5"/>
			<circle class="st1" cx="16.9" cy="2.9" r="0.5"/>
			<circle class="st1" cx="22.4" cy="2.9" r="0.5"/>
			<circle class="st1" cx="27.9" cy="2.9" r="0.5"/>
			<circle class="st1" cx="33.5" cy="2.9" r="0.5"/>
			<circle class="st1" cx="39" cy="2.9" r="0.5"/>
			<circle class="st1" cx="44.5" cy="2.9" r="0.5"/>
			<circle class="st1" cx="50" cy="2.9" r="0.5"/>
			<circle class="st1" cx="55.6" cy="2.9" r="0.5"/>
			<circle class="st1" cx="61.1" cy="2.9" r="0.5"/>
			<circle class="st1" cx="66.6" cy="2.9" r="0.5"/>
			<circle class="st1" cx="72.2" cy="2.9" r="0.5"/>
			<circle class="st1" cx="77.7" cy="2.9" r="0.5"/>
			<circle class="st1" cx="83.2" cy="2.9" r="0.5"/>
			<circle class="st1" cx="88.7" cy="2.9" r="0.5"/>
			<circle class="st1" cx="94.3" cy="2.9" r="0.5"/>
			<circle class="st1" cx="99.8" cy="2.9" r="0.5"/>
			<circle class="st1" cx="105.3" cy="2.9" r="0.5"/>
			<circle class="st1" cx="110.9" cy="2.9" r="0.5"/>
			<circle class="st1" cx="116.4" cy="2.9" r="0.5"/>
			<circle class="st1" cx="121.9" cy="2.9" r="0.5"/>
			<circle class="st1" cx="3" cy="8.4" r="0.5"/>
			<circle class="st1" cx="8.6" cy="8.4" r="0.5"/>
			<circle class="st1" cx="14.1" cy="8.4" r="0.5"/>
			<circle class="st1" cx="19.6" cy="8.4" r="0.5"/>
			<circle class="st1" cx="25.2" cy="8.4" r="0.5"/>
			<circle class="st1" cx="30.7" cy="8.4" r="0.5"/>
			<circle class="st1" cx="36.2" cy="8.4" r="0.5"/>
			<circle class="st1" cx="41.7" cy="8.4" r="0.5"/>
			<circle class="st1" cx="47.3" cy="8.4" r="0.5"/>
			<circle class="st1" cx="52.8" cy="8.4" r="0.5"/>
			<circle class="st1" cx="58.3" cy="8.4" r="0.5"/>
			<circle class="st1" cx="63.9" cy="8.4" r="0.5"/>
			<circle class="st1" cx="69.4" cy="8.4" r="0.5"/>
			<circle class="st1" cx="74.9" cy="8.4" r="0.5"/>
			<circle class="st1" cx="80.4" cy="8.4" r="0.5"/>
			<circle class="st1" cx="86" cy="8.4" r="0.5"/>
			<circle class="st1" cx="91.5" cy="8.4" r="0.5"/>
			<circle class="st1" cx="97" cy="8.4" r="0.5"/>
			<circle class="st1" cx="102.6" cy="8.4" r="0.5"/>
			<circle class="st1" cx="108.1" cy="8.4" r="0.5"/>
			<circle class="st1" cx="113.6" cy="8.4" r="0.5"/>
			<circle class="st1" cx="119.1" cy="8.4" r="0.5"/>
			<circle class="st1" cx="5.8" cy="13.9" r="0.5"/>
			<circle class="st1" cx="11.3" cy="13.9" r="0.5"/>
			<circle class="st1" cx="16.9" cy="13.9" r="0.5"/>
			<circle class="st1" cx="22.4" cy="13.9" r="0.5"/>
			<circle class="st1" cx="27.9" cy="13.9" r="0.5"/>
			<circle class="st1" cx="33.5" cy="13.9" r="0.5"/>
			<circle class="st1" cx="39" cy="13.9" r="0.5"/>
			<circle class="st1" cx="44.5" cy="13.9" r="0.5"/>
			<circle class="st1" cx="50" cy="13.9" r="0.5"/>
			<circle class="st1" cx="55.6" cy="13.9" r="0.5"/>
			<circle class="st1" cx="61.1" cy="13.9" r="0.5"/>
			<circle class="st1" cx="66.6" cy="13.9" r="0.5"/>
			<circle class="st1" cx="72.2" cy="13.9" r="0.5"/>
			<circle class="st1" cx="77.7" cy="13.9" r="0.5"/>
			<circle class="st1" cx="83.2" cy="13.9" r="0.5"/>
			<circle class="st1" cx="88.7" cy="13.9" r="0.5"/>
			<circle class="st1" cx="94.3" cy="13.9" r="0.5"/>
			<circle class="st1" cx="99.8" cy="13.9" r="0.5"/>
			<circle class="st1" cx="105.3" cy="13.9" r="0.5"/>
			<circle class="st1" cx="110.9" cy="13.9" r="0.5"/>
			<circle class="st1" cx="116.4" cy="13.9" r="0.5"/>
			<circle class="st1" cx="121.9" cy="13.9" r="0.5"/>
			<circle class="st1" cx="3" cy="19.5" r="0.5"/>
			<circle class="st1" cx="8.6" cy="19.5" r="0.5"/>
			<circle class="st1" cx="14.1" cy="19.5" r="0.5"/>
			<circle class="st1" cx="19.6" cy="19.5" r="0.5"/>
			<circle class="st1" cx="25.2" cy="19.5" r="0.5"/>
			<circle class="st1" cx="30.7" cy="19.5" r="0.5"/>
			<circle class="st1" cx="36.2" cy="19.5" r="0.5"/>
			<circle class="st1" cx="41.7" cy="19.5" r="0.5"/>
			<circle class="st1" cx="47.3" cy="19.5" r="0.5"/>
			<circle class="st1" cx="52.8" cy="19.5" r="0.5"/>
			<circle class="st1" cx="58.3" cy="19.5" r="0.5"/>
			<circle class="st1" cx="63.9" cy="19.5" r="0.5"/>
			<circle class="st1" cx="69.4" cy="19.5" r="0.5"/>
			<circle class="st1" cx="74.9" cy="19.5" r="0.5"/>
			<circle class="st1" cx="80.4" cy="19.5" r="0.5"/>
			<circle class="st1" cx="86" cy="19.5" r="0.5"/>
			<circle class="st1" cx="91.5" cy="19.5" r="0.5"/>
			<circle class="st1" cx="97" cy="19.5" r="0.5"/>
			<circle class="st1" cx="102.6" cy="19.5" r="0.5"/>
			<circle class="st1" cx="108.1" cy="19.5" r="0.5"/>
			<circle class="st1" cx="113.6" cy="19.5" r="0.5"/>
			<circle class="st1" cx="119.1" cy="19.5" r="0.5"/>
			<circle class="st1" cx="5.8" cy="25" r="0.5"/>
			<circle class="st1" cx="11.3" cy="25" r="0.5"/>
			<circle class="st1" cx="16.9" cy="25" r="0.5"/>
			<circle class="st1" cx="22.4" cy="25" r="0.5"/>
			<circle class="st1" cx="27.9" cy="25" r="0.5"/>
			<circle class="st1" cx="33.5" cy="25" r="0.5"/>
			<circle class="st1" cx="39" cy="25" r="0.5"/>
			<circle class="st1" cx="44.5" cy="25" r="0.5"/>
			<circle class="st1" cx="50" cy="25" r="0.5"/>
			<circle class="st1" cx="55.6" cy="25" r="0.5"/>
			<circle class="st1" cx="61.1" cy="25" r="0.5"/>
			<circle class="st1" cx="66.6" cy="25" r="0.5"/>
			<circle class="st1" cx="72.2" cy="25" r="0.5"/>
			<circle class="st1" cx="77.7" cy="25" r="0.5"/>
			<circle class="st1" cx="83.2" cy="25" r="0.5"/>
			<circle class="st1" cx="88.7" cy="25" r="0.5"/>
			<circle class="st1" cx="94.3" cy="25" r="0.5"/>
			<circle class="st1" cx="99.8" cy="25" r="0.5"/>
			<circle class="st1" cx="105.3" cy="25" r="0.5"/>
			<circle class="st1" cx="110.9" cy="25" r="0.5"/>
			<circle class="st1" cx="116.4" cy="25" r="0.5"/>
			<circle class="st1" cx="121.9" cy="25" r="0.5"/>
			<circle class="st1" cx="3" cy="30.5" r="0.5"/>
			<circle class="st1" cx="8.6" cy="30.5" r="0.5"/>
			<circle class="st1" cx="14.1" cy="30.5" r="0.5"/>
			<circle class="st1" cx="19.6" cy="30.5" r="0.5"/>
			<circle class="st1" cx="25.2" cy="30.5" r="0.5"/>
			<circle class="st1" cx="30.7" cy="30.5" r="0.5"/>
			<circle class="st1" cx="36.2" cy="30.5" r="0.5"/>
			<circle class="st1" cx="41.7" cy="30.5" r="0.5"/>
			<circle class="st1" cx="47.3" cy="30.5" r="0.5"/>
			<circle class="st1" cx="52.8" cy="30.5" r="0.5"/>
			<circle class="st1" cx="58.3" cy="30.5" r="0.5"/>
			<circle class="st1" cx="63.9" cy="30.5" r="0.5"/>
			<circle class="st1" cx="69.4" cy="30.5" r="0.5"/>
			<circle class="st1" cx="74.9" cy="30.5" r="0.5"/>
			<circle class="st1" cx="80.4" cy="30.5" r="0.5"/>
			<circle class="st1" cx="86" cy="30.5" r="0.5"/>
			<circle class="st1" cx="91.5" cy="30.5" r="0.5"/>
			<circle class="st1" cx="97" cy="30.5" r="0.5"/>
			<circle class="st1" cx="102.6" cy="30.5" r="0.5"/>
			<circle class="st1" cx="108.1" cy="30.5" r="0.5"/>
			<circle class="st1" cx="113.6" cy="30.5" r="0.5"/>
			<circle class="st1" cx="119.1" cy="30.5" r="0.5"/>
			<circle class="st1" cx="5.8" cy="36.1" r="0.5"/>
			<circle class="st1" cx="11.3" cy="36.1" r="0.5"/>
			<circle class="st1" cx="16.9" cy="36.1" r="0.5"/>
			<circle class="st1" cx="22.4" cy="36.1" r="0.5"/>
			<circle class="st1" cx="27.9" cy="36.1" r="0.5"/>
			<circle class="st1" cx="33.5" cy="36.1" r="0.5"/>
			<circle class="st1" cx="39" cy="36.1" r="0.5"/>
			<circle class="st1" cx="44.5" cy="36.1" r="0.5"/>
			<circle class="st1" cx="50" cy="36.1" r="0.5"/>
			<circle class="st1" cx="55.6" cy="36.1" r="0.5"/>
			<circle class="st1" cx="61.1" cy="36.1" r="0.5"/>
			<circle class="st1" cx="66.6" cy="36.1" r="0.5"/>
			<circle class="st1" cx="72.2" cy="36.1" r="0.5"/>
			<circle class="st1" cx="77.7" cy="36.1" r="0.5"/>
			<circle class="st1" cx="83.2" cy="36.1" r="0.5"/>
			<circle class="st1" cx="88.7" cy="36.1" r="0.5"/>
			<circle class="st1" cx="94.3" cy="36.1" r="0.5"/>
			<circle class="st1" cx="99.8" cy="36.1" r="0.5"/>
			<circle class="st1" cx="105.3" cy="36.1" r="0.5"/>
			<circle class="st1" cx="110.9" cy="36.1" r="0.5"/>
			<circle class="st1" cx="116.4" cy="36.1" r="0.5"/>
			<circle class="st1" cx="121.9" cy="36.1" r="0.5"/>
			<circle class="st1" cx="3" cy="41.6" r="0.5"/>
			<circle class="st1" cx="8.6" cy="41.6" r="0.5"/>
			<circle class="st1" cx="14.1" cy="41.6" r="0.5"/>
			<circle class="st1" cx="19.6" cy="41.6" r="0.5"/>
			<circle class="st1" cx="25.2" cy="41.6" r="0.5"/>
			<circle class="st1" cx="30.7" cy="41.6" r="0.5"/>
			<circle class="st1" cx="36.2" cy="41.6" r="0.5"/>
			<circle class="st1" cx="41.7" cy="41.6" r="0.5"/>
			<circle class="st1" cx="47.3" cy="41.6" r="0.5"/>
			<circle class="st1" cx="52.8" cy="41.6" r="0.5"/>
			<circle class="st1" cx="58.3" cy="41.6" r="0.5"/>
			<circle class="st1" cx="63.9" cy="41.6" r="0.5"/>
			<circle class="st1" cx="69.4" cy="41.6" r="0.5"/>
			<circle class="st1" cx="74.9" cy="41.6" r="0.5"/>
			<circle class="st1" cx="80.4" cy="41.6" r="0.5"/>
			<circle class="st1" cx="86" cy="41.6" r="0.5"/>
			<circle class="st1" cx="91.5" cy="41.6" r="0.5"/>
			<circle class="st1" cx="97" cy="41.6" r="0.5"/>
			<circle class="st1" cx="102.6" cy="41.6" r="0.5"/>
			<circle class="st1" cx="108.1" cy="41.6" r="0.5"/>
			<circle class="st1" cx="113.6" cy="41.6" r="0.5"/>
			<circle class="st1" cx="119.1" cy="41.6" r="0.5"/>
			<circle class="st1" cx="5.8" cy="47.1" r="0.5"/>
			<circle class="st1" cx="11.3" cy="47.1" r="0.5"/>
			<circle class="st1" cx="16.9" cy="47.1" r="0.5"/>
			<circle class="st1" cx="22.4" cy="47.1" r="0.5"/>
			<circle class="st1" cx="27.9" cy="47.1" r="0.5"/>
			<circle class="st1" cx="33.5" cy="47.1" r="0.5"/>
			<circle class="st1" cx="39" cy="47.1" r="0.5"/>
			<circle class="st1" cx="44.5" cy="47.1" r="0.5"/>
			<circle class="st1" cx="50" cy="47.1" r="0.5"/>
			<circle class="st1" cx="55.6" cy="47.1" r="0.5"/>
			<circle class="st1" cx="61.1" cy="47.1" r="0.5"/>
			<circle class="st1" cx="66.6" cy="47.1" r="0.5"/>
			<circle class="st1" cx="72.2" cy="47.1" r="0.5"/>
			<circle class="st1" cx="77.7" cy="47.1" r="0.5"/>
			<circle class="st1" cx="83.2" cy="47.1" r="0.5"/>
			<circle class="st1" cx="88.7" cy="47.1" r="0.5"/>
			<circle class="st1" cx="94.3" cy="47.1" r="0.5"/>
			<circle class="st1" cx="99.8" cy="47.1" r="0.5"/>
			<circle class="st1" cx="105.3" cy="47.1" r="0.5"/>
			<circle class="st1" cx="110.9" cy="47.1" r="0.5"/>
			<circle class="st1" cx="116.4" cy="47.1" r="0.5"/>
			<circle class="st1" cx="121.9" cy="47.1" r="0.5"/>
			<circle class="st1" cx="3" cy="52.6" r="0.5"/>
			<circle class="st1" cx="8.6" cy="52.6" r="0.5"/>
			<circle class="st1" cx="14.1" cy="52.6" r="0.5"/>
			<circle class="st1" cx="19.6" cy="52.6" r="0.5"/>
			<circle class="st1" cx="25.2" cy="52.6" r="0.5"/>
			<circle class="st1" cx="30.7" cy="52.6" r="0.5"/>
			<circle class="st1" cx="36.2" cy="52.6" r="0.5"/>
			<circle class="st1" cx="41.7" cy="52.6" r="0.5"/>
			<circle class="st1" cx="47.3" cy="52.6" r="0.5"/>
			<circle class="st1" cx="52.8" cy="52.6" r="0.5"/>
			<circle class="st1" cx="58.3" cy="52.6" r="0.5"/>
			<circle class="st1" cx="63.9" cy="52.6" r="0.5"/>
			<circle class="st1" cx="69.4" cy="52.6" r="0.5"/>
			<circle class="st1" cx="74.9" cy="52.6" r="0.5"/>
			<circle class="st1" cx="80.4" cy="52.6" r="0.5"/>
			<circle class="st1" cx="86" cy="52.6" r="0.5"/>
			<circle class="st1" cx="91.5" cy="52.6" r="0.5"/>
			<circle class="st1" cx="97" cy="52.6" r="0.5"/>
			<circle class="st1" cx="102.6" cy="52.6" r="0.5"/>
			<circle class="st1" cx="108.1" cy="52.6" r="0.5"/>
			<circle class="st1" cx="113.6" cy="52.6" r="0.5"/>
			<circle class="st1" cx="119.1" cy="52.6" r="0.5"/>
			<circle class="st1" cx="5.8" cy="58.2" r="0.5"/>
			<circle class="st1" cx="11.3" cy="58.2" r="0.5"/>
			<circle class="st1" cx="16.9" cy="58.2" r="0.5"/>
			<circle class="st1" cx="22.4" cy="58.2" r="0.5"/>
			<circle class="st1" cx="27.9" cy="58.2" r="0.5"/>
			<circle class="st1" cx="33.5" cy="58.2" r="0.5"/>
			<circle class="st1" cx="39" cy="58.2" r="0.5"/>
			<circle class="st1" cx="44.5" cy="58.2" r="0.5"/>
			<circle class="st1" cx="50" cy="58.2" r="0.5"/>
			<circle class="st1" cx="55.6" cy="58.2" r="0.5"/>
			<circle class="st1" cx="61.1" cy="58.2" r="0.5"/>
			<circle class="st1" cx="66.6" cy="58.2" r="0.5"/>
			<circle class="st1" cx="72.2" cy="58.2" r="0.5"/>
			<circle class="st1" cx="77.7" cy="58.2" r="0.5"/>
			<circle class="st1" cx="83.2" cy="58.2" r="0.5"/>
			<circle class="st1" cx="88.7" cy="58.2" r="0.5"/>
			<circle class="st1" cx="94.3" cy="58.2" r="0.5"/>
			<circle class="st1" cx="99.8" cy="58.2" r="0.5"/>
			<circle class="st1" cx="105.3" cy="58.2" r="0.5"/>
			<circle class="st1" cx="110.9" cy="58.2" r="0.5"/>
			<circle class="st1" cx="116.4" cy="58.2" r="0.5"/>
			<circle class="st1" cx="121.9" cy="58.2" r="0.5"/>
			<circle class="st1" cx="3" cy="63.7" r="0.5"/>
			<circle class="st1" cx="8.6" cy="63.7" r="0.5"/>
			<circle class="st1" cx="14.1" cy="63.7" r="0.5"/>
			<circle class="st1" cx="19.6" cy="63.7" r="0.5"/>
			<circle class="st1" cx="25.2" cy="63.7" r="0.5"/>
			<circle class="st1" cx="30.7" cy="63.7" r="0.5"/>
			<circle class="st1" cx="36.2" cy="63.7" r="0.5"/>
			<circle class="st1" cx="41.7" cy="63.7" r="0.5"/>
			<circle class="st1" cx="47.3" cy="63.7" r="0.5"/>
			<circle class="st1" cx="52.8" cy="63.7" r="0.5"/>
			<circle class="st1" cx="58.3" cy="63.7" r="0.5"/>
			<circle class="st1" cx="63.9" cy="63.7" r="0.5"/>
			<circle class="st1" cx="69.4" cy="63.7" r="0.5"/>
			<circle class="st1" cx="74.9" cy="63.7" r="0.5"/>
			<circle class="st1" cx="80.4" cy="63.7" r="0.5"/>
			<circle class="st1" cx="86" cy="63.7" r="0.5"/>
			<circle class="st1" cx="91.5" cy="63.7" r="0.5"/>
			<circle class="st1" cx="97" cy="63.7" r="0.5"/>
			<circle class="st1" cx="102.6" cy="63.7" r="0.5"/>
			<circle class="st1" cx="108.1" cy="63.7" r="0.5"/>
			<circle class="st1" cx="113.6" cy="63.7" r="0.5"/>
			<circle class="st1" cx="119.1" cy="63.7" r="0.5"/>
			<circle class="st1" cx="5.8" cy="69.2" r="0.5"/>
			<circle class="st1" cx="11.3" cy="69.2" r="0.5"/>
			<circle class="st1" cx="16.9" cy="69.2" r="0.5"/>
			<circle class="st1" cx="22.4" cy="69.2" r="0.5"/>
			<circle class="st1" cx="27.9" cy="69.2" r="0.5"/>
			<circle class="st1" cx="33.5" cy="69.2" r="0.5"/>
			<circle class="st1" cx="39" cy="69.2" r="0.5"/>
			<circle class="st1" cx="44.5" cy="69.2" r="0.5"/>
			<circle class="st1" cx="50" cy="69.2" r="0.5"/>
			<circle class="st1" cx="55.6" cy="69.2" r="0.5"/>
			<circle class="st1" cx="61.1" cy="69.2" r="0.5"/>
			<circle class="st1" cx="66.6" cy="69.2" r="0.5"/>
			<circle class="st1" cx="72.2" cy="69.2" r="0.5"/>
			<circle class="st1" cx="77.7" cy="69.2" r="0.5"/>
			<circle class="st1" cx="83.2" cy="69.2" r="0.5"/>
			<circle class="st1" cx="88.7" cy="69.2" r="0.5"/>
			<circle class="st1" cx="94.3" cy="69.2" r="0.5"/>
			<circle class="st1" cx="99.8" cy="69.2" r="0.5"/>
			<circle class="st1" cx="105.3" cy="69.2" r="0.5"/>
			<circle class="st1" cx="110.9" cy="69.2" r="0.5"/>
			<circle class="st1" cx="116.4" cy="69.2" r="0.5"/>
			<circle class="st1" cx="121.9" cy="69.2" r="0.5"/>
			<circle class="st1" cx="3" cy="74.8" r="0.5"/>
			<circle class="st1" cx="8.6" cy="74.8" r="0.5"/>
			<circle class="st1" cx="14.1" cy="74.8" r="0.5"/>
			<circle class="st1" cx="19.6" cy="74.8" r="0.5"/>
			<circle class="st1" cx="25.2" cy="74.8" r="0.5"/>
			<circle class="st1" cx="30.7" cy="74.8" r="0.5"/>
			<circle class="st1" cx="36.2" cy="74.8" r="0.5"/>
			<circle class="st1" cx="41.7" cy="74.8" r="0.5"/>
			<circle class="st1" cx="47.3" cy="74.8" r="0.5"/>
			<circle class="st1" cx="52.8" cy="74.8" r="0.5"/>
			<circle class="st1" cx="58.3" cy="74.8" r="0.5"/>
			<circle class="st1" cx="63.9" cy="74.8" r="0.5"/>
			<circle class="st1" cx="69.4" cy="74.8" r="0.5"/>
			<circle class="st1" cx="74.9" cy="74.8" r="0.5"/>
			<circle class="st1" cx="80.4" cy="74.8" r="0.5"/>
			<circle class="st1" cx="86" cy="74.8" r="0.5"/>
			<circle class="st1" cx="91.5" cy="74.8" r="0.5"/>
			<circle class="st1" cx="97" cy="74.8" r="0.5"/>
			<circle class="st1" cx="102.6" cy="74.8" r="0.5"/>
			<circle class="st1" cx="108.1" cy="74.8" r="0.5"/>
			<circle class="st1" cx="113.6" cy="74.8" r="0.5"/>
			<circle class="st1" cx="119.1" cy="74.8" r="0.5"/>
			<circle class="st1" cx="5.8" cy="80.3" r="0.5"/>
			<circle class="st1" cx="11.3" cy="80.3" r="0.5"/>
			<circle class="st1" cx="16.9" cy="80.3" r="0.5"/>
			<circle class="st1" cx="22.4" cy="80.3" r="0.5"/>
			<circle class="st1" cx="27.9" cy="80.3" r="0.5"/>
			<circle class="st1" cx="33.5" cy="80.3" r="0.5"/>
			<circle class="st1" cx="39" cy="80.3" r="0.5"/>
			<circle class="st1" cx="44.5" cy="80.3" r="0.5"/>
			<circle class="st1" cx="50" cy="80.3" r="0.5"/>
			<circle class="st1" cx="55.6" cy="80.3" r="0.5"/>
			<circle class="st1" cx="61.1" cy="80.3" r="0.5"/>
			<circle class="st1" cx="66.6" cy="80.3" r="0.5"/>
			<circle class="st1" cx="72.2" cy="80.3" r="0.5"/>
			<circle class="st1" cx="77.7" cy="80.3" r="0.5"/>
			<circle class="st1" cx="83.2" cy="80.3" r="0.5"/>
			<circle class="st1" cx="88.7" cy="80.3" r="0.5"/>
			<circle class="st1" cx="94.3" cy="80.3" r="0.5"/>
			<circle class="st1" cx="99.8" cy="80.3" r="0.5"/>
			<circle class="st1" cx="105.3" cy="80.3" r="0.5"/>
			<circle class="st1" cx="110.9" cy="80.3" r="0.5"/>
			<circle class="st1" cx="116.4" cy="80.3" r="0.5"/>
			<circle class="st1" cx="121.9" cy="80.3" r="0.5"/>
			<circle class="st1" cx="3" cy="85.8" r="0.5"/>
			<circle class="st1" cx="8.6" cy="85.8" r="0.5"/>
			<circle class="st1" cx="14.1" cy="85.8" r="0.5"/>
			<circle class="st1" cx="19.6" cy="85.8" r="0.5"/>
			<circle class="st1" cx="25.2" cy="85.8" r="0.5"/>
			<circle class="st1" cx="30.7" cy="85.8" r="0.5"/>
			<circle class="st1" cx="36.2" cy="85.8" r="0.5"/>
			<circle class="st1" cx="41.7" cy="85.8" r="0.5"/>
			<circle class="st1" cx="47.3" cy="85.8" r="0.5"/>
			<circle class="st1" cx="52.8" cy="85.8" r="0.5"/>
			<circle class="st1" cx="58.3" cy="85.8" r="0.5"/>
			<circle class="st1" cx="63.9" cy="85.8" r="0.5"/>
			<circle class="st1" cx="69.4" cy="85.8" r="0.5"/>
			<circle class="st1" cx="74.9" cy="85.8" r="0.5"/>
			<circle class="st1" cx="80.4" cy="85.8" r="0.5"/>
			<circle class="st1" cx="86" cy="85.8" r="0.5"/>
			<circle class="st1" cx="91.5" cy="85.8" r="0.5"/>
			<circle class="st1" cx="97" cy="85.8" r="0.5"/>
			<circle class="st1" cx="102.6" cy="85.8" r="0.5"/>
			<circle class="st1" cx="108.1" cy="85.8" r="0.5"/>
			<circle class="st1" cx="113.6" cy="85.8" r="0.5"/>
			<circle class="st1" cx="119.1" cy="85.8" r="0.5"/>
			<circle class="st1" cx="5.8" cy="91.3" r="0.5"/>
			<circle class="st1" cx="11.3" cy="91.3" r="0.5"/>
			<circle class="st1" cx="16.9" cy="91.3" r="0.5"/>
			<circle class="st1" cx="22.4" cy="91.3" r="0.5"/>
			<circle class="st1" cx="27.9" cy="91.3" r="0.5"/>
			<circle class="st1" cx="33.5" cy="91.3" r="0.5"/>
			<circle class="st1" cx="39" cy="91.3" r="0.5"/>
			<circle class="st1" cx="44.5" cy="91.3" r="0.5"/>
			<circle class="st1" cx="50" cy="91.3" r="0.5"/>
			<circle class="st1" cx="55.6" cy="91.3" r="0.5"/>
			<circle class="st1" cx="61.1" cy="91.3" r="0.5"/>
			<circle class="st1" cx="66.6" cy="91.3" r="0.5"/>
			<circle class="st1" cx="72.2" cy="91.3" r="0.5"/>
			<circle class="st1" cx="77.7" cy="91.3" r="0.5"/>
			<circle class="st1" cx="83.2" cy="91.3" r="0.5"/>
			<circle class="st1" cx="88.7" cy="91.3" r="0.5"/>
			<circle class="st1" cx="94.3" cy="91.3" r="0.5"/>
			<circle class="st1" cx="99.8" cy="91.3" r="0.5"/>
			<circle class="st1" cx="105.3" cy="91.3" r="0.5"/>
			<circle class="st1" cx="110.9" cy="91.3" r="0.5"/>
			<circle class="st1" cx="116.4" cy="91.3" r="0.5"/>
			<circle class="st1" cx="121.9" cy="91.3" r="0.5"/>
			<circle class="st1" cx="3" cy="96.9" r="0.5"/>
			<circle class="st1" cx="8.6" cy="96.9" r="0.5"/>
			<circle class="st1" cx="14.1" cy="96.9" r="0.5"/>
			<circle class="st1" cx="19.6" cy="96.9" r="0.5"/>
			<circle class="st1" cx="25.2" cy="96.9" r="0.5"/>
			<circle class="st1" cx="30.7" cy="96.9" r="0.5"/>
			<circle class="st1" cx="36.2" cy="96.9" r="0.5"/>
			<circle class="st1" cx="41.7" cy="96.9" r="0.5"/>
			<circle class="st1" cx="47.3" cy="96.9" r="0.5"/>
			<circle class="st1" cx="52.8" cy="96.9" r="0.5"/>
			<circle class="st1" cx="58.3" cy="96.9" r="0.5"/>
			<circle class="st1" cx="63.9" cy="96.9" r="0.5"/>
			<circle class="st1" cx="69.4" cy="96.9" r="0.5"/>
			<circle class="st1" cx="74.9" cy="96.9" r="0.5"/>
			<circle class="st1" cx="80.4" cy="96.9" r="0.5"/>
			<circle class="st1" cx="86" cy="96.9" r="0.5"/>
			<circle class="st1" cx="91.5" cy="96.9" r="0.5"/>
			<circle class="st1" cx="97" cy="96.9" r="0.5"/>
			<circle class="st1" cx="102.6" cy="96.9" r="0.5"/>
			<circle class="st1" cx="108.1" cy="96.9" r="0.5"/>
			<circle class="st1" cx="113.6" cy="96.9" r="0.5"/>
			<circle class="st1" cx="119.1" cy="96.9" r="0.5"/>
			<circle class="st1" cx="5.8" cy="102.4" r="0.5"/>
			<circle class="st1" cx="11.3" cy="102.4" r="0.5"/>
			<circle class="st1" cx="16.9" cy="102.4" r="0.5"/>
			<circle class="st1" cx="22.4" cy="102.4" r="0.5"/>
			<circle class="st1" cx="27.9" cy="102.4" r="0.5"/>
			<circle class="st1" cx="33.5" cy="102.4" r="0.5"/>
			<circle class="st1" cx="39" cy="102.4" r="0.5"/>
			<circle class="st1" cx="44.5" cy="102.4" r="0.5"/>
			<circle class="st1" cx="50" cy="102.4" r="0.5"/>
			<circle class="st1" cx="55.6" cy="102.4" r="0.5"/>
			<circle class="st1" cx="61.1" cy="102.4" r="0.5"/>
			<circle class="st1" cx="66.6" cy="102.4" r="0.5"/>
			<circle class="st1" cx="72.2" cy="102.4" r="0.5"/>
			<circle class="st1" cx="77.7" cy="102.4" r="0.5"/>
			<circle class="st1" cx="83.2" cy="102.4" r="0.5"/>
			<circle class="st1" cx="88.7" cy="102.4" r="0.5"/>
			<circle class="st1" cx="94.3" cy="102.4" r="0.5"/>
			<circle class="st1" cx="99.8" cy="102.4" r="0.5"/>
			<circle class="st1" cx="105.3" cy="102.4" r="0.5"/>
			<circle class="st1" cx="110.9" cy="102.4" r="0.5"/>
			<circle class="st1" cx="116.4" cy="102.4" r="0.5"/>
			<circle class="st1" cx="121.9" cy="102.4" r="0.5"/>
			<circle class="st1" cx="3" cy="107.9" r="0.5"/>
			<circle class="st1" cx="8.6" cy="107.9" r="0.5"/>
			<circle class="st1" cx="14.1" cy="107.9" r="0.5"/>
			<circle class="st1" cx="19.6" cy="107.9" r="0.5"/>
			<circle class="st1" cx="25.2" cy="107.9" r="0.5"/>
			<circle class="st1" cx="30.7" cy="107.9" r="0.5"/>
			<circle class="st1" cx="36.2" cy="107.9" r="0.5"/>
			<circle class="st1" cx="41.7" cy="107.9" r="0.5"/>
			<circle class="st1" cx="47.3" cy="107.9" r="0.5"/>
			<circle class="st1" cx="52.8" cy="107.9" r="0.5"/>
			<circle class="st1" cx="58.3" cy="107.9" r="0.5"/>
			<circle class="st1" cx="63.9" cy="107.9" r="0.5"/>
			<circle class="st1" cx="69.4" cy="107.9" r="0.5"/>
			<circle class="st1" cx="74.9" cy="107.9" r="0.5"/>
			<circle class="st1" cx="80.4" cy="107.9" r="0.5"/>
			<circle class="st1" cx="86" cy="107.9" r="0.5"/>
			<circle class="st1" cx="91.5" cy="107.9" r="0.5"/>
			<circle class="st1" cx="97" cy="107.9" r="0.5"/>
			<circle class="st1" cx="102.6" cy="107.9" r="0.5"/>
			<circle class="st1" cx="108.1" cy="107.9" r="0.5"/>
			<circle class="st1" cx="113.6" cy="107.9" r="0.5"/>
			<circle class="st1" cx="119.1" cy="107.9" r="0.5"/>
			<circle class="st1" cx="5.8" cy="113.5" r="0.5"/>
			<circle class="st1" cx="11.3" cy="113.5" r="0.5"/>
			<circle class="st1" cx="16.9" cy="113.5" r="0.5"/>
			<circle class="st1" cx="22.4" cy="113.5" r="0.5"/>
			<circle class="st1" cx="27.9" cy="113.5" r="0.5"/>
			<circle class="st1" cx="33.5" cy="113.5" r="0.5"/>
			<circle class="st1" cx="39" cy="113.5" r="0.5"/>
			<circle class="st1" cx="44.5" cy="113.5" r="0.5"/>
			<circle class="st1" cx="50" cy="113.5" r="0.5"/>
			<circle class="st1" cx="55.6" cy="113.5" r="0.5"/>
			<circle class="st1" cx="61.1" cy="113.5" r="0.5"/>
			<circle class="st1" cx="66.6" cy="113.5" r="0.5"/>
			<circle class="st1" cx="72.2" cy="113.5" r="0.5"/>
			<circle class="st1" cx="77.7" cy="113.5" r="0.5"/>
			<circle class="st1" cx="83.2" cy="113.5" r="0.5"/>
			<circle class="st1" cx="88.7" cy="113.5" r="0.5"/>
			<circle class="st1" cx="94.3" cy="113.5" r="0.5"/>
			<circle class="st1" cx="99.8" cy="113.5" r="0.5"/>
			<circle class="st1" cx="105.3" cy="113.5" r="0.5"/>
			<circle class="st1" cx="110.9" cy="113.5" r="0.5"/>
			<circle class="st1" cx="116.4" cy="113.5" r="0.5"/>
			<circle class="st1" cx="121.9" cy="113.5" r="0.5"/>
			<circle class="st1" cx="3" cy="119" r="0.5"/>
			<circle class="st1" cx="8.6" cy="119" r="0.5"/>
			<circle class="st1" cx="14.1" cy="119" r="0.5"/>
			<circle class="st1" cx="19.6" cy="119" r="0.5"/>
			<circle class="st1" cx="25.2" cy="119" r="0.5"/>
			<circle class="st1" cx="30.7" cy="119" r="0.5"/>
			<circle class="st1" cx="36.2" cy="119" r="0.5"/>
			<circle class="st1" cx="41.7" cy="119" r="0.5"/>
			<circle class="st1" cx="47.3" cy="119" r="0.5"/>
			<circle class="st1" cx="52.8" cy="119" r="0.5"/>
			<circle class="st1" cx="58.3" cy="119" r="0.5"/>
			<circle class="st1" cx="63.9" cy="119" r="0.5"/>
			<circle class="st1" cx="69.4" cy="119" r="0.5"/>
			<circle class="st1" cx="74.9" cy="119" r="0.5"/>
			<circle class="st1" cx="80.4" cy="119" r="0.5"/>
			<circle class="st1" cx="86" cy="119" r="0.5"/>
			<circle class="st1" cx="91.5" cy="119" r="0.5"/>
			<circle class="st1" cx="97" cy="119" r="0.5"/>
			<circle class="st1" cx="102.6" cy="119" r="0.5"/>
			<circle class="st1" cx="108.1" cy="119" r="0.5"/>
			<circle class="st1" cx="113.6" cy="119" r="0.5"/>
			<circle class="st1" cx="119.1" cy="119" r="0.5"/>
		</g>
	</g>
</g>
</svg>
