<?xml version="1.0" encoding="utf-8"?>
<!-- Generator: Adobe Illustrator 21.0.0, SVG Export Plug-In . SVG Version: 6.00 Build 0)  -->
<svg version="1.1" xmlns="http://www.w3.org/2000/svg" xmlns:xlink="http://www.w3.org/1999/xlink" x="0px" y="0px"
	 viewBox="0 0 600 600" style="enable-background:new 0 0 600 600;" xml:space="preserve">
<style type="text/css">
	.st0{opacity:0.5;fill:none;stroke:#231F20;stroke-width:0.25;stroke-miterlimit:10;}
	.st1{opacity:0.5;}
</style>
<g id="Layer_1">
	<line class="st0" x1="120.6" y1="0.1" x2="120.6" y2="600.1"/>
	<line class="st0" x1="0.4" y1="0" x2="0.4" y2="600"/>
	<line class="st0" x1="240.6" y1="0.1" x2="240.6" y2="600.1"/>
	<line class="st0" x1="360.6" y1="0.1" x2="360.6" y2="600.1"/>
	<line class="st0" x1="480.6" y1="0.1" x2="480.6" y2="600.1"/>
</g>
<g id="Layer_2">
	<line class="st0" x1="600.1" y1="120.5" x2="0.1" y2="120.5"/>
	<line class="st0" x1="600.1" y1="0.3" x2="0.1" y2="0.3"/>
	<line class="st0" x1="600.1" y1="240.5" x2="0.1" y2="240.5"/>
	<line class="st0" x1="600.1" y1="360.5" x2="0.1" y2="360.5"/>
	<line class="st0" x1="600.1" y1="480.5" x2="0.1" y2="480.5"/>
</g>
<g id="Layer_3">
	<g class="st1">
		<path d="M20.1,22.7v1.2h-0.9v-4.2h-4v-0.8h4v-4h0.9v4h4v0.8h-4v1.9"/>
	</g>
	<g class="st1">
		<path d="M140.2,22.7v1.2h-0.9v-4.2h-4v-0.8h4v-4h0.9v4h4v0.8h-4v1.9"/>
	</g>
	<g class="st1">
		<path d="M261.8,22.7v1.2h-0.9v-4.2h-4v-0.8h4v-4h0.9v4h4v0.8h-4v1.9"/>
	</g>
	<g class="st1">
		<path d="M381.2,22.7v1.2h-0.9v-4.2h-4v-0.8h4v-4h0.9v4h4v0.8h-4v1.9"/>
	</g>
	<g class="st1">
		<path d="M502.7,22.7v1.2h-0.9v-4.2h-4v-0.8h4v-4h0.9v4h4v0.8h-4v1.9"/>
	</g>
	<g class="st1">
		<path d="M20.1,144.9v1.2h-0.9V142h-4v-0.8h4v-4h0.9v4h4v0.8h-4v1.9"/>
	</g>
	<g class="st1">
		<path d="M140.2,144.9v1.2h-0.9V142h-4v-0.8h4v-4h0.9v4h4v0.8h-4v1.9"/>
	</g>
	<g class="st1">
		<path d="M261.8,144.9v1.2h-0.9V142h-4v-0.8h4v-4h0.9v4h4v0.8h-4v1.9"/>
	</g>
	<g class="st1">
		<path d="M381.2,144.9v1.2h-0.9V142h-4v-0.8h4v-4h0.9v4h4v0.8h-4v1.9"/>
	</g>
	<g class="st1">
		<path d="M502.7,144.9v1.2h-0.9V142h-4v-0.8h4v-4h0.9v4h4v0.8h-4v1.9"/>
	</g>
	<g class="st1">
		<path d="M20.1,265.2v1.2h-0.9v-4.2h-4v-0.8h4v-4h0.9v4h4v0.8h-4v1.9"/>
	</g>
	<g class="st1">
		<path d="M140.2,265.2v1.2h-0.9v-4.2h-4v-0.8h4v-4h0.9v4h4v0.8h-4v1.9"/>
	</g>
	<g class="st1">
		<path d="M261.8,265.2v1.2h-0.9v-4.2h-4v-0.8h4v-4h0.9v4h4v0.8h-4v1.9"/>
	</g>
	<g class="st1">
		<path d="M381.2,265.2v1.2h-0.9v-4.2h-4v-0.8h4v-4h0.9v4h4v0.8h-4v1.9"/>
	</g>
	<g class="st1">
		<path d="M502.7,265.2v1.2h-0.9v-4.2h-4v-0.8h4v-4h0.9v4h4v0.8h-4v1.9"/>
	</g>
	<g class="st1">
		<path d="M20.1,385.5v1.2h-0.9v-4.2h-4v-0.8h4v-4h0.9v4h4v0.8h-4v1.9"/>
	</g>
	<g class="st1">
		<path d="M140.2,385.5v1.2h-0.9v-4.2h-4v-0.8h4v-4h0.9v4h4v0.8h-4v1.9"/>
	</g>
	<g class="st1">
		<path d="M261.8,385.5v1.2h-0.9v-4.2h-4v-0.8h4v-4h0.9v4h4v0.8h-4v1.9"/>
	</g>
	<g class="st1">
		<path d="M381.2,385.5v1.2h-0.9v-4.2h-4v-0.8h4v-4h0.9v4h4v0.8h-4v1.9"/>
	</g>
	<g class="st1">
		<path d="M502.7,385.5v1.2h-0.9v-4.2h-4v-0.8h4v-4h0.9v4h4v0.8h-4v1.9"/>
	</g>
	<g class="st1">
		<path d="M20.1,504.7v1.2h-0.9v-4.2h-4V501h4v-4h0.9v4h4v0.8h-4v1.9"/>
	</g>
	<g class="st1">
		<path d="M140.2,504.7v1.2h-0.9v-4.2h-4V501h4v-4h0.9v4h4v0.8h-4v1.9"/>
	</g>
	<g class="st1">
		<path d="M261.8,504.7v1.2h-0.9v-4.2h-4V501h4v-4h0.9v4h4v0.8h-4v1.9"/>
	</g>
	<g class="st1">
		<path d="M381.2,504.7v1.2h-0.9v-4.2h-4V501h4v-4h0.9v4h4v0.8h-4v1.9"/>
	</g>
	<g class="st1">
		<path d="M502.7,504.7v1.2h-0.9v-4.2h-4V501h4v-4h0.9v4h4v0.8h-4v1.9"/>
	</g>
</g>
</svg>
