<svg version="1.1" id="Layer_1" xmlns="http://www.w3.org/2000/svg" xmlns:xlink="http://www.w3.org/1999/xlink" x="0px" y="0px" viewBox="0 0 345 20.3" style="enable-background:new 0 0 345 20.3;" xml:space="preserve">
	<g>
		<path class="logo-fill" d="M16.2,19.6L13.8,9l-2.4,10.6H5.5L0.1,0.9h6.3l2.4,11.4l2.8-11.4H16l2.8,11.4l2.4-11.4h6.4l-5.3,18.7H16.2z"/>
		<path class="logo-fill" d="M28.7,19.6V0.9h14.2v4.9h-8.5v1.8h8.3v4.9h-8.3v2h8.5v4.9H28.7z"/>
		<path class="logo-fill" d="M45.4,19.6V0.9H51v13.7h7.1v4.9H45.4z"/>
		<path class="logo-fill" d="M58.8,10.3c0-5.8,4.4-9.7,10.3-9.7c4.9,0,7.4,2.9,8.5,5.4l-4.9,2.3c-0.5-1.5-1.9-2.7-3.6-2.7
			c-2.7,0-4.5,2.1-4.5,4.7s1.8,4.7,4.5,4.7c1.7,0,3.1-1.3,3.6-2.7l4.9,2.2c-1.1,2.5-3.6,5.5-8.5,5.5C63.3,19.9,58.8,16,58.8,10.3z"/>
		<path class="logo-fill" d="M78.3,10.3c0-5.7,4.5-9.7,10.2-9.7c5.8,0,10.2,3.9,10.2,9.7c0,5.7-4.5,9.7-10.2,9.7
			C82.8,19.9,78.3,16,78.3,10.3z M93,10.3c0-2.6-1.8-4.7-4.5-4.7c-2.7,0-4.5,2.1-4.5,4.7s1.8,4.7,4.5,4.7C91.3,14.9,93,12.9,93,10.3z
			"/>
		<path class="logo-fill" d="M117.3,19.6V8.3l-4.2,11.2h-2.5l-4.2-11.2v11.2h-5.7V0.9h7.8l3.3,9l3.3-9h7.8v18.7H117.3z"/>
		<path class="logo-fill" d="M126,19.6V0.9h14.2v4.9h-8.5v1.8h8.3v4.9h-8.3v2h8.5v4.9H126z"/>
		<path class="logo-fill" d="M153.8,19.6V5.8h-5V0.9h15.7v4.9h-5v13.7H153.8z"/>
		<path class="logo-fill" d="M164.9,10.3c0-5.7,4.5-9.7,10.2-9.7c5.8,0,10.2,3.9,10.2,9.7c0,5.7-4.5,9.7-10.2,9.7
			C169.4,19.9,164.9,16,164.9,10.3z M179.6,10.3c0-2.6-1.8-4.7-4.5-4.7c-2.7,0-4.5,2.1-4.5,4.7s1.8,4.7,4.5,4.7
			C177.9,14.9,179.6,12.9,179.6,10.3z"/>
		<path class="logo-fill" d="M198.5,19.6V5.8h-5V0.9h15.7v4.9h-5v13.7H198.5z"/>
		<path class="logo-fill" d="M221.5,19.6l-2.6-5.9h-2v5.9h-5.7V0.9h10c4.4,0,6.7,2.9,6.7,6.4c0,3.2-1.9,4.9-3.4,5.7l3.4,6.6H221.5z
			M222.1,7.3c0-1-0.9-1.5-1.8-1.5h-3.4v2.9h3.4C221.2,8.8,222.1,8.3,222.1,7.3z"/>
		<path class="logo-fill" d="M242.6,19.6l-0.7-2.2h-6.7l-0.7,2.2h-6.4L235,0.9h7.1l6.9,18.7H242.6z M238.6,6.4l-1.8,6h3.7L238.6,6.4z"/>
		<path class="logo-fill" d="M248.6,16.9l2.9-4.2c1.4,1.3,3.5,2.4,6,2.4c1.1,0,2.1-0.3,2.1-1c0-1.8-10.4,0-10.4-7.3c0-3.2,2.6-6.2,7.8-6.2
			c3.1,0,5.8,0.9,7.9,2.6l-3,4c-1.6-1.2-3.7-1.8-5.5-1.8c-1.1,0-1.4,0.4-1.4,0.8c0,1.8,10.4,0.3,10.4,7.2c0,4.1-3.1,6.5-8.1,6.5
			C253.3,19.9,250.6,18.7,248.6,16.9z"/>
		<path class="logo-fill" d="M279.6,19.6v-7.1h-6.7v7.1h-5.7V0.9h5.7v6.6h6.7V0.9h5.7v18.7H279.6z"/>
		<path class="logo-fill" d="M287.7,16.9c0-1.6,1.4-3,3-3s3,1.4,3,3s-1.4,3-3,3S287.7,18.5,287.7,16.9z"/>
		<path class="logo-fill" d="M296.2,19.6V0.9h5.7v18.7H296.2z"/>
		<path class="logo-fill" d="M317.4,19.6l-6.9-9.5v9.5h-5.7V0.9h5.8l6.5,8.8V0.9h5.7v18.7H317.4z"/>
		<path class="logo-fill" d="M336.7,19.6l-4.2-6.6l-1,1.4v5.2h-5.7V0.9h5.7v7l4.9-7h6.9l-7.1,8.7l7.4,10H336.7z"/>
	</g>
</svg>
