<svg xmlns="http://www.w3.org/2000/svg" viewBox="0 0 276.2 40.8"><path d="M1.7 3.7v-.3h.5c.1 0 .1.1.1.3v.4c0 .1 0 .4.2.8 0 .1 0 .3.1.8s.1.9.1 1.5c.1.6.2 1.1.3 1.6s.2.8.3 1 .2.5.3.9l.3 1.2c.1.4.1.7.3 1.1s.2.6.2.8.1.4.2.8c0 .1 0 .3.1.6s.1.7.1 1.2 0 .9.1 1.3.1.7.1.8 0 .3.1.5.1.4.1.6 0 .6.1 1.4.1 1.5.1 2.4 0 1.7.1 2.4.1 1.3.1 1.5c0 .3 0 .6.1.8s.2.5.3.7c0 0 .1.2.1.5s.2.6.3.9c0 .3 0 .6.1.9s.2.7.3.9c0 .3 0 .6.1 1s.2.7.4 1c.2.5.3.7.3.8s.1 0 .2 0c0-.1 0-.2.1-.4s.1-.3.1-.4 0-.3.1-.6.1-.7.1-1 0-.8.1-1.2.2-.7.3-.9c0-.1 0-.4.1-.9s.1-1.1.1-1.7c0-.7.1-1.4.2-2.2 0-.1 0-.3.1-.7s.1-.8.1-1.2 0-.9.1-1.3.1-.6.1-.7 0-.3.1-.8.1-.8.1-1.3c0-.4 0-.8.1-1.3s.2-.9.3-1.1c0-.3 0-.6.1-1.1s.1-.9.1-1.4v-1.4c0-.6.1-1.1.2-1.6.1-.4.2-.8.3-1.1s.1-.6.1-.7c.1-.2.2-.5.3-.8s.1-.7.1-1.1 0-.7.1-1.1.1-.6.1-.8v-.5c0-.2.2-.2.6-.2h.3c.1 0 .1.1.1.2.2.9.3 1.7.4 2.2.2.6.3 1.1.4 1.7s.1.9.1 1.1c.1.2.2.5.3.9s.1.7.1 1 0 .7.1 1.2.2 1 .3 1.4c0 .4 0 .7.1 1.1s.1.5.1.6c.1.5.2.9.2 1.3s0 .8.1 1.2.1.8.1 1 0 .4.1.6.1.4.1.5c.2.4.3.7.4.9s.2.4.2.6.1.4.1.5v.7c0 .3.1.5.2.7 0 .3 0 .5.1.8s.1.4.1.5 0 .3.1.5.1.5.1.8c.1.3.2.5.3.8s.1.4.1.5c.1.1.2.3.3.5s.1.4.1.6 0 .4.1.6.1.4.1.5c0 .2 0 .4.1.8s.1.6.1.9 0 .5.1.8.2.3.3.3c.2-.6.3-1.1.4-1.5.1-.5.2-1 .4-1.5s.3-1 .4-1.5c.1-.4.2-.8.3-1.3s.2-.9.2-1.3 0-.8.1-1.2.2-.7.3-.9.2-.5.3-1 .1-.9.1-1.4 0-1 .1-1.5c.1-.6.1-1 .1-1.3.1-.3.2-.7.4-1.4s.4-1.2.7-1.8c.2-.6.4-1.2.7-1.9s.6-1.3.7-1.8.3-1 .5-1.7.4-1.2.5-1.7c.1-.4.2-.8.3-1.3s.1-.9.1-1.1 0-.5.1-.8.2-.4.3-.5c.2 0 .4 0 .6.2-.4.1-.4.2-.4.4v.5c0 .4-.2.7-.4 1.1 0 .1-.1.4-.2.9s-.3 1-.4 1.6-.2 1.2-.4 1.8l-.5 1.5c-.1.3-.2.6-.4 1s-.3.7-.4 1l-.5 1-.6 1.3c-.1.4-.2.8-.4 1.3s-.2.8-.2 1c0 .3 0 .7-.1 1.2s-.1 1-.1 1.6c0 .7 0 1.2-.1 1.6s-.2.8-.3 1c-.1.2-.2.4-.2.5v.2c0-.1 0-.1 0 0s-.1.2-.2.3c0 .2 0 .5-.1.8s-.1.7-.1 1.1l-.3.9c-.1.3-.1.5-.1.6 0 .2 0 .4-.1.7-.1.3-.2.5-.3.8s-.2.7-.3 1.2-.2 1-.3 1.4c-.2.5-.3.9-.4 1.3s-.1.7-.1.9c0 .4 0 .7-.2 1.1 0 .4-.2.5-.4.5h-.3c-.1 0-.1-.1-.1-.2-.1-.1-.2-.3-.3-.6s-.1-.7-.1-1 0-.9-.1-1.5-.2-1.2-.3-1.7c0-.4-.1-.9-.2-1.5s-.3-1.3-.4-1.8-.2-1.1-.4-1.7-.3-1.1-.4-1.6c-.1-.4-.2-.7-.3-1.1s-.1-.5-.1-.6c0-.2 0-.5-.1-.8s-.2-.7-.3-1.1c-.2-.7-.3-1.2-.4-1.6s-.1-1-.1-1.7v-1.4c0-.4-.1-.6-.2-.6 0-.1 0-.3-.1-.5s-.2-.6-.3-1c0-.3 0-.7-.1-1.1s-.2-.8-.3-1.1c0-.4 0-.8-.1-1.1s-.1-.6-.1-.7c0-.2 0-.4-.1-.8s-.2-.6-.3-.9c-.1-.4-.2-.6-.2-.7s-.1 0-.2.1v.6c0 .3-.1.6-.2.8-.2.2-.3.4-.3.6v.5c0 .2 0 .4-.2.6-.2 0-.2 0 0 0 .1 0 .1 0 .2.1s0 .2 0 .3c-.1 0-.1.1-.2.3v.8c-.1-.2-.2-.3-.2-.3l-.2.4v.6c.1 0 .1.1.2.3s0 .5 0 .8v2.3c0 .4-.1.7-.2.9h-.2v.2c.1 0 .1.1.1.2s0 .3-.1.5v.6c0 .1 0 .2-.2.2v1.1c0 .3 0 .7-.1 1.1s.6.7.6 1.1c0 .5 0 .9-.1 1.2s-.1.6-.1.7c-.1.8-.2 1.5-.2 2s0 1-.1 1.6-.2 1-.3 1.4c0 .3 0 .6-.1 1.1s-.1.8-.1 1.1 0 .8-.1 1.3-.1.9-.1 1.3c-.1.4-.2.7-.3 1.1s-.2.5-.3.6c0 .1 0 .1-.1.2s-.2 0-.3 0c-.2 0-.4-.2-.5-.7l-.4-.8c-.2-.4-.2-.6-.2-.8 0-.1-.1-.3-.2-.6s-.2-.5-.3-.8c-.1-.2-.2-.5-.4-.9s-.2-.7-.2-1-.1-.7-.2-1.3-.3-1-.5-1.5c-.1-.4-.3-.7-.3-1s-.1-.6-.2-.9 0-.6 0-1.1v-1.8c0-.8 0-1.7-.1-2.4s-.1-1.3-.1-1.5c0-.3 0-.8-.1-1.6-.1-.9-.2-1.7-.3-2.5-.2-.8-.3-1.6-.4-2.2s-.1-1-.1-1.1c-.3-.9-.5-1.7-.6-2.3-.2-.6-.4-1.1-.5-1.7s-.3-.9-.3-1.1 0-.4-.1-.8 0-.6 0-.9 0-.6-.1-.9-.1-.6-.1-.8c-.1-.2-.1-.4 0-.5.1 0 .1-.1.1-.2zm27.2.3c0-.1.1-.2.1-.3 0-.1 0-.1.1-.1h.2c.1 0 .2 0 .4.1s.4.1.5.2.3.2.4.3c.1.1.3.2.3.2.1 0 .2 0 .3.1s.2.1.3.1c0 .1.1.1.4.2.2.1.5.1.7.1h.5c.2 0 .5 0 .7.1.3 0 .5 0 .7.1h.4c.1.1.3.2.6.2s.7.2 1.1.2c.4 0 .7 0 1 .1s.5.1.5.2c.1.1.2.2.1.3s-.2.3-.4.5l-.4.4s-.1-.1-.1-.2l-.3-.3c-.1-.1-.5-.2-1-.3-.2 0-.5-.1-.8-.1-.4-.1-.7-.1-1.1-.2s-.7-.1-1-.2-.5-.1-.6-.2c-.2-.1-.5-.2-.9-.2-.4-.1-.7-.2-.9-.2-.3-.1-.6-.1-1.1-.1-.1 0-.1.2-.1.6v1.5c0 .5 0 1.3-.1 2.2s-.1 1.8-.1 2.7c0 .8 0 1.4-.1 2.1s-.1 1-.1 1.1 0 .3-.1.4c0 .1-.1.2-.1.3-.1 1-.2 1.9-.2 2.6s0 1.3-.1 1.8-.1.8-.1.9c-.1.1 0 .2.1.3h5.9c0 .2-.1.4-.2.4-.1.1-.1.2-.2.3h-3.9c-.2-.1-.5-.1-.8-.1s-.5 0-.6.1l-.6.1.1.6v1.8c0 .3 0 .6-.1.9s-.1.5-.1.6 0 .3-.1.5-.1.5-.1.8 0 .7-.1 1.3-.1 1.1-.1 1.6 0 .9-.1 1.5-.1.9-.1 1.1v1.2c0 .4.1.8.1 1 .2.5.3.8.4.9.1.1.2.1.5.2s.5.1.7.1c.2.1.6.1 1 .1h1.2c.5 0 .8 0 1.2.1s.7.1.9.2c.2.1.5.1.9.2s.9.1 1.6.1h1.6c.4 0 .6-.1.7-.1s.3-.1.4-.1h.4c.1.1.2.2.3.2s0 .2 0 .2 0 .2-.1.3c0 .1-.4.2-1.2.1-.4 0-.7 0-1 .1s-.5.1-.5.1c0 .1-.1.1-.4 0s-.6-.1-1-.2-.8-.1-1.2-.2-.7-.1-1-.1-.7 0-1.1-.1-.9-.1-1.3-.1-.7 0-1.1-.1-.6-.1-.7-.1c-.1-.1-.2-.1-.3-.2s-.2-.1-.3-.1v.5c0 .1 0 .3-.1.4s-.1.2-.2.3-.3.1-.4 0c-.1 0-.1-.1-.1-.2v-.4c0-.1 0-.4-.1-.7s-.1-.7-.1-1.1c-.1-.3-.1-.7-.2-1.2s-.1-.9-.1-1.1c0-.1 0-.5.1-1.1s.1-1.2.1-1.8c0-.7 0-1.4.1-2.1s.1-1.2.2-1.5c0-.3 0-.7.1-1.1s.1-.9.1-1.3V19c0-.5 0-1.1.1-1.8s.1-1.1.1-1.4c.1-.3.1-.6.2-1s.1-.7.1-.9c0-.3 0-.9.1-1.9s.1-2.1.1-3.3c0-1.1 0-2.1.1-3s.1-1.3.1-1.4c.4-.1.4-.2.4-.3zm16.3-.1c.1-.2.1-.3.1-.4h.2c.2 0 .3 0 .3.1s0 .3-.1.8c0 .3 0 .5-.1.8s-.1.5-.1.6-.1.2-.2.3v2.4c0 .6 0 1.2-.1 1.7s-.1.8-.1.9c-.1.4-.2.8-.2 1s0 .5-.1.8-.1.5-.1.6v1.7c-.1.3-.2.7-.2 1.2s-.1.9-.1 1.3 0 .7-.1 1.1-.1.6-.1.7c0 .4-.1.8-.2 1.1 0 .2 0 .7-.1 1.6s-.1 1.9-.1 2.9 0 1.9-.1 2.9-.1 1.6-.1 2 0 .9-.1 1.4-.1.9-.1 1.2c-.1.3-.1.7-.2 1.1s0 .6 0 .8v.7c0 .3-.1.5-.2.7-.1.4-.2.6-.2.9h.5c.2 0 .3 0 .5-.1s.3-.2.4-.2c0-.1.2-.1.5-.2s.8 0 1.4 0c.4-.1.9-.1 1.3-.1s.8.1.9.1c.3 0 .4 0 .5.1s.1.2.1.4v.5c0 .1-.1.1-.2.2s-.2 0-.3 0c-.2 0-.3 0-.5-.1s-.3-.1-.4-.1c0-.1-.1-.1-.2-.2s-.2 0-.3 0h-.5c-.2 0-.4-.1-.6-.2-.3 0-.6 0-.9.1s-.6.2-.9.2-.6.2-.9.2-.5.1-.7.1h-.9c-.3-.2-.4-.4-.2-.5.1-.1.2-.3.2-.6s.1-.6.1-.8c.1-.3.1-.6.2-1s0-.8 0-1c.1-.3.1-.5.2-.7s0-.4 0-.5c.1 0 .1-.2.2-.6s0-.8 0-1.3 0-1.1.1-1.7.1-1.2.1-1.6v-3.7c.1-.7.1-1.4.2-2s0-1 0-1.2c.1-.2.2-.4.2-.8s.1-.7.1-.9 0-.6.1-1.1.1-.9.1-1.2c0-.3 0-.6.1-.9s.1-.6.1-.6c.2-.3.2-.9.2-1.6.1-.3.1-.5.2-.8s0-.5 0-.6 0-.6.1-1.3.1-1.5.1-2.4c.1-1.2.2-2.1.3-2.6s.2-.9.3-1.2c.5-.1.6-.3.6-.4zm12.6-.4h.9c.1 0 .2 0 .4.1s.4.1.7.2.5.2.7.4.4.3.6.4.3.2.5.4.3.4.4.5.2.3.2.6.1.4.1.4c0 .2 0 .4.1.6.1.2.1.5.2.7 0 .3 0 .7.1 1.1.1.4.1.8.1 1.1v1.2c0 .2-.1.4-.1.6-.1.1-.3.2-.5.2v-1c.1 0 .2 0 .2-.2 0-.1 0-.2-.1-.4s-.1-.4-.1-.7 0-.6-.1-1-.1-.9-.2-1.3c-.1-.3-.2-.6-.2-.9s-.1-.5-.1-.5c-.1-.1-.2-.2-.3-.4-.1-.2-.2-.3-.4-.4-.2-.2-.3-.3-.5-.3-.3-.2-.4-.3-.5-.5-.2-.1-.3-.2-.5-.2-.2-.1-.4-.1-.8-.1s-.7.1-1 .2-.6.3-1.1.5c-.2.2-.5.3-.8.5s-.5.3-.7.4c-.3.3-.5.8-.6 1.3-.2.6-.3 1.1-.5 1.5-.1.1-.2.2-.2.4s-.1.3-.1.5 0 .3-.1.5-.1.3-.1.3 0 .2-.1.4-.1.4-.1.6 0 .3-.1.5-.1.3-.1.3 0 .4-.1.9-.1 1.1-.1 1.7c-.1.6-.2 1.1-.2 1.6s-.1.8-.1.9 0 .2-.1.4-.1.4-.1.7c0 .3 0 .6-.1 1s-.1.6-.1.8 0 .5.1.8.1.6.2.8c.1.2.2.4.2.8s.1.7.1 1v1.3c0 .5-.1 1.1-.1 1.6s0 1-.1 1.5-.1.9-.1 1.1 0 .3-.1.5-.1.3-.1.4c0 0 0 .3.2.8.1.2.2.4.2.7s.1.6.1.8.1.4.2.8.2.6.3.9.2.5.4.8.3.5.4.7c.2.2.4.4.6.7 0 .2.2.3.7.5.2.1.4.1.8.2s.6.1.9.1c.2.1.5.1.7.1s.3 0 .3-.1c.3-.1.5-.2.7-.2.3 0 .6 0 1-.1l.4-.4.5-.5c.1-.1.2-.2.4-.3s.4-.3.5-.5.3-.4.6-.7.4-.5.4-.7c.1-.2.1-.5.2-.7s.1-.4.1-.4c.1-.8.2-1.5.2-1.9v-1.9c0-.1 0-.2.1-.2s.1-.1.2-.1c.2 0 .3.1.5.3.1.1.2.3.2.6 0 .1 0 .3-.1.5-.1.3-.1.5-.1.8v1c0 .3-.1.6-.1.8s0 .3-.1.6c-.1.2-.1.4-.1.4-.1.4-.3.6-.3.8-.1.1-.2.3-.4.5s-.4.5-.7.8l-.8.8-.7.7c-.2.2-.4.3-.6.5s-.5.3-.7.4c-.2.1-.4.2-.7.2s-.6.1-.9.1-.8-.1-1.3-.2c0-.1-.1-.2-.2-.2s-.3-.1-.4-.1c-.3 0-.8-.3-1.5-1-.2-.3-.5-.7-.8-1s-.4-.7-.5-.9c-.2-.2-.3-.6-.5-1.1s-.3-.9-.4-1.3c-.1-.4-.2-.7-.2-.9s-.1-.6-.1-.8v-2.2c0-.7 0-1.3.1-2s.1-1.1.1-1.4c.1-.2.1-.5.1-.8v-.7c-.1-.2-.1-.3-.2-.5s-.1-.3-.2-.5c0-.2 0-.3-.1-.6s-.1-.4-.1-.6c-.1-.1-.1-.3-.1-.6V19c0-.3.1-.5.1-.7s0-.3.1-.6.1-.4.1-.6 0-.4.1-.8.1-.8.1-1.1 0-.8.1-1.5.2-1.4.4-2c.1-.7.2-1.2.2-1.8s.2-.9.2-1c.2-.3.3-.6.3-1 0-.2 0-.3.1-.6s.1-.4.2-.6c0-.2.1-.5.4-.7.3-.2.7-.5 1.2-.9.4-.2.8-.5 1.1-.7s.6-.3.6-.3c.5-.3.8-.4 1.1-.6zm13.2.3c.1-.1.2-.1.3-.1h.3c.1 0 .3.1.5.2.3.1.6.3.9.4.3.2.6.5 1 .7s.6.4.8.6l.5.5c.2.2.4.3.5.5s.4.4.6.8.5.8.6 1.2c.2.4.5.8.7 1.3s.4.9.4 1.2.1.6.2.9.1.5.1.5c.1 1.4.2 2.5.2 3.4 0 .9 0 1.9.1 2.7s.1 1.5.1 1.8c.1.2.1.7.1 1.3v1.7c0 .5 0 1.1-.1 1.6s-.1.9-.1 1c0 .2 0 .4-.1.7-.1.3-.1.6-.1.8 0 .2 0 .5-.1.9s-.1.7-.1.9c-.1.2-.1.5-.2.8s-.1.5-.1.7 0 .4-.1.6-.1.5-.2.8c-.2.2-.3.5-.4.9s-.2.6-.4.9c-.2.4-.3.7-.4 1s-.4.5-.7.6c-.2.2-.4.5-.7.7s-.6.4-.8.4c-.2.2-.5.3-.8.4s-.6.3-.8.3c-.3.1-.5.1-.7.1s-.4 0-.7-.1c-.2 0-.4 0-.7-.1s-.5-.1-.8-.1c-.2-.1-.4-.2-.6-.2s-.2 0-.2-.1c-.3-.2-.6-.5-.9-.8-.2-.2-.3-.4-.6-.8s-.4-.7-.6-1.1l-.6-1.2-.4-4.2c0-.6 0-1.2.1-1.9s.1-1.2.2-1.7.1-.9.2-1.2.1-.5.2-.6c0-.2.1-.4.2-.8 0-.1.1-.3.2-.6s.2-.6.3-1c.1-.4.2-.8.3-1.3s.2-.9.2-1.2 0-.7.1-1.1.1-.7.1-1 0-.5.1-.8.1-.6.1-.7 0-.4.1-.8.1-.7.1-1c0-.2 0-.5.1-.8s.1-.6.1-.7c0-.5.1-.9.3-1.3 0-.1 0-.2.1-.5s.1-.5.1-.7 0-.6.1-1 .1-.8.1-1.1c.1-.5.1-.8.2-1s.3-.4.6-.8c-.4 0-.2-.2-.1-.4s.2-.4.2-.6v-.4c0-.1.1-.1.3-.1l.5.1zm2.7 1.6l-.8-.6-.7-.2c-.2-.1-.4-.1-.4-.1-.4.2-.6.4-.8.5-.5.3-.8.6-1 .8 0 .1-.1.2-.2.4s-.1.4-.1.5 0 .2-.1.5-.1.5-.1.6c0 .2 0 .3-.1.6 0 .2-.1.4-.1.6 0 .2 0 .3-.1.6-.1.2-.1.4-.1.6 0 .2 0 .3-.1.5s-.1.3-.1.4c.1.2.1.4.1.5 0 .2 0 .3-.1.5s-.1.3-.1.4c0 .2 0 .4-.1.7s-.1.5-.1.8 0 .6-.1 1.2-.1 1.1-.1 1.6 0 1.1-.1 1.5-.1.8-.1.8 0 .2-.1.4l-.1.8c-.1.2-.2.6-.3 1s-.2.8-.4 1.2l-.3.9c-.1.3-.1.6-.2 1s-.1.9-.2 1.5-.1 1.4-.1 2.4l.4 4.5.5.9c.1.2.2.5.3.8s.3.5.3.5.1.2.2.3.3.3.4.5c.2.1.3.2.5.3s.3.2.5.3.4.2.7.2.7.1 1 .1c.4.1.7.1 1 0s.6-.1.9-.2c.2-.1.4-.2.7-.3s.6-.3.8-.4l.6-.3c.2-.1.3-.2.4-.3s.2-.3.4-.6.4-.7.6-1.1.4-.8.6-1.3.3-.7.4-.8c0-.2 0-.4.1-.7s.1-.5.2-.8c0-.2 0-.5.1-.9s.1-.7.1-1.1c0-.3 0-.7.1-1.2s.1-.9.1-1.3c.1-.3.1-.8.1-1.5v-1.7c-.1-.5-.1-1.1-.1-1.7v-1.3c0-.6 0-1-.2-1v-3c0-2-.1-3.3-.3-3.8-.1-.3-.2-.7-.4-1.1s-.4-.9-.6-1.4c-.2-.4-.5-.8-.7-1.1s-.4-.6-.4-.8c-.1-.1-.3-.2-.5-.4s-.5-.4-.8-.7c-.2 0-.4-.3-.8-.5zm8.2-1c0-.2.1-.4.2-.5 0-.1 0-.2.1-.3s.2-.1.3-.1c.1.2.2.3.2.4.1 0 .2.2.3.5s.3.7.5 1.1c.1.5.2 1 .4 1.5s.3.9.4 1.2.2.7.3 1.1.2.8.3 1.1c.1.4.2.9.3 1.4s.2 1.1.3 1.6c.2.4.4.9.5 1.4.1.5.2.9.3 1.1.1.3.2.6.3 1s.2.7.3 1 .2.6.3 1 .1.6.1.8c0 .1 0 .3.1.5s.1.5.1.7c0 .1 0 .4.1.9s.1 1.1.1 1.7 0 1.3.1 2.1.1 1.4.1 1.9 0 1 .1 1.4.2.7.3.8c0 .1 0 .2.1.3s.1.3.1.5v.5c0 .2.1.5.2.7s.2.4.3.7.1.4.1.5v.6c0 .2.1.3.2.3v-1.4c0-.5 0-1 .1-1.4s.2-.8.3-1 .2-.4.2-.7v-.9c.1-.2.2-.4.2-.7s.1-.4.2-.5c.1-.2.2-.5.3-.8s.1-.7.1-1c.1-.3.2-.7.3-1.1s.2-.7.3-.9c.3-.6.4-1 .4-1.2 0 0 0-.2.2-.6.1-.2.2-.5.3-.8s.1-.7.1-1.1.1-.8.2-1.3.3-.7.4-.9c0-.1.1-.5.2-1s.2-1.1.3-1.7.2-1.2.3-1.7c.1-.5.1-.9.1-1.1 0-.4 0-.8.1-1.3.1-.4.2-.7.3-.9s.2-.4.2-.6v-.4c0-.5.1-.9.2-1.2.1-.4.2-.8.3-1s.1-.5.1-.6V5c0-.1 0-.2.1-.3l.3-.3c.1-.1.2-.2.3-.2h.5c.2.1.3.2.4.4l.4 1.2c.1.4.2.8.3 1.3.1.4.1.8.1 1.1s0 .7.1 1.2.1 1 .1 1.4c0 .2.1.7 0 1.4s-.1 1.5-.1 2.3c0 .9-.1 1.7-.1 2.6s-.1 1.5-.1 2c0 1.3 0 2.4-.1 3.2s-.2 1.5-.3 2c-.1.4-.2.9-.3 1.5s-.1 1.2-.1 1.7c0 .4 0 1.2-.1 2.3s-.1 2.2-.1 3.3 0 2.1-.1 3-.1 1.4-.1 1.5-.1.2-.4.4c-.2 0-.3 0-.4-.1s-.1-.2-.2-.3v-.7c0-.3.1-.5.2-.7v-5.4c0-.9.1-1.7.2-2.4 0-.7 0-1.3.1-1.9s.1-.9.1-.9c0-.2 0-.5.1-.9l.3-1.2c.1-.6.2-1.4.2-2.3v-5.9c0-.9.1-1.9.1-2.8s.1-1.8.1-2.6V8.2c-.1-.5-.2-1-.3-1.4s-.1-.7-.1-.8c-.1-.1-.2-.1-.2 0s.1-.1 0 .2c0 .1-.1.5-.2 1.1s-.3 1.4-.4 2.1c0 .4-.1.9-.3 1.6s-.3 1.4-.4 2.2-.3 1.4-.4 2c-.1.6-.2 1-.2 1.1-.1.4-.2.9-.3 1.4s-.2.9-.3 1.2c0 .3-.1.7-.2 1.3s-.3 1.2-.4 1.7c-.2.6-.4 1.1-.6 1.6s-.3.8-.3 1 0 .4-.1.6-.1.4-.1.6c-.1.1-.2.3-.2.6 0 .2-.1.3-.2.4-.1.2-.2.4-.3.7s-.1.5-.1.7v.7c0 .3-.1.5-.2.7-.1.3-.2.6-.2.9v.6c0 .1 0 .3-.1.7s-.1.7-.1 1.1 0 .8-.1 1.2-.1.7-.1.9c-.1.1-.2.3-.2.6v.2c-.2 0-.4.2-.6.4s-.4.2-.6 0c-.1 0-.2-.1-.2-.2 0-.3-.1-.5-.2-.6 0-.2-.1-.6-.2-1.1s-.3-1-.4-1.5l-.3-1.5c-.1-.5-.1-.8-.1-.9s-.1-.2-.2-.4c0-.1 0-.3-.1-.7s-.1-.8-.1-1.3 0-1.1-.1-1.9-.1-1.5-.1-2.1 0-1.2-.1-1.7-.1-.8-.1-.9c0-.2 0-.4-.1-.7s-.1-.4-.1-.5c0-.2 0-.5-.1-.8s-.1-.7-.1-1c-.1-.3-.2-.7-.3-1.1s-.2-.8-.3-1.1l-.3-.9c-.1-.3-.1-.5-.1-.6-.1 0-.2-.2-.3-.6s-.3-.9-.5-1.6c-.1-.6-.2-1.2-.4-1.8s-.3-1.1-.4-1.4c0-.3-.1-.7-.2-1.1s-.3-.9-.4-1.2c0-.2-.1-.5-.2-1-.1 0-.2.1-.2.2v.4c0 .1 0 .4-.1.8s-.1.9-.1 1.4v10.4c0 .8-.1 1.4-.1 2.1s0 1.4-.1 2.2 0 1.7 0 2.6c0 1 0 1.9-.1 3s-.1 2-.1 2.9-.1 1.6-.1 2.3-.1 1-.1 1.1c-.1.2-.1.4-.2.7s0 .4 0 .5c0 .2 0 .4-.1.7s-.1.4-.1.5c-.1.1-.3.2-.6.2-.1 0-.2-.1-.2-.2s-.1-.4 0-.8c0-.3 0-.6.1-.9s.1-.5.1-.7v-1.1c0-.7.1-1.6.1-2.6s.1-2.2.1-3.5.1-2.5.1-3.8v-3.7c0-1.3 0-2.5.1-3.7s.1-2.2.1-3.2v-2.3c0-1.1 0-2.1.1-3s.1-1.4.1-1.6c0-.1 0-.3.1-.6s.1-.6.1-.9.2-.6.3-.9zm19-.4c0-.1.1-.2.1-.3 0-.1 0-.1.1-.1h.2c.1 0 .2 0 .4.1s.4.1.5.2.3.2.4.3c.1.1.3.2.3.2.1 0 .2 0 .3.1s.2.1.3.1c0 .1.1.1.4.2.2.1.5.1.7.1h.5c.2 0 .5 0 .7.1.3 0 .5 0 .7.1h.4c.1.1.3.2.6.2s.7.2 1.1.2.7 0 1 .1.5.1.5.2c.1.1.2.2.1.3s-.2.3-.4.5l-.4.4s-.1-.1-.1-.2l-.3-.3c-.1-.1-.5-.2-1-.3-.2 0-.5-.1-.8-.1-.4-.1-.7-.1-1.1-.2s-.7-.1-1-.2-.5-.1-.6-.2c-.2-.1-.5-.2-.9-.2-.4-.1-.7-.2-.9-.2-.3-.1-.6-.1-1.1-.1-.1 0-.1.2-.1.6v1.5c0 .5 0 1.3-.1 2.2s-.1 1.8-.1 2.7c0 .8 0 1.4-.1 2.1s-.1 1-.1 1.1 0 .3-.1.4c0 .1-.1.2-.1.3-.1 1-.2 1.9-.2 2.6s0 1.3-.1 1.8-.1.8-.1.9c-.1.1 0 .2.1.3h5.9c0 .2-.1.4-.2.4-.1.1-.1.2-.2.3h-3.9c-.2-.1-.5-.1-.8-.1s-.5 0-.6.1l-.6.1.1.6v1.8c0 .3 0 .6-.1.9s-.1.5-.1.6 0 .3-.1.5-.1.5-.1.8 0 .7-.1 1.3-.1 1.1-.1 1.6 0 .9-.1 1.5-.1.9-.1 1.1v1.2c0 .4.1.8.1 1 .2.5.3.8.4.9.1.1.2.1.5.2s.5.1.7.1c.2.1.6.1 1 .1h1.2c.5 0 .8 0 1.2.1s.7.1.9.2c.2.1.5.1.9.2s.9.1 1.6.1h1.6c.4 0 .6-.1.7-.1s.3-.1.4-.1h.4c.1.1.2.2.3.2s0 .2 0 .2 0 .2-.1.3c0 .1-.4.2-1.2.1-.4 0-.7 0-1 .1s-.5.1-.5.1c0 .1-.1.1-.4 0s-.6-.1-1-.2-.8-.1-1.2-.2-.7-.1-1-.1-.7 0-1.1-.1-.9-.1-1.3-.1-.7 0-1.1-.1-.6-.1-.7-.1c-.1-.1-.2-.1-.3-.2s-.2-.1-.3-.1v.5c0 .1 0 .3-.1.4s-.1.2-.2.3-.3.1-.4 0c-.1 0-.1-.1-.1-.2v-.4c0-.1 0-.4-.1-.7s-.1-.7-.1-1.1c-.1-.3-.1-.7-.2-1.2s-.1-.9-.1-1.1c0-.1 0-.5.1-1.1s.1-1.2.1-1.8c0-.7 0-1.4.1-2.1s.1-1.2.2-1.5c0-.3 0-.7.1-1.1s.1-.9.1-1.3V19c0-.5 0-1.1.1-1.8s.1-1.1.1-1.4c.1-.3.1-.6.2-1s.1-.7.1-.9c0-.3 0-.9.1-1.9s.1-2.1.1-3.3c0-1.1 0-2.1.1-3s.1-1.3.1-1.4c.3-.1.3-.2.4-.3zm27.1-.2c.1-.2.3-.2.4-.3h.2c.1 0 .1 0 .1.1 0 0 .2.1.7.3.2.1.5.1.9.2s.8.1 1.1.2c1.2.4 2.1.6 2.6.6h.9c.4 0 .7.1.7.3 0 .1 0 .3-.1.5s-.3.3-.4.3c-.2 0-.3 0-.3-.1s-.1-.1-.2-.2-.2-.1-.4-.1h-.5c-.2 0-.4 0-.6-.1-.1 0-.5-.1-1.1-.3-.6-.2-.9-.3-.9-.4h-.3v4.6c0 .7-.1 1.3-.1 1.6s0 .8-.1 1.4-.1 1.1-.1 1.5c0 .5 0 1.1-.1 1.8s-.1 1.4-.1 1.9c-.1.6-.1 1.2-.1 1.8v2.7c0 .4.1.7.1.8v.8c0 .4-.1.8-.1 1.3-.1.4-.1.9-.2 1.4s-.1 1-.1 1.3v1.1c0 .4-.1.7-.1.9s-.1.5-.2.8-.1.6-.1.9c0 .2 0 .5-.1.8s-.1.6-.1.9c-.1.3-.1.6-.1 1v1c0 .2 0 .4.1.7s.1.5.1.6c.1.2.1.4 0 .5s-.1.2-.2.2c-.1.1-.3.1-.5 0-.1 0-.1-.1-.1-.3v-1.4c0-.4 0-.9.1-1.5s.1-1.1.1-1.5 0-.8.1-1.2.1-.6.2-.6c0-.1 0-.3.1-.5s.1-.3.1-.4 0-.3.1-.6.1-.4.1-.6v-.8c0-.4.1-.8.1-1.2v-1c0-.3.1-.5.1-.6s0-.6.1-1.3.1-1.5.1-2.4c0-1 0-2 .1-3.2s.1-2.1.1-2.8 0-1.4.1-2 .1-1 .1-1.2c0-.3 0-.6.1-.9s.1-.6.1-.8V5.6l-.1-.8-1-.1c-.3 0-.5 0-.7-.1s-.3-.1-.4-.2c-.4-.2-.4-.4-.3-.6zm14.7 0c.1-.1.2-.1.3-.1h.3c.1 0 .3.1.5.2.3.1.6.3.9.4.3.2.6.5 1 .7s.6.4.8.6l.5.5c.2.2.4.3.5.5s.4.4.6.8.5.8.6 1.2c.2.4.5.8.7 1.3s.4.9.4 1.2.1.6.2.9.1.5.1.5c.1 1.4.2 2.5.2 3.4 0 .9 0 1.9.1 2.7s.1 1.5.1 1.8c.1.2.1.7.1 1.3v1.7c0 .5 0 1.1-.1 1.6s-.1.9-.1 1c0 .2 0 .4-.1.7-.1.3-.1.6-.1.8 0 .2 0 .5-.1.9s-.1.7-.1.9c-.1.2-.1.5-.2.8s-.1.5-.1.7 0 .4-.1.6-.1.5-.2.8c-.2.2-.3.5-.4.9s-.2.6-.4.9c-.2.4-.3.7-.4 1s-.4.5-.7.6c-.2.2-.4.5-.7.7s-.6.4-.8.4c-.2.2-.5.3-.8.4s-.6.3-.8.3c-.3.1-.5.1-.7.1s-.4 0-.7-.1c-.2 0-.4 0-.7-.1s-.5-.1-.8-.1c-.2-.1-.4-.2-.6-.2s-.4-.2-.5-.2c-.3-.2-.6-.5-.9-.8-.2-.2-.3-.4-.6-.8s-.4-.7-.6-1.1L138 33l-.4-4.2c0-.6 0-1.2.1-1.9s.1-1.2.2-1.7.1-.9.2-1.2.1-.5.2-.6c0-.2.1-.4.2-.8 0-.1.1-.3.2-.6s.2-.6.3-1 .2-.8.3-1.3.2-.9.2-1.2 0-.7.1-1.1.1-.7.1-1 0-.5.1-.8.1-.6.1-.7 0-.4.1-.8.1-.7.1-1c0-.2 0-.5.1-.8s.1-.6.1-.7c0-.5.1-.9.3-1.3 0-.1 0-.2.1-.5s.1-.5.1-.7 0-.6.1-1 .1-.8.1-1.1c.1-.5.1-.8.2-1s.3-.4.6-.8c.2-.2.3-.3.4-.6s.2-.4.2-.6v-.4c0-.1.1-.1.3-.1v.3zm2.7 1.6l-.8-.6-.7-.2c-.2-.1-.4-.1-.4-.1-.4.2-.6.3-.8.5-.5.3-.8.6-1 .8-.1.1-.1.2-.2.4s-.1.4-.1.5 0 .2-.1.5-.1.5-.1.6c0 .2 0 .3-.1.6 0 .2-.1.4-.1.6 0 .2 0 .3-.1.6-.1.2-.1.4-.1.6 0 .2 0 .3-.1.5s-.1.3-.1.4l-.2.6c0 .2 0 .3-.1.5s-.1.3-.1.4c0 .2 0 .4-.1.7s-.1.5-.1.8 0 .6-.1 1.2-.1 1.1-.1 1.6 0 1.1-.1 1.5-.1.8-.1.8 0 .2-.1.4l-.2.7c-.1.2-.2.6-.3 1s-.2.8-.4 1.2l-.3.9c-.1.3-.1.6-.2 1s-.1.9-.2 1.5-.1 1.4-.1 2.4l.4 4.5.5.9c.1.2.2.5.3.8s.2.4.2.5.1.2.2.3.3.3.4.5c.2.1.3.2.5.3s.3.2.5.3.4.2.7.2.7.1 1 .1c.4.1.7.1 1 0s.6-.1.9-.2c.2-.1.4-.2.7-.3s.6-.3.8-.4l.6-.3c.2-.1.3-.2.4-.3s.2-.3.4-.6.4-.7.6-1.1.4-.8.6-1.3.3-.7.4-.8c0-.2 0-.4.1-.7s.1-.5.2-.8c0-.2 0-.5.1-.9s.1-.7.1-1.1c0-.3 0-.7.1-1.2s.1-.9.1-1.3c.1-.3.1-.8.1-1.5v-1.7c-.1-.5-.1-1.1-.1-1.7v-1.3c0-.6 0-1-.2-1v-3c0-2-.1-3.3-.3-3.8-.1-.3-.2-.7-.4-1.1s-.4-.9-.6-1.4c-.2-.4-.5-.8-.7-1.1s-.4-.6-.4-.8c-.1-.1-.3-.2-.5-.4s-.5-.4-.8-.7c.3 0 0-.3-.3-.5zm21-1.6c.1-.2.3-.2.4-.3h.2c.1 0 .1 0 .1.1 0 0 .2.1.7.3.2.1.5.1.9.2s.8.1 1.1.2c1.2.4 2.1.6 2.6.6h.9c.4 0 .7.1.7.3 0 .1 0 .3-.1.5s-.3.3-.4.3c-.2 0-.3 0-.3-.1s-.1-.1-.2-.2-.2-.1-.4-.1h-.5c-.2 0-.4 0-.6-.1-.1 0-.5-.1-1.1-.3-.6-.2-.9-.3-.9-.4h-.3v4.6c0 .7-.1 1.3-.1 1.6s0 .8-.1 1.4 0 1.2 0 1.6c0 .5 0 1.1-.1 1.8s-.1 1.4-.1 1.9c-.1.6-.1 1.2-.1 1.8v2.7c0 .4.1.7.1.8v.8c0 .4-.1.8-.1 1.3-.1.4-.1.9-.2 1.4s-.1 1-.1 1.3v1.1c0 .4-.1.7-.1.9s-.1.5-.2.8-.1.6-.1.9c0 .2 0 .5-.1.8s-.1.6-.1.9c-.1.3-.1.6-.1 1v1c0 .2 0 .4.1.7s.1.5.1.6c.1.2.1.4 0 .5s-.1.2-.2.2c-.1.1-.3.1-.5 0-.1 0-.1-.1-.1-.3v-1.4c0-.4 0-.9.1-1.5s.1-1.1.1-1.5 0-.8.1-1.2.1-.6.2-.6c0-.1 0-.3.1-.5s.1-.3.1-.4 0-.3.1-.6.1-.4.1-.6v-.8c0-.4.1-.8.1-1.2v-1c0-.3.1-.5.1-.6s0-.6.1-1.3.1-1.5.1-2.4c0-1 0-2 .1-3.2s.1-2.1.1-2.8 0-1.4.1-2 .1-1 .1-1.2c0-.3 0-.6.1-.9s.1-.6.1-.8V5.6l-.1-.8-1-.1c-.3 0-.5 0-.7-.1s-.3-.1-.4-.2c-.5-.2-.5-.4-.4-.6zm10.3 0c.2-.1.3-.2.5-.3h.6c.1 0 .2 0 .4.1s.4.1.6.1c.3.1.6.1.8.2l.6.3.5.5.4.4c.1.1.2.2.3.4l.3.6c.1.2.3.4.3.6s.1.3.2.3c.1.4.2.6.3.8s.2.5.3.8.2.7.3 1 .1.7.2 1.1 0 1 0 1.6c0 .7 0 1.3-.1 1.7s-.2.9-.4 1.5c-.1.6-.3 1.1-.4 1.5s-.3.7-.6 1c-.1.2-.3.4-.6.7s-.4.5-.6.6c-.4.4-.7.6-.8.7-.2.1-.4.3-.5.4s-.3.3-.6.4-.6.2-.7.2c-.2.2-.4.3-.5.3 0-.1 0-.1 0 0s-.1 0-.1 0c0 .1.1.2.2.3s.2.3.3.5c.1.1.3.3.4.5s.3.4.4.5c.1.1.2.3.4.5s.3.4.4.6c.1.2.3.5.5 1 .1.1.2.2.3.4s.3.4.4.7c.1.2.3.5.6.9s.4.7.6 1.1c.2.3.4.6.6 1s.4.7.6.9c.1.3.3.6.5 1-.1 0-.1 0 0 .1l.2.2c.1.1.1.2.3.4s.2.4.2.6c.1.1.1.3.2.5s.1.3.2.5.1.3.2.4.1.2.1.3.1.3.3.6l.6.9c.1.3.3.6.5.9s.3.4.4.4c.1 0 .1.1.1.1 0 .1 0 .3-.1.5-.1.1-.2.1-.4.1-.1 0-.4-.3-.7-1-.1-.3-.3-.7-.5-1s-.3-.6-.5-.8-.3-.4-.4-.7-.2-.5-.3-.7c-.1-.1-.1-.3-.3-.6s-.2-.4-.2-.6c0-.3-.1-.5-.3-.7s-.3-.3-.3-.4c0 0-.1-.2-.3-.7-.3-.3-.4-.5-.4-.7-.1 0-.1-.1-.2-.2s-.1-.2-.2-.4-.2-.4-.5-.9-.6-1-.9-1.6-.8-1.3-1.2-2.1c0-.1-.2-.4-.6-1-.1-.2-.3-.4-.5-.7s-.3-.4-.5-.6c-.1-.2-.2-.4-.4-.7v1.3c0 .3 0 .7.1 1s.1.5.1.7c.1.1.1.3.1.4v.3c0 .1 0 .7.1 1.7s.1 2.2.1 3.5 0 2.5.1 3.5.1 1.6.1 1.7c.1.3.1.5 0 .5s-.2.1-.3.2c-.1.1-.1.1-.3.2s-.2 0-.2 0c-.1 0-.1-.5-.1-1.6v-3.8c0-1.5 0-2.7-.1-3.8s-.1-1.7-.1-1.7v-.4c0-.2-.1-.4-.1-.6 0-.1 0-.4-.1-.7s-.1-.7-.1-1 0-.7-.1-1.2-.1-.8-.1-1.2c-.1-.3-.1-.6-.1-.9s0-.6.1-.8v-1.6c0-.9.1-1.8.1-2.8v-4.4c0-.2 0-.5.1-.9s.1-.8.1-1.1c.1-1 .2-1.7.1-2.2-.1-.4-.2-.7-.1-.8h.3V5l-.1-.1h-.1c0 .1-.1.2-.3.1-.1 0-.1-.1-.1-.1-.1-.1-.1-.3-.1-.4s.1-.3.3-.5c-.2 0 0-.1.2-.2zm3 1l-.4-.4c-.2-.2-.7-.3-1.4-.3-.3 0-.5 0-.8.1-.2.1-.3.1-.3.2-.1 0-.2.1-.1.3.1.1.1.2.2.4s.1.5.1.7c.1.2.1.4.1.7v.6c0 .1 0 .3-.1.6s0 .6 0 .8 0 .7-.1 1.6-.1 1.8-.1 2.7 0 2-.1 3.1-.1 1.9-.1 2.4l-.1 1.8.5.3.4.3 1-.7c.2-.1.4-.3.7-.5s.4-.3.4-.5c.1-.1.2-.2.4-.3.2 0 .3-.2.4-.4.3-.3.5-.6.7-.8.1-.1.2-.4.3-.6s.2-.5.3-.7l.3-.9c.1-.3.1-.6.1-.8.1-.1.1-.4.2-.9s.1-.9.1-1.4c0-.4 0-.9-.1-1.3s-.1-.8-.1-.9c-.1-.1-.1-.3-.2-.5s.1-.5.1-.6 0-.2-.1-.4-.1-.5-.2-.7c-.1-.2-.3-.4-.3-.7s-.2-.4-.2-.4c-.1 0-.1-.1-.2-.2s-.1-.2-.1-.3-.1-.2-.2-.4-.2-.3-.4-.5l-.6-.5zm19.8-.3c.1-.3.3-.5.4-.7.2-.2.4-.4.6-.4 0 0 .2.1.4.4.2.5.3.9.4 1.1.2.2.3.5.4.9s.1.7.1 1c.1.3.2.6.2.9s.1.6.2.8c.1.1.2.3.3.6s.2.7.3 1.1l.3 1.2c.1.4.2.7.3.9s.2.5.3.9.1.8.1 1.2c.1.3.2.8.4 1.4s.3 1.3.4 2c.2.7.4 1.2.5 1.7s.2.7.2.8v.3c0 .1.1.1.2.1 0 .1 0 .3.1.6s.1.6.1.9.1.7.2 1.3.3 1.2.5 1.7.4 1.1.5 1.7.3 1 .4 1.3c0 .2 0 .4.1.8.1.3.1.6.1.8.1.2.2.4.3.8.1.3.1.6.1.9s.1.7.2 1.1c0 0 .1.2.2.5s.2.6.3 1 .2.7.2 1 .1.6.1.7c.1.2.1.4.1.7s0 .5-.1.7c0 .2 0 .3-.1.3h-.3c-.1 0-.2-.1-.3-.3s-.3-.6-.5-1.2c0-.2-.1-.5-.2-.9s-.2-.9-.3-1.4-.2-.9-.2-1.3c-.1-.4-.1-.7-.1-.8s0-.3-.1-.7c-.1-.4-.2-.8-.3-1.1-.2-1-.4-1.9-.6-2.7-.2-.6-.3-1.1-.4-1.5-.1-.2-.2-.3-.4-.3s-.8 0-1.8.1H198c-.8 0-1.7 0-2.6-.1s-1.5-.1-1.8-.1h-.9l-.4.8c-.1.3-.2.6-.3.8s-.1.5-.1.7 0 .5-.1.8l-.3 1.1c-.1.4-.2.8-.4 1.3s-.3 1-.4 1.3l-.3.9c-.1.3-.2.6-.3.8-.1.1-.2.3-.3.5s-.1.4-.1.5 0 .3-.1.5-.1.4-.1.6c-.1.3-.2.6-.3.8s-.2.4-.3.5-.2.2-.3.2h-.3c-.2 0-.2-.2-.2-.6 0-.1 0-.3.1-.6l.3-.9c.1-.4.2-.7.3-1.1s.2-.6.3-.8c.1-.1.2-.3.4-.7s.3-.8.4-1.2.2-.7.3-1.1.1-.5.1-.6 0-.3.1-.6.2-.7.3-1.1l.3-1.2c.1-.4.2-.7.3-.9l.3-.9c.1-.3.2-.5.3-.6l.4-.8c.2-.4.2-.6.2-.8 0-.1.1-.4.4-1s.5-1.1.8-1.7c.2-.7.4-1.2.6-1.7s.3-.7.3-.8c.2-.2.4-.5.6-.9.1-.3.2-.7.4-1.2s.3-1 .4-1.5.3-1 .5-1.5.4-.9.5-1.2c.1-.2.3-.6.5-1.2s.5-1.2.8-1.8c.2-.7.4-1.3.6-2s.4-1.1.5-1.4c-.1.1 0-.1.1-.4zm1.4 3.3c-.1-.3-.2-.7-.2-.9s0-.6-.1-.9-.2-.5-.3-.6c-.1-.3-.2-.3-.3-.1-.1.2-.3.9-.7 2-.3.7-.6 1.4-.8 2.1s-.5 1.4-.7 1.8l-.5 1.3c-.2.4-.3.7-.4.9s-.2.4-.3.7-.1.5-.1.7c-.2.4-.2.7-.2.9 0 .1-.1.3-.2.6s-.3.7-.5 1.1c-.1.4-.3.8-.5 1.3s-.4.9-.6 1.2c-.1.4-.2.8-.4 1.2s-.3.7-.4.9c-.2.5-.3.9-.4 1.1 0 .1 0 .2-.1.4s-.1.3-.1.4c-.1.2-.1.3.1.4s.4.1.9.2c.3 0 .7 0 1.3.1s1.2.1 1.7.1c.7-.1 1.4-.1 2.2-.2h2c.6.1 1.1.1 1.6.1s.9-.1 1-.1l.9-.2-.2-.6c0-.2 0-.4-.1-.7s-.1-.5-.1-.7 0-.4-.1-.7-.1-.5-.1-.7c0-.3 0-.6-.1-.8s-.2-.4-.3-.5c0-.2 0-.5-.1-.8s-.2-.7-.3-1.1-.2-.7-.3-1.1-.2-.5-.3-.6c0-.1 0-.2-.1-.4s-.1-.3-.1-.4 0-.3-.1-.6-.1-.6-.1-.9c-.1-.3-.2-.6-.3-1s-.2-.7-.3-.9-.2-.4-.3-.8-.1-.6-.1-.8 0-.4-.1-.8-.2-.6-.3-.9c.2 0 0-.3-.1-.7zm15.9-3.6c.3-.2.5-.3.7-.5.2-.1.4-.1.6-.2.2-.1.3-.1.4-.1.1 0 .2 0 .3.1s.3.2.4.3c.1.1.3.2.5.4s.3.5.5.7c.1.2.1.4.2.6s.1.4.1.5v.2c0 .1.1.2.1.2 0 .1 0 .2.1.4 0 .2.1.4.1.7.1.6.1 1.3 0 2.1 0 .3 0 .6-.1 1s-.1.7-.1.8c-.1.2-.1.4-.3.7s-.2.5-.3.6-.1.3-.3.4-.2.2-.3.2v-.1c0-.2 0-.3.1-.3v-.4c0-.2 0-.4.1-.7 0-.1 0-.3.1-.4s.1-.2.1-.3 0-.3.1-.5.1-.4.1-.6c.1-.2.1-.4.2-.7s.1-.6.1-.8c.1-.3.1-.6 0-.9s-.1-.6-.2-.9c-.1-.3-.3-.7-.4-1s-.2-.6-.4-.8c-.3-.5-.5-.9-.7-1h-.6c-.1 0-.3.1-.5.2s-.3.2-.5.2c-.1.1-.2.3-.3.4l-.4.4c-.1.1-.3.2-.4.5s-.3.5-.4.7-.3.4-.4.8-.1.9-.2 1.2c-.1.5-.2.9-.3 1.3s-.1 1-.1 1.8v1.8c0 .5 0 .9.1 1.1 0 .3 0 .5.1.7.1.2.1.3.1.4.1 0 .1 0 .1.1v.2c0 .1 0 .3.1.5s.1.4.1.6c0 .1 0 .3.1.5s.1.3.1.4 0 .3.1.4.1.3.2.4c.1.4.3.8.5 1.2.1.1.1.3.2.4s.1.3.2.3l.5 1.5c.2.3.3.7.5 1s.2.6.3.7c0 .1 0 .1.1.3s.1.2.2.3c0 .1.1.2.2.5s.2.6.4.9c.1.3.1.7.3 1s.2.6.3.8c.1.3.1.5.1.8s0 .6-.1 1.1c-.1.3-.1.7-.2 1.1s-.1.7-.1 1-.1.6-.2 1-.2.8-.4 1.3l-.5 1.1c-.2.4-.3.7-.5.9-.1.2-.1.4-.3.6s-.2.3-.3.3c-.1.1-.2.1-.3.3s-.3.2-.4.3c-.1.1-.2.1-.4.2s-.4.1-.6.1c-.3.1-.4.1-.5 0s-.2-.1-.4-.3c-.1-.1-.3-.1-.4-.2s-.2 0-.2 0c-.2 0-.4-.1-.5-.3-.1-.1-.2-.1-.4-.3-.2-.1-.3-.2-.4-.3-.3-.1-.4-.3-.4-.4l-.1-.1v-.1c-.1 0-.2-.1-.4-.4-.1-.1-.1-.2-.2-.3s-.1-.3-.1-.4c0-.1 0-.2-.1-.4s-.1-.3-.2-.4c-.1-.1-.1-.4-.2-.7s-.1-.6-.2-1v-3c.1-.1.3-.2.4-.1.2 0 .3 0 .3.1s0 .2-.1.3c0 .1 0 .4-.1.7s-.1.6-.1.9v1c0 .4.1.7.1.8 0 .2 0 .4.1.6s.1.4.2.6.1.3.2.5.1.4.2.6c.1.2.3.4.4.6s.2.4.4.4c.1.1.3.3.6.5s.5.3.8.3c.4.2.7.3.8.3s.4 0 .7-.1c.4-.2.8-.4 1-.7.1-.1.2-.3.3-.6s.3-.5.4-.8c.2-.3.3-.6.5-.9s.2-.5.2-.7 0-.3.1-.4.1-.2.1-.3c.1-.3.1-.6.1-.8 0-.3 0-.6.1-.9s.1-.6.2-.9v-2c0-.3 0-.5-.1-.8s-.1-.5-.2-.7c-.1-.2-.2-.4-.2-.6v-.4c0-.1 0-.2-.1-.4s-.2-.4-.2-.5-.2-.5-.4-1-.4-.9-.6-1.4-.4-.9-.5-1.3-.2-.6-.2-.7c0-.3-.1-.5-.3-.5-.1-.1-.1-.2-.2-.4s-.1-.4-.2-.6c-.1-.3-.2-.5-.3-.7s-.1-.4-.1-.6v-.6c0-.2-.1-.6-.2-.9-.1-.4-.1-.8-.2-1.2s-.3-.6-.3-.9c0-.3 0-.6-.1-1.1s-.1-.9-.1-1.3V10c0-.5.1-.8.1-1.1.1-.7.4-1.5.8-2.3.3-.4.5-.8.7-1.1s.4-.6.6-.8.5-.3.8-.5zm7.8.2c.1-.4.1-.6.2-.8.1-.1.2-.1.3-.2.1 0 .1.2.1.5v1.3c0 .5 0 1 .1 1.6s.1 1 .1 1.3v1c0 .3-.1.7-.1.9s0 .6-.1 1.3-.1 1.5-.1 2.4c0 .8 0 1.5-.1 2.2s-.1 1-.1 1.1c-.1.7-.2 1.2-.2 1.6v1.5l.8.3c.2.1.5.2.8.2s.6.2.8.2c.4.1.8.1 1.1.2s.8 0 1.3 0c.4 0 .9 0 1.4-.1s1-.1 1.3-.1l2.6.1v.5c.1.2.1.3 0 .4s-.1.1-.2.1c-.2 0-.3 0-.5-.1h-.4c-.2 0-.5 0-.8-.1s-.7 0-1 0h-1c-.4 0-.8 0-1.3.1s-.8.1-.9.1c-.2-.1-.5-.1-.8-.2s-.5-.1-.7-.2c-.2 0-.5 0-.9-.1s-.7-.1-.9-.2-.6-.1-1-.2v1.3c0 .3 0 .7-.1 1.1s-.1.6-.2.7v2.8c0 .6 0 1.2.1 1.9s.1 1.2.1 1.5v1.2c0 .4-.1.7-.1.9s0 .4-.1.8-.1.6-.1.9 0 .5-.1.8-.1.4-.1.5-.1.3-.2.3c0 .1 0 .2-.1.3s-.1.3-.1.5v.4c0 .1-.1.2-.1.2v.2c0 .1 0 .1-.1.2s-.1.1-.2.1c-.2 0-.3 0-.3-.1s-.1-.3-.2-.5c0-.2 0-.4.1-.7s.2-.6.4-.8c.1-.2.2-.5.2-.9s.1-.7.1-.9 0-.6.1-1 .1-.9.1-1.3c0-.3 0-.8-.1-1.4s-.1-1.3-.1-1.9 0-1.2-.1-1.8-.1-.9-.1-1v-.4c0-.2.1-.4.1-.5s.2-.4.2-.8.1-.7.1-1 0-.8.1-1.5.1-1.4.2-2c0-.7 0-1.4.1-2.3s.1-1.7.1-2.3 0-1.3.1-2 .1-1.1.1-1.4c.1-.3.1-.8.1-1.5V7.1c.2-1.5.2-2.3.3-2.7zm-1.8 32.9l.2-.1c-.1 0-.2 0-.2.1zm11-32.8c.1-.1.1-.2.2-.2 0-.1 0-.1.1-.1h.2c.1 0 .1.1.2.3s.1.4.1.7c0 .1 0 .4.1.9l.3 1.5c.1.5.2 1.1.3 1.6s.1.8.1 1c.1.5.2.9.2 1.4s.1.7.1.8 0 .2.1.4.1.4.1.5c.1.2.1.7.1 1.3v3.7c0 .6 0 1.1-.1 1.7v3.5c0 1 0 1.9-.1 2.7-.1.8-.1 1.3-.1 1.3 0 .1 0 .4-.1.9s-.1 1.1-.1 1.7c0 .7 0 1.2-.1 1.7-.1.4-.1.7-.1.8-.1.5-.2 1-.2 1.3s0 .7.1 1.1.1.8.1 1v.8c0 .2-.1.4-.1.5s-.2.1-.2.2-.2 0-.2 0c0-.1 0-.3-.1-.5-.1-.3-.1-.5-.1-.8-.1-.3-.1-.7-.1-1v-.9c0-.2 0-.4.1-.6.1-.3.1-.5.1-.6s0-.3.1-.7.1-.8.1-1.2 0-.9.1-1.3.1-.9.1-1.1 0-.8.1-1.6.1-1.6.1-2.4c0-.9 0-1.9.1-2.9s.1-1.9.1-2.6 0-1.3.1-2 .1-1.2.1-1.6v-1c0-.3-.1-.7-.1-.9-.1-.3-.1-.7-.2-1.1s-.1-.8-.1-1.1c0-.2 0-.5-.1-.9s-.2-1-.3-1.5-.2-1-.3-1.4-.2-.7-.2-.8c0-.2 0-.5-.1-.7s-.1-.3-.2-.3V4.8c-.4-.1-.3-.2-.3-.3zm5.1 29.1c.1-.2.2-.3.3-.4.1-.1.2-.1.3-.2.1-.1.2-.1.3-.1.2 0 .3.1.3.2.1.1.2.1.3.2.1.1.2.1.3.1s.2.1.3.2l.3.3c.1.1.1.3.2.5s.1.4.1.5v.6c0 .3-.1.5-.1.6-.1.1-.2.3-.2.5-.1.2-.2.3-.4.4-.1.1-.2.3-.4.4-.2.1-.4.2-.5.3h-.5c-.1 0-.2-.1-.3-.1s-.1-.1-.1-.2c0-.2-.1-.3-.3-.5-.1-.1-.2-.3-.3-.5V34.7c0-.3.1-.5.1-.6.1-.2.2-.3.3-.5zm.5 1.1v-.2c0-.1-.1-.1-.1-.1 0 .1-.1.2-.1.3v.3c0 .1.1.2.1.2-.1 0 0-.2.1-.5zm1.7 0c0-.1 0-.2-.1-.3-.1 0-.2.1-.2.3 0 .1 0 .4-.1.6-.1.3-.1.5-.2.8-.1.1-.2.4-.3.8 0 .1 0 .1.1 0l.2-.2c.1 0 .2-.1.2-.2s.2-.2.2-.3 0-.2.1-.3c0-.1.1-.2.1-.3v-.9zm3.3-29.8c.1-.5.1-.8.2-.9 0-.1 0-.2.1-.3s.1-.2.2-.2.1.3.2.8 0 1.4 0 2.7c0 1 0 1.8-.1 2.6s-.1 1.2-.1 1.4v.6c0 .2.1.4.2.6 0 .2 0 .6.1 1.4s.1 1.6.1 2.5 0 1.9.1 2.9.1 1.8.1 2.4c.1.6.1 1.3.2 2.3s0 1.8 0 2.7v2.2c0 .6.1 1 .2 1.1v.4c0 .2-.1.5-.2.9-.1.3-.2.8-.2 1.3s-.1 1-.1 1.5c0 .4 0 .9-.1 1.4s-.1.9-.1 1.1v.8c0 .2-.1.4-.3.5-.1.1-.2.1-.2.1l-.3-.3c-.2-.1-.3-.2-.3-.3s0-.3.1-.7c.1-.3.2-.6.2-1.1s.1-.9.1-1.4 0-.9.1-1.3.1-.6.1-.8c.1-.1.1-.3.2-.5 0 0 0-.2.2-.5V30c-.1 0-.1-.1-.2-.2s0-.2 0-.3v-5.3c0-.8 0-1.9-.1-3.1s-.1-2.3-.1-3.3 0-1.9-.1-2.8-.1-1.4-.1-1.7c-.1-.3-.1-.7-.2-1.2s0-.9 0-1.2V7c.1-.9.1-1.6.1-2.1zm6-.5c0-.5.1-.8.2-.9h.4c.1 0 .2.1.3.2s.2.3.3.6c0 .2 0 .5.1.8s.2.7.3 1c.1.2.3.7.5 1.4s.5 1.6.7 2.5l.9 2.7c.3.9.5 1.6.7 2 .1.5.2 1 .4 1.5s.2.9.2 1.1 0 .4.1.8.1.5.1.6c0 .2 0 .5.1.9s.1.8.1 1.1c.1.3.2.7.3 1.1s.2.7.3.9c0 .3 0 .7.1 1.1s.1.9.1 1.2c.1.5.2.9.3 1.3s.1.6.1.7c.1.5.2.8.2 1 0 .3.1.6.2 1 0 .1 0 .3.1.7s.1.7.1 1.1c0 .2 0 .5.1.9s.1.8.1 1.3.1.8.1 1.1.1.5.1.6c.1.2.2.4.2.8v.4c.1 0 .2 0 .3-.1s.1-.2.1-.3V31c0-.5.1-1.1.2-1.7s.3-1.2.4-1.6c.1-.5.2-1 .2-1.4v-2.2c0-.6.1-1.1.2-1.7.1-.5.1-1.2.2-2.2s0-2 0-2.8v-1.5c0-.6 0-1.2-.1-1.8s0-1.3-.1-1.9V8.7c0-.6-.1-1.2-.1-1.7s-.1-1-.1-1.3V5c0-.2 0-.3.1-.5s.2-.2.3-.3c.1 0 .2 0 .3-.1s.1 0 .1.1c.1 0 .1.2.2.5v2.5c0 .7.1 1.4.1 2.2s.1 1.8.1 2.8.1 1.9.1 2.9v5.1c0 1.2-.1 2-.2 2.3 0 .1 0 .3-.1.8s-.1.8-.1 1.2V26c0 .5-.1.9-.2 1.2 0 .3 0 .6-.1.9s-.1.5-.1.6v.4c-.1 0-.1 0-.2.1v4.6c0 .5 0 1-.1 1.6s-.1 1-.1 1.3-.1.7-.2 1.2c0 .1 0 .1-.1.2s-.2 0-.3 0h-.3c-.1 0-.1-.1-.1-.2-.2-.3-.2-.6 0-1v-.6h-.3c-.1 0-.1.1-.1.2-.1 0-.2 0-.3.1s-.2 0-.3-.1c-.1 0-.2-.1-.3-.3s-.1-.5-.1-.9c0-.1 0-.4-.1-.8s-.1-.8-.1-1.3-.1-.9-.1-1.3v-.8c0-.3 0-.6-.1-.8s-.1-.4-.1-.5c-.1-.4-.2-.7-.2-1v-.7c0-.3-.1-.4-.2-.5 0-.2 0-.5-.1-1s-.2-1-.3-1.6-.2-1.1-.3-1.6-.1-.8-.1-1c-.1-.1-.1-.3-.2-.5s0-.5 0-.7c0-.1 0-.3-.1-.7s-.2-.7-.3-1c0-.3 0-.7-.1-1.1s-.2-.8-.3-1.1c0-.3 0-.7-.1-1.1s-.2-.8-.3-1.1-.2-.7-.3-1.2-.3-.9-.5-1.2c-.1-.3-.2-.7-.4-1.2s-.3-.9-.4-1.3c-.1-.3-.2-.7-.3-1.1s-.2-.7-.3-.9c-.1-.3-.1-.5-.2-.7s0-.2 0-.1c-.1 0-.1.2-.2.6s0 .9 0 1.3c0 .6 0 1.2-.1 1.9s-.1 1.2-.1 1.6c0 .5 0 1-.1 1.4s-.1.8-.1 1.1c0 .3 0 .6-.1 1s-.1.6-.1.8c0 .3 0 .8-.1 1.4s-.2 1.3-.3 2c0 .7 0 1.3-.1 1.8s-.1.9-.1 1.1c0 .1 0 .3-.1.5s-.1.5-.1.7c0 .1 0 .3-.1.6s-.1.5-.1.6c0 .2 0 .5-.1.9s-.1.9-.1 1.4c-.1.4-.1.8-.2 1.2s0 .8 0 1.1 0 .6.1 1 .1.7.1 1c0 .4 0 .9.1 1.4s.1 1.1.1 1.5c0 .8 0 1.3-.1 1.6s-.2.5-.3.6c-.1 0-.2 0-.3.1s-.1 0-.1-.1c-.1 0-.1-.2-.2-.5s0-.8 0-1.2 0-.9-.1-1.4-.1-1-.1-1.3v-4.7c0-.3 0-.7.1-1.2s.1-.9.1-1.3c.1-.5.2-1.1.3-1.9s.2-1.4.3-1.9c.1-.6.2-1.3.3-2s.1-1.4.1-1.9 0-1 .1-1.5.1-.8.1-.9 0-.3.1-.7.1-.8.1-1.3c0-.4 0-.9.1-1.5s.1-1 .1-1.3 0-.9.1-1.7.1-1.6.1-2.4c-.2-1.1-.2-1.9-.2-2.5zm13.7.9c0-1.1.2-1.8.5-1.9.1 0 .1 0 .2.1 0 .1.1.3.1.7v1.9c0 .9 0 2.1-.1 3.6v2.6c0 .8 0 1.6-.1 2.3s0 1.3 0 1.7v.9c0 .3 0 .6-.1.9s-.1.6-.1.7c-.1.3-.1.5-.1.6s.2 0 .4-.2l.4-.4c.2-.2.3-.3.4-.5s.2-.4.4-.6.4-.4.4-.5c.2-.3.3-.6.4-.7.4-.4.7-.8.9-1.1.3-.3.5-.6.8-.9s.5-.6.6-.7c.1-.2.2-.4.5-.7s.4-.5.6-.7c.2-.3.4-.6.6-1.1s.5-.9.8-1.2c.2-.4.3-.8.5-1.1s.3-.5.4-.6c.2-.2.4-.1.5.2V9c0 .1-.1.3-.2.6s-.3.6-.5 1c-.3.3-.6.7-.9 1.2s-.5.8-.7.9c-.2.3-.4.6-.7 1s-.6.8-.9 1.3c-.3.3-.6.7-.9 1s-.4.6-.5.8-.1.3-.1.3 0 .1.1.2c.1 0 .1.1.2.2s0 .2 0 .3 0 .3.1.5.2.4.2.6.2.4.2.7.1.5.1.7c0 .3 0 .6.1 1s.1.8.1 1.1c.1.4.2.9.2 1.4s.1 1 .1 1.4c0 .3 0 .7.1 1s.1.6.1.7c.1.1.2.3.2.7s.1.7.1.9c0 .3 0 .7.1 1s.1.5.1.6c0 .2 0 .4.1.6s.1.4.1.6c.1.3.2.6.2 1s.1.8.1 1.1 0 .7.1 1.1.1.7.1.8c.1.2.2.4.2.6s.1.5.1.8v.6c0 .1-.1.2-.2.2-.2 0-.3 0-.5-.2-.1-.1-.2-.3-.2-.5s-.1-.4-.1-.6c0-.3 0-.5-.1-.8s-.1-.4-.1-.6c-.1-.1-.1-.3-.2-.6s0-.7 0-1.1c0-.3 0-.7-.1-1.1s-.1-.7-.1-1c-.1-.2-.2-.4-.3-.7s-.2-.5-.3-.7v-1.7c0-.2-.1-.3-.2-.4v-.4c0-.1-.1-.3-.2-.4 0-.1 0-.5-.1-1.1s-.2-1.4-.2-2.2c0-.8 0-1.5-.1-2.2s-.1-1-.1-1.1 0-.2-.1-.4-.1-.3-.1-.5c-.2-.4-.4-.7-.5-1.1l-.2-.5-.4.5c-.1.2-.2.3-.2.5 0 .1-.1.2-.2.4s-.3.3-.5.4c-.3.2-.4.3-.6.5s-.2.3-.2.4 0 .2-.1.2-.2.1-.2.1c-.1 0-.2.1-.2.3s-.1.4-.1.7v13.6c.1.7.1 1.2.1 1.4s-.1.4-.2.6c-.3.1-.5.2-.5.2v-.2s-.1-.1-.2-.1V35c0-.5.1-1.2.2-2.1v-6.3c-.1-1.7-.1-3.1-.1-4.3s.1-1.9.1-2.1 0-.5.1-1.1.1-1.1.1-1.7c0-.3.1-.7.1-1.3s.1-1.2.1-1.9.1-1.5.1-2.3V5.3h.2z" fill="#6a6de9" stroke="#6a6de9" stroke-miterlimit="10"/></svg>