<?xml version="1.0" encoding="utf-8"?>
<!-- Generator: Adobe Illustrator 21.0.0, SVG Export Plug-In . SVG Version: 6.00 Build 0)  -->
<svg version="1.1" id="Layer_1" xmlns="http://www.w3.org/2000/svg" xmlns:xlink="http://www.w3.org/1999/xlink" x="0px" y="0px"
	 viewBox="0 0 345 83" style="enable-background:new 0 0 345 83;" xml:space="preserve">
<g>
	<path d="M58.3,17.8H38.2v64.3H21.1V17.8H1V0.7h57.3V17.8z"/>
	<path d="M126.8,82.2h-15.6L87,58h-8.5v24.2H61.4V0.7h51.8l13.6,13.5v30.2L113.2,58h-3l16.6,16.6V82.2z M109.7,40.9V17.8H78.5v23.1
		H109.7z"/>
	<path d="M203.2,82.2h-17.1V62.1h-39.2v20.1h-17.1V34.4l33.7-33.7h6.1l33.7,33.7V82.2z M186.1,45v-4.5l-19.6-19.7l-19.7,19.7V45
		H186.1z"/>
	<path d="M275.5,68.6l-13.5,13.6h-42.3l-13.6-13.6V53h17.1v12.1h35.2V50h-38.7l-13.6-13.6V14.2l13.6-13.5h42.3l13.5,13.5v15.7h-17.1
		V17.8h-35.2v15.1h38.8l13.5,13.6V68.6z"/>
	<path d="M344,82.2h-17.1V50h-31.2v32.2h-17.1V0.7h17.1v32.2h31.2V0.7H344V82.2z"/>
</g>
</svg>
