<svg id="Capa_1" xmlns="http://www.w3.org/2000/svg" viewBox="0 0 42 42"><style>.st0{fill:#6a6de9;stroke:#6a6de9;stroke-miterlimit:10}</style><path class="st0" d="M21 40.8C10.1 40.8 1.2 31.9 1.2 21S10.1 1.2 21 1.2 40.8 10.1 40.8 21 31.9 40.8 21 40.8zm0-38.4C10.8 2.4 2.4 10.8 2.4 21S10.8 39.6 21 39.6 39.6 31.2 39.6 21 31.2 2.4 21 2.4z"/><path class="st0" d="M21 37.5c-3.4 0-6.7-1.1-9.5-3.1-.1-.1-.2-.3-.2-.5s.1-.3.3-.4c4.1-1.5 4.8-2.8 4.8-5.2 0-.6-.1-.8-.4-1.2-.3-.5-.8-1.2-1.1-2.9 0-.3-.1-.3-.3-.4-.6-.3-1.2-.7-1.3-2.6 0-.9.3-1.4.6-1.7-.1-.3-.2-.9-.2-1.5-.5-2.8-.5-6.2 3.4-7.8 3.4-1.4 6.1-.6 7 .3.6 0 2.2.2 3.2 1.4 1.7 1.9 1.1 6.4 1 7.6.3.3.6.8.6 1.7-.1 2-.7 2.4-1.3 2.7-.2.1-.3.1-.3.4-.3 1.8-.8 2.4-1.1 2.9-.3.4-.4.6-.4 1.2 0 2.4.7 3.6 4.8 5.2.2.1.3.2.3.4s-.1.4-.2.5c-3 1.9-6.3 3-9.7 3zm-8.2-3.3c2.5 1.5 5.3 2.3 8.2 2.3s5.7-.8 8.2-2.3c-3.5-1.4-4.6-2.9-4.6-5.8 0-.9.3-1.3.6-1.8.3-.4.7-1 1-2.6.1-.8.6-1 .9-1.1s.6-.3.7-1.8c0-.8-.3-1-.4-1-.2-.1-.3-.3-.3-.5.2-1.3.7-5.5-.7-7-.9-1.1-2.4-1.1-2.6-1.1h-.1c-.1 0-.4-.1-.4-.3-.3-.5-2.6-1.4-5.9-.1-3.2 1.3-3.2 4.1-2.8 6.7.1 1 .3 1.8.3 1.8 0 .2-.1.4-.3.5 0 0-.3.2-.3 1 .1 1.5.4 1.6.7 1.8.3.1.7.3.9 1.1.3 1.6.7 2.1 1 2.6.3.4.6.8.6 1.8-.1 2.9-1.2 4.3-4.7 5.8z"/><path d="M19.9 20.2c0-1.9 2.5-2.1 2.5-3.4 0-.6-.5-1.1-1.5-1.1s-1.6.4-2.1 1.1l-1-1.2c.8-1 2-1.5 3.4-1.5 1.9 0 3.1 1 3.1 2.4 0 2.3-2.7 2.5-2.7 3.8 0 .2.1.5.3.7l-1.4.5c-.4-.3-.6-.8-.6-1.3zm0 3.5c0-.6.5-1.1 1.1-1.1s1.1.5 1.1 1.1-.5 1.1-1.1 1.1-1.1-.6-1.1-1.1z" fill="#6a6de9"/></svg>