<svg xmlns="http://www.w3.org/2000/svg" viewBox="0 0 782 782"><g opacity=".13"><path d="M390.9 769.6c-210.5 0-380-169.5-379.4-380.5.6-210.2 173.4-379.5 384.8-376.7C602.6 15.2 772 183.3 770.5 393.8c-1.4 209.7-172.8 376.3-379.6 375.8zm360-378.8C750.8 192.6 590.7 35.7 398.1 32c-199.5-3.8-364 155-367.2 353C27.7 584.8 188.5 750 391 750.1c199 .2 359.9-160.7 359.9-359.3z"/><path d="M391 727.5c-187.8.3-340.1-153.4-337.4-341.6C56.3 203.1 206.8 52 395.9 54.6c185.8 2.5 335.4 155.3 332.4 342.2-3 182.1-152.2 330.8-337.3 330.7zM73 390.3c-.2 173 138.6 317.2 317 317.7 176.4.5 314.5-139.7 318.6-309 4.4-178-138-324.1-316-325C217 73.1 73.8 214.1 73 390.3z"/><path d="M92.1 452.3c60.2-27.9 120.4-55.9 181.3-84.1-39-54.2-77.7-108-116.5-161.9.2-.3.4-.6.5-.9 37.4 17.3 74.8 34.7 113.4 52.5-11.9-43.9-23.5-86.7-35.1-129.5.3-.2.6-.3.9-.5 3.6 5.8 7.2 11.7 10.7 17.5 27.7 45.7 55.4 91.4 83.3 137.1 1.6 2.6 4.4 5 7.2 6.3 16.4 7.9 32.8 15.5 49.4 22.9 2.1.9 5.2 1 7.3 0 17-7.6 34-15.4 50.7-23.5 2.6-1.3 4.9-3.9 6.4-6.5 30.6-50.2 61.1-100.5 91.5-150.7.6-1 1.2-1.9 2.9-2.5-11.6 42.8-23.2 85.5-35.1 129.4 38.4-17.8 75.8-35.1 113.2-52.5.3.2.5.5.8.7-38.7 53.8-77.4 107.6-116.5 162 60.8 28.2 121.2 56.2 181.6 84.2-.1.3-.2.6-.3.8-17.2-3-34.3-6-51.5-9-53.5-9.4-106.9-18.8-160.4-28.1-1.6-.3-4.1.8-5.3 2-7.1 7.5-10 16.9-12.6 26.7-5.8 22.2-12 44.3-17.8 66.6-.7 2.5-.5 5.6.2 8.1 13.8 45.9 27.7 91.8 41.6 137.7.4 1.2.6 2.4.2 4-19.8-27.5-39.6-55-60.1-83.4-11.1 40.7-21.9 80.4-32.7 120.1-.4 0-.8.1-1.1.1-10.8-39.7-21.6-79.3-32.7-120.2-20.4 28.3-40.2 55.9-60.1 83.4-.3-.2-.6-.3-.9-.5 4.3-14.1 8.5-28.3 12.8-42.4 10-33.1 20.1-66.2 30.1-99.4.7-2.2.7-5 .1-7.2-7.1-26.5-14-53.1-21.8-79.5-1.7-5.8-6.5-10.7-10.1-15.8-.5-.7-2.4-.6-3.6-.4-70.2 12.3-140.4 24.7-210.5 37-.5.1-1 .1-1.4.1.1-.2 0-.5 0-.7zm403.4-90.2c29.1-40.5 58-80.6 87.5-121.7-1.9.6-2.5.8-3 1-23.6 10.9-47.2 21.8-70.6 32.9-1.9.9-3.6 3.4-4.2 5.4-5.6 19.9-10.9 39.8-16.3 59.7-1.5 5.7-3.1 11.5-4.6 17.3 3.8 2 7.3 3.6 11.2 5.4zm-197.8-5.3c-7.2-26.6-14.2-52.6-21.5-78.6-.5-1.7-2.5-3.4-4.2-4.2-13.7-6.5-27.4-12.8-41.2-19.2l-30.6-14.1c-.2.2-.4.5-.6.7 28.9 40.2 57.8 80.4 86.8 120.6 4-1.8 7.4-3.4 11.3-5.2zM391 531.6c-7 9.8-13.4 18.9-20.1 27.8-2.1 2.7-2.3 5.1-1.4 8.3 5.1 18.3 9.9 36.6 14.9 54.8 2 7.3 4 14.5 6.2 22.4.8-1.1 1.1-1.5 1.2-1.9 7-25.7 14-51.3 20.9-77 .4-1.4.3-3.5-.4-4.6-6.8-9.8-13.9-19.5-21.3-29.8zm-.1-24.3c7.2-10 13.9-19.4 20.8-28.7 1.9-2.5 2.2-4.7 1.3-7.8-6.6-21.4-13.1-42.9-19.6-64.4-.6-1.8-1.3-3.6-2-5.5-.8.5-1.2.6-1.3.9-7.3 23.8-14.7 47.7-21.9 71.5-.3.9 0 2.4.6 3.2 7.2 10.2 14.5 20.2 22.1 30.8zm67.3-109c3-10.8 5.8-20.8 8.4-31 .3-1-.5-3.1-1.3-3.6-12-5.7-24-11.3-36.5-17-8.5 14.1-16.8 27.7-25.4 41.9 18.8 3.4 36.6 6.5 54.8 9.7zm-134.6 0c18.3-3.2 36.3-6.4 54.8-9.7-8.2-13.6-16-26.5-24-39.3-.6-.9-3.2-1.6-4.3-1.1-11.1 4.9-22.1 10-33.1 15.3-1 .5-2.2 2.3-1.9 3.2 2.7 10.5 5.6 20.9 8.5 31.6zm147.6-47.4c6.1-22.6 12-44.5 18.3-67.4-10.5 4.8-19.7 9.1-28.8 13.4-1 .5-2.1 1.2-2.7 2.1-7.2 11.7-14.3 23.4-21.7 35.7 11.7 5.4 23 10.6 34.9 16.2zm-125.6-16.2c-4.3-7-8.8-13.1-11.8-19.9-6-13-15.5-21.4-29.1-25.7-3.9-1.2-7.6-3.4-12.3-5.5 6.3 23.1 12.2 44.9 18.3 67.3 11.8-5.5 23.1-10.8 34.9-16.2zm138 68.1c34.7 6.1 68.5 12 102.3 18 .1-.3.2-.7.3-1-28.6-13.3-57.2-26.5-86.1-39.9-5.4 7.5-10.7 14.9-16.5 22.9zm-185.3 0c-5.8-8.1-11.1-15.4-16.5-23-29 13.4-57.5 26.7-86 39.9.1.3.2.7.4 1 33.6-5.9 67.3-11.8 102.1-17.9zm28.1 9.3c2.6 5.7 4.2 10.8 7 15.1 4.7 7.4 10.2 14.4 15.3 21.6 2.7 3.7 5.4 7.4 8.6 11.9 5.9-19.4 11.4-37.7 17.3-57-16.2 2.8-31.3 5.4-48.2 8.4zm80.9-8.5c5.9 19.4 11.5 37.7 17.3 57.1 9.3-13 18.2-25 26.6-37.4 2-3 2.2-7.4 3.3-11.4-15.9-2.8-31-5.4-47.2-8.3zm-41.4-62.8c8.5 13.9 16.6 27.3 25.1 41.2 8.6-14.2 16.7-27.5 25-41.3-8.1-3.8-15.8-7.5-23.7-11-.9-.4-2.3-.2-3.3.3-7.6 3.5-15.1 7.1-23.1 10.8zm-3.3 151.3c-1.5 4.8-2.7 8.4-3.7 12.1-1.1 4-3.6 8.3-2.9 12 1.7 9.5 4.8 18.8 7.6 29.3 6.3-8.8 12-16.6 17.5-24.4.5-.7.6-2.3.1-3-6-8.5-12-16.8-18.6-26zm56.7 0c-6.6 9.1-12.6 17.3-18.3 25.6-.6.9-.2 3.1.5 4.2 4 5.9 8.2 11.7 12.4 17.5 1.3 1.8 2.6 3.5 4.4 5.8 2.7-9.9 5.1-18.5 7.4-27.2.4-1.5.4-3.4 0-4.9-1.9-6.6-4-13.2-6.4-21zm87.3-271.7l-.9-.3c-11 18.2-22.1 36.5-33.1 54.7 6.9-2.2 13-4.9 18.9-7.9 1.4-.7 2.9-2.3 3.4-3.8 4.1-14.2 7.9-28.5 11.7-42.7zm-198.3 54.9c.3-.2.6-.5.9-.7-11.1-18.2-22.1-36.5-33.2-54.7 3.1 14.8 7 29.2 11.1 43.6.4 1.3 1.9 2.7 3.2 3.4 5.9 2.9 12 5.6 18 8.4zM348.2 543c-.3-.1-.7-.2-1-.2-4.1 13.6-8.2 27.2-12.3 40.9 6.4-7.1 11.8-14.6 17.1-22.2.6-.8.7-2.2.4-3.2-1.3-5.2-2.8-10.2-4.2-15.3zm86.4-.6c-6.3 11.4-6 17.4.8 26.8 3.6 4.9 7.1 9.9 10.7 14.8l.9-.6c-4-13.5-8.2-27-12.4-41zm-86.8-233.2l-.6.9c3.7 6.1 7.4 12.2 11.3 18.6 5.1-2.4 9.9-4.6 15.6-7.3-9.5-4.5-17.9-8.3-26.3-12.2zm75.5 19.5c4-6.5 7.7-12.7 11.4-18.8l-.7-.7c-8.4 3.9-16.8 7.9-26.2 12.2 5.7 2.7 10.4 4.8 15.5 7.3zm-75.1 160.1c5.1-10.5 3.6-16.1-6.6-24.2 2.2 8.2 4.3 15.9 6.6 24.2zm85.5-.2c2.2-8.2 4.3-15.9 6.7-24.5-10.7 10.4-11.8 14.5-6.7 24.5zm42.1-100.8c.3.1.6.3.9.4 3.4-4.7 6.8-9.4 10.4-14.4-2.5-1.2-4.4-2-6.7-3.1-1.6 6-3.1 11.6-4.6 17.1zm-174.3-17c-2.4 1.1-4.3 2-6.6 3.1 3.6 5 7 9.6 10.4 14.3.3-.2.6-.3.8-.5-1.5-5.5-3-11-4.6-16.9zM348.2 488.8c-2.2-8.2-4.4-15.9-6.6-24.2"/></g></svg>