<svg xmlns="http://www.w3.org/2000/svg" viewBox="0 0 537 183"><style>.st0{fill:#fff}</style><path class="st0" d="M414.1 74.8c-28 2.6-55.9 5.2-83.9 7.7-6.9.6-13.8 1.3-20.7 1.9-4.2.4-9.9 0-13.5 2.7-3.8 2.8-5.1 8.5-6.8 12.7l-8.1 20.4c1 .1 2 .3 2.9.4.1-30.1 3.3-60 9.6-89.4.4-1.9-2.4-2.7-2.9-.8-9.9 38-19.9 76.2-37.4 111.5.9.3 1.9.5 2.8.8 4.6-43.4 12.8-86.2 21-129-1-.3-1.9-.5-2.9-.8-6.1 35.4-12.4 70.9-25.1 104.6h2.9c-2.8-16.6-3.7-33.3-2.8-50.1.1-1.7-2.5-2-2.9-.4-4.4 16.5-5 33.6-5.4 50.7h3c-.3-13.5-2.4-26.9-6.1-39.9-.4-1.3-2.7-1.5-2.9 0-2.5 16.9-3.8 33.8-3.9 50.9 0 1.9 3 1.9 3 0 .4-20.2-.8-40.4-3.6-60.4-.2-1.7-3.1-1.3-2.9.4.9 9.1 9.6 16.3 15.7 22.5 6.9 6.9 14.9 13.3 24.4 16.3 14 4.4 32.8-1.5 36.5-17 .4-1.9-2.3-2.7-2.9-.8-4.1 14-20.8 50.9-39.6 34.2-7.1-6.3-12-15.7-16.5-23.9-5.3-9.7-9.6-19.8-13.1-30.2-.8.5-1.7 1-2.5 1.5 20 21.4 42.1 40.7 65.8 57.9 1.3.9 2.7-.8 2.1-2.1-12.6-25.1-40.2-36.7-65.8-44.1-1.7-.5-2.6 1.8-1.2 2.7 23.8 15 49.1 27.3 75.6 36.7 1.7.6 2.5-1.8 1.2-2.7-45-30.9-96.9-50.8-150.9-58-1.5-.2-2 2.1-.8 2.8 34.8 19.6 72.4 33.4 109.9 47 1.6.6 2.7-2 1.2-2.7-20.7-9.9-42.3-17.7-64.6-23.4-1.2-.3-2.1.7-1.8 1.8 2.7 14.6 5.5 29.1 8.2 43.7.3 1.5 2.6 1.4 2.9 0 3.9-17.2 9.4-34 16.6-50.1l-2.7-1.2c-1.2 7-2.8 13.8-5.1 20.5-2.3 6.5-4.9 15-9.3 20.5l-.9 1.5c-2.3 1-3.3.5-2.9-1.6-.5-1.4.2-4.3.2-5.7.2-3.8.5-7.6.8-11.4.7-8.1 1.8-16.1 3.2-24 .3-1.9-2.3-2.7-2.9-.8l-10.2 31.5h2.9c-4.8-14-9.6-27.9-14.4-41.9-.3-.9-1.8-1.6-2.5-.7-14.3 18.3-12.9 45.6-31 61.2.9.4 1.7.7 2.6 1.1.7-13.8 4.5-27.3 11.3-39.3 3.4-6 7.5-11.6 12.2-16.6 1.1-1.2 2.2-2.4 3.4-3.4 1.4-1.3 3-2.2 4.8-2.9l5.7 2.4c2.3 2.1 3.5 8.8 4.5 11.6 10 28.9 17.2 58.7 21.5 89 .2 1.5 2.6 1.4 2.9 0 3.9-22.6 7.4-45.3 10.5-68 1.4-10.5 2.8-21.1 4-31.6.7-5.5 1.3-11.1 1.9-16.6.5-4.7 1.7-9.8 1.1-14.5-.7-5.7-5-7.9-9.9-5-7.3 4.4-12.6 11.9-17.5 18.6-10.4 14.3-21.6 32.6-14.1 50.7 5.3 13 20.2 19.7 33.7 17.8 15-2.1 26.3-14.9 30-29 4-15.1-.5-32.3-15.6-39-14.5-6.5-32.6-3.5-47.1 1.3-16.2 5.4-32.4 15.7-39.8 31.7-7.4 16-.9 33.8 10.2 46.4 4.9 5.5 12.1 10.6 19.9 8.2 6.6-2.1 11.3-8.9 14.3-14.8 6.7-13.4 6.5-29.7.6-43.3-13.1-30.4-52.1-39.6-80.3-25.6-14.4 7.1-26 19.5-33.1 33.8-3.1 6.2-6.5 13.5-6.2 20.6.2 4.6 2.3 10 7.6 10.2 6.9.3 12.7-8.9 16.2-13.6 5.6-7.3 10.1-15.3 13.6-23.8 2.6-6.3 7.1-15.7 4.7-22.6-1.9-5.3-7.5-5.1-10.6-.9-4.8 6.6-6 16.9-5.8 24.8.2 7.7 1.8 17.8 6.8 24 4 4.9 9.7 3.4 13.3-1.1 2.8-3.5 4.5-7.9 6.4-11.9 2.5-5.2 5-10.5 7.5-15.7 4.7-9.9 9.5-19.8 14.2-29.7-.9-.1-1.8-.2-2.7-.4 2.2 9.7-11 16.1-17.5 20.4-7.8 5.2-15.6 10.4-23.5 15.6-1.1.7-.9 2.4.4 2.7 10.2 3.1 20.7 2.4 30.5-2-.7-.3-1.5-.6-2.2-.9 1.9 7.2 3 14.4 3.1 21.9 0 1.6 2.5 2.1 2.9.4 3.8-16.2 6.8-32.5 8.9-48.9.2-1.3-1.4-1.7-2.3-1.3-26.9 12.2-54.5 22.6-82.7 31-1.6.5-1.3 3.1.4 2.9 50.8-3.6 101.7-5.5 152.6-5.7v-3c-70.8 5.3-141.9 29.2-213 14.6-1.9-.4-2.7 2.5-.8 2.9 71.5 14.6 142.7-9.2 213.8-14.5 1.9-.1 2-3 0-3-50.9.3-101.8 2.2-152.6 5.7.1 1 .3 2 .4 2.9 28.5-8.5 56.4-19 83.5-31.3-.8-.4-1.5-.9-2.3-1.3-2.1 16.2-5 32.3-8.8 48.2 1 .1 2 .3 2.9.4-.2-7.7-1.2-15.2-3.2-22.7-.3-1-1.3-1.3-2.2-.9-9 4-18.7 4.5-28.2 1.7.1.9.2 1.8.4 2.7 10.5-6.9 21.1-13.7 31.4-20.8 6.2-4.3 12.9-10.3 11-18.6-.3-1.2-2.2-1.5-2.7-.4-7.1 14.8-14.2 29.7-21.3 44.5-2.6 5.3-10.3 23.8-16.7 10.9-3.5-7-4.9-15.1-4.6-22.9.1-3.8.7-7.6 1.8-11.3.5-1.6 1-3.2 1.6-4.8.4-1.1 1.5-4 2.5-4.5 1.4.1 2.9.2 4.3.2.2.6.4 1.1.6 1.7 1.1 2.9-.6 7.1-1.5 9.8-1.1 3.6-2.3 7.2-3.8 10.7-2.5 6-20.6 41-29.1 33.6-4.6-4-1.3-13 .3-17.6 2.2-6.1 5.2-11.8 8.9-17.1 7.6-11 18.2-20.2 30.7-25.2 24.3-9.7 56.1-2.3 69.5 21.4 6.3 11.2 8.2 24.9 4.9 37.3-1.7 6.4-4.9 12.8-9.6 17.5-7.4 7.3-16 4-22.3-2.9-10.8-11.8-17-28.9-9.9-44.1 6.3-13.4 19.7-22.7 33.1-28 23.2-9.1 65.9-12.4 64.8 23.5-.4 13.3-7.9 26.8-19.9 32.9-11.5 5.8-26.8 3.3-35.4-6.5-11.3-13-5.2-31.7 2.9-44.5 4.1-6.5 8.7-13 13.7-18.9 2.2-2.6 4.6-5 7.3-7.1 2-1.6 5.9-2.9 7.6-.3.7 1.1.3 3.4.3 4.6-1.1 16.6-3.7 33.3-5.8 49.8-2.2 17.1-4.7 34.1-7.4 51.2-1.3 8.4-2.7 16.8-4.2 25.2h2.9c-2.7-18.7-6.4-37.3-11.3-55.6-2.4-9.1-5.1-18.2-8.1-27.2-1.4-4.2-2.8-8.4-4.3-12.5-1-2.8-1.9-5.9-4.1-8-9.9-9.4-23.9 12.8-28 19.6-8.1 13.2-12.6 28.2-13.4 43.6-.1 1.4 1.6 1.9 2.6 1.1 18.3-15.7 16.7-42.8 31-61.2-.8-.2-1.7-.4-2.5-.7 4.8 14 9.6 27.9 14.4 41.9.5 1.4 2.4 1.4 2.9 0l10.2-31.5c-1-.3-1.9-.5-2.9-.8-1.7 10.1-3 20.3-3.7 30.5-.2 3.5-3.2 17.1 3.3 17.7 2.8.2 4.3-2.7 5.5-4.7 2.4-4.1 4.5-8.4 6.4-12.8 4-9.3 6.7-18.9 8.4-28.9.3-1.5-2-2.8-2.7-1.2-7.3 16.4-13 33.3-16.9 50.8h2.9c-2.7-14.6-5.5-29.1-8.2-43.7l-1.8 1.8c22 5.6 43.4 13.3 63.9 23.1l1.2-2.7c-38.1-13.3-75.5-27-110.1-46.5-.3.9-.5 1.9-.8 2.8 53.5 7.2 104.9 27 149.4 57.6l1.2-2.7c-26.3-9.3-51.4-21.5-74.9-36.4l-1.2 2.7c24.9 7.2 51.7 18.3 64 42.7l2.1-2.1c-23.6-17-45.4-36.2-65.2-57.4-1-1.1-3 0-2.5 1.5 4.1 12.1 9.2 23.8 15.6 34.9 5.1 8.8 11.2 20.6 21.1 24.8 9.6 4 17.3-2.9 22.9-9.9 7.1-8.8 12.2-18.9 15.3-29.8-1-.3-1.9-.5-2.9-.8-3.5 14.7-21.6 19-34.3 14.4-7.9-2.8-14.5-8.2-20.4-13.9-5.7-5.5-15.1-13.3-15.9-21.5-1 .1-2 .3-2.9.4 2.7 19.8 3.8 39.7 3.5 59.6h3c.1-16.8 1.3-33.5 3.8-50.1h-2.9c3.7 12.8 5.7 25.8 6 39.1 0 1.9 3 1.9 3 0 .4-16.8.9-33.6 5.3-49.9-1-.1-2-.3-2.9-.4-.9 17.1.1 34.1 2.9 50.9.3 1.6 2.4 1.2 2.9 0 12.7-33.7 19-69.2 25.1-104.6.3-1.9-2.5-2.7-2.9-.8-8.3 43.2-16.5 86.4-21.1 130-.2 1.5 2.2 2 2.8.8 17.6-35.5 27.8-74 37.7-112.2-1-.3-1.9-.5-2.9-.8-6.4 29.7-9.6 59.9-9.7 90.2 0 1.8 2.4 1.9 2.9.4 2.3-5.9 4.6-11.7 7-17.6 2.4-6.1 3.9-14.2 11.3-15.2 12.4-1.8 25.2-2.4 37.7-3.5 24.7-2.3 49.4-4.6 74-6.8 2-.2 2-3.2.1-3.1z" id="scribble"/><g id="trash.ink"><path class="st0" d="M302.2 90.9l-.4.7-.3-.2.4-.7.3.2zm30.5-10.8c-.8-.5-2.8-.8-6.1-.8-1.2 0-2.6.3-4.2.9-1.6.6-2.8 1.3-3.7 2.1v.1c0 .2 0 .3.2.3h-.1c-.1 0-.3.1-.6.2.1.5.4 1.2.9 2v.9c-.3.1-.5.5-.4 1.2-.2-.1-.3-.2-.5-.2v.1c0 .2 0 .3-.1.5.1 1.3.1 1.9.1 1.8 0 .5-.1.8-.3 1 .1.3.1.6.1.9 0 .5-.1 1-.3 1.5v-2.2-2.2c0-2-.1-3.5-.4-4.6-.3.4-.5.8-.5 1.1 0 .3.1.7.4 1-.2-.1-.4-.2-.6-.2-.3.7-.5 1.6-.5 2.6 0 .3.3.8.9 1.8-.2 0-.4-.1-.6-.3-.3.9-.4 2.1-.4 3.4 0 1.4.1 2.9.4 4.6-.2.9-.3 2.3-.3 4.2v9.3h-6.8V88.4l-.5-.5-.4.4c-.2-.1-.3-.4-.3-.9 0-.2.1-.5.4-.9.4-.5.6-.8.6-.8-.3 0-.5-.1-.7-.3-.1.2-.2.4-.2.6-.1-.3-.4-.5-.7-.5.2 0 .3-.1.4-.2-.1-.1-.2-.3-.3-.6l.4.2v-.1c0-.3.2-.7.5-1.2-.2-.1-.4-.3-.6-.5.2-.3.4-.6.6-1.1.1.2.2.3.4.5 0-1.1-.1-2.7-.1-4.6 0-3.6.2-6.1.6-7.7-.1-.5-2-.8-5.8-.8v-.7c.3-.2.7-.4 1.3-.7-1.1-1.1-1.8-1.6-2.3-1.6-.1 0-.4.1-.9.2v-3.8h21.8v6.6c-.4.1-1.8.2-4 .2-1.1 0-1.7.2-1.9.6-.1-.2-.4-.5-.8-.8-.2.1-.5.4-.9.7v13.1c.2 0 .3.2.5.3.7-.4 1-1.3 1-2.6 0-1.5 0-3.3-.1-5.2.2-.1.4-.3.7-.6 0 .4 0 1.1-.1 1.9 0 .9-.1 1.5-.1 2v2.6h.7-.1c.1-.2 1-.7 2.6-1.4 2.2-1 4.4-1.4 6.5-1.4 1.4 0 2.2 0 2.6.1.9.2 1.7.6 2.6 1.2zm-28 7.5c-.4.5-.9 1.3-1.5 2.4-.1-.1-.2-.2-.3-.2s-.2.1-.3.2c.1-.1.5-.6 1-1.4.3-.6.7-.9 1.1-1zm-.8-2h-.3l-.2-1.7h.3l.2 1.7zm3 3c-.1-.2-.2-.3-.3-.5 0 .3-.2.8-.4 1.3v-.5c0-.3-.1-.7-.2-1.2h.9c-.1.2-.1.5 0 .9zm-.6-6.1h-.3v-.9h.3v.9zm.2 1.8l-.2 1.7h-.3l.2-1.7h.3zm.5-5.2l-.2.2-.5-.5.2-.2.5.5zm.1 4.2h-.3v-.7h.3v.7zm.4-1.8h-.7v-.3h.7v.3zm-.2 3.5h-.3v-.5h.3v.5zm.4 2.3c0-.3-.2-.4-.5-.4l.5-.5v.9zm1.3-2.6v-.3l-.9-.2v.3l.9.2zm0 2.6c0-.3-.1-.6-.2-.7-.3.3-.4.5-.4.8.1-.1.3-.1.6-.1zm2.5-19.6l-.4-.5c-.4.1-1 .2-1.6.4v1.3h.9c.1-.5.5-.9 1.1-1.2zm-.4 1.7h-.7v.9l-.3-.2c-.2 0-.4.1-.5.2-.1.1-.1.3-.1.5.1 0 .3.1.4.2.2-.1.6-.7 1.2-1.6zm4.2 1.1v-.3h-.7v.3h.7zm1.4 20.2h-.3V90h.3v.7zm0 2.5h-.3v-.7h.3v.7zm.6 3.9l-.5.5-.2-.2.4-.5.3.2zm-.2-7.9h-.3v-.9h.3v.9zm.8 10.8l-.2 1.8h-.3l.2-1.8h.3zm-.3-27.2c-.1-.8-.2-1.2-.2-1.1.2.1.3.2.5.2 0 .4-.1.7-.3.9zm.2 2h-.3v-1.7h.3v1.7zm.1 25h-.3v-4.9h.3v4.9zm-.1 4.4h-.3v-1.8h.3v1.8zm.1 2.6h-.3v-2.4h.3v2.4zm-.1 3.3h-.3v-.9h.3v.9zm.4-15.9c-.2 0-.3.1-.5.3v-1.2l.5.9zm-.2-16.9v-.5h-.3v.5h.3zm.4 19.2h-.3V96h.3v.5zm.9-18.9l-.7 1.8h-.3l.7-1.9.3.1zm0 13.1h-.3l-.2-.6.3-.1.2.7zm1.5-11.7h-.3v-1h.3v1zm.2 1h-.3l-.2-.4.3-.1.2.5zm0 6.7h-.3v-1.9h.3v1.9zm9 9.5h-.5v-.3h.5v.3zm1.1-.7h-.3V95h.3v.5z"/><path class="st0" d="M324.2 103.9h-.3v-.5h.3v.5zm25.1 7.2h-7.6l-4.8-19.9h-3v19.9h-3.3V75.6c0-.5-.1-.9-.3-1.3v36.6h-4.1v-6.4c-.2-.2-.4-.4-.6-.4l.6-.6V62.7c.6.1 1.2.1 1.8.1.7 0 1.4-.1 2.2-.2 0 .3.1.8.1 1.4 0 .1.1.2.3.2.1-2 .2-4.1.4-6.3 0 2.5.1 4.3.4 5.2.6 0 1.3-.1 2.1-.1 1.6 0 3.5.1 5.9.3.1-.1.2-.2.2-.3 0-.1-.1-.2-.1-.2.3.3.5.5.7.5.2 0 .3-.1.3-.3l.4.5c.3-.2.6-.3.7-.3.1 0 .2.1.2.3 4.7 1.5 7.1 6 7.1 13.5 0 2.9-.3 5.1-.8 6.8-.7 2-1.9 4-3.8 5.8l5 21.5zm-18.7-44.3v-2.2h-.3v2.2h.3zm0 1v-.7h-.3v.7h.3zm10.6 9.3c0-3.9-.9-6.1-2.6-6.8 0 .3 0 .5-.1.6 0-.3-.2-.6-.5-1h-.7c0 .2.1.3.1.4 0 .2-.1.4-.2.5-.3-.3-.4-.5-.4-.7 0 .5-.2.8-.6.8.2 0 .3 0 .3.1s-.1.2-.2.3c.2-.1.3-.1.5-.1.3 0 .5.1.5.3.1.4.1.7.1.7 0 .1-.1.1-.2.1 0 0-.1 0-.2-.1-.1 0-.1-.1-.1-.2 0 .2-.1.3-.3.5l-.3-.3c.1-.1.3-.3.3-.4l-.6 1.1c-.2-.2-.4-.3-.8-.5-.1.6-.4 1.5-.7 2.7l-.3-.3c.2-.3.3-.5.3-.7 0-.1-.1-.3-.2-.3 0 .1-.1.3-.2.5s-.2.4-.2.5v9.5h3.7c2.4 0 3.6-2.4 3.6-7.2zm-3.7-14.9c-.4 0-.6.1-.6.2v-.1c0-.3.1-.4.2-.4.1.2.3.3.4.3zm12 .1l-.2.3-.7-.5.2-.3.7.5zm1.3.3l-.1.3-.9-.4.1-.3.9.4zm5.4 1l-.7.5-.2-.3.7-.4.2.2zm3.1.3c-.7.3-1.2.5-1.6.5-.1 0-.3-.1-.5-.2s-.4-.2-.6-.1c.5-.1.9-.2 1.3-.2h1.4z"/><path class="st0" d="M336.8 85.6l-1.1-.2v-.3l1.1.2v.3zm2.5.5l-.4.4c-.4-.2-.9-.6-1.4-1.3.8.5 1.3.8 1.3.8.1 0 .2 0 .2-.1s-.1-.1-.1-.2l.4.4zm38.5 24.8h-7.4c-.6-3.8-1.2-7.2-1.8-10.3-2.5-.2-4.8-.3-6.7-.3-.6 0-1 .3-1.1.8 0 .1-.1.7-.1 1.6 0 .3 0 .6-.1.8-.2 1.2-.4 2.9-.8 5.1-.1.6-.3 1-.7 1.1l.3.1v1.1h-7.2l2.7-16.1c-.3-.1-1.3-.7-2.8-1.6-.8-.5-2-1.1-3.6-1.7-1.3-.5-3.2-1.2-5.8-2.2-.1-.1-.5-.3-1-.8-.4-.4-.8-.5-1.1-.5l-.3-.4v-.1c0-.2-.1-.2-.3-.2.5-.2 1-.3 1.7-.3.4 0 1.2.5 2.4 1.5s2.1 1.5 2.5 1.5c1.9 0 3.8 1 5.8 2.9.4 0 .9-.2 1.4-.5l-.6-.6h1.8l.3-.3v-.1c0-.3-.8-.7-2.4-1.3l-.1.5-.1-.1c.1.1.2.3.2.5-.2 0-.3 0-.4.1-.1.1-.1.3-.1.5h-.7l-1-1c-.5-.5-.8-.8-.8-1s.1-.3.2-.4V88c-.1-.1-.2-.1-.4-.1-.4 0-.6.3-.6.9H348c.2 0 .5-.1.8-.2-.3-.6-.8-1-1.3-1.4h.5c.5 0 1.1-.1 1.8-.3l-.8-.8c.7.3 1.1.6 1.4.9v-1.1c.7.4 1.3.6 1.6.6.1 0 .3-.1.4-.2s.3-.2.4-.2c.2.1.5.2.9.4l.1-.1-.3-.6c.5-.1.8-.2.7-.2.1 0 .3.2.5.6l.3-.3c.2 0 .5.2.9.7.7-2.3 1-4.1 1-5.2 0-.1-.2-.7-.7-1.6-.5-1-.8-1.7-.9-1.9-.2-.7-.3-1.6-.4-2.7 0-.6 0-1.6-.2-2.8.1.1.3 1.3.7 3.6.3 1.9.9 3.3 1.6 4.3l3-17.2h9.3c0 .2 2 11.3 5.8 33.1.2.2.4.3.5.3-.1.3-.2.8-.2 1.5h-.1c-.3 0-.8.1-1.4.5.1.4.4.8.8 1.2l-.1-.2v.5c0 1 .2 1.9.6 2.8l.3-.1c-.2-.3-.3-.7-.3-1.1 0 .2.2.5.6 1v.3c0 .5.2.9.7 1.4.3 1.3.7 3.6 1.3 6.6zm-32.9-24.6l-2.1-.8.9-.3c.3.2.7.6 1.2 1.1zm.5 1.8h-.5v-.3h.5v.3zm6 .5l-.7-.3v.3l.6.2.1-.2zm.7.7c-.1-.1-.3-.2-.4-.3-.3 0-.5.2-.5.7.2-.1.5-.2.9-.4zm1.7 20.9v-.5h-.3v.5h.3zm1.9-50.3c0 1.2-.1 2.9-.5 5.1-.4 2.2-.5 3.9-.5 5.1 0 .7 0 1.3.1 1.9-.1-.8-.3-1.9-.5-3.5 0-.1-.1-.3-.1-.5v.1c0-.1.2-1.3.7-3.4.2-1.1.6-2.8 1-5.1v.3zm.3 27h-.9v.7h.7c.1-.1.2-.3.2-.7zm6.8 4.2v-.9h-.3v.9h.3zm4.3-.5l-2.4-15.4-2.2 14c0 .2.1.5.5.9.4.5.6.8.7.8-.1.1-.4.2-.8.2.5.3.8.5.8.7-.3.1-.7.3-1.1.5.2 0 .5 0 1-.1.4-.1.8-.1 1-.1 0 .2-.1.3-.2.4l.8.5c0 .1-.1.3-.4.6h.9v-.2c0-.4.2-.9.6-1.5.1-.3.5-.8.8-1.3zm-2.9 3.1v-.3l-1.7.2v.3l1.7-.2zm-.1 4.4l-.3-.1-.2.5.3.1.2-.5zm1-1.1c0-.3-.2-.6-.5-.9v1.1c.2-.1.4-.2.5-.2zm.8-6c0 .2-.1.4-.3.5-.3 0-.6-.3-.9-.9.3 0 .7.1 1.2.4zm1.7-27.4v-.3h-.7v.3h.7zm1.5 32.1h-.3l-.2 1.1h.3l.2-1.1zm1.6 5.3c-.2-.3-.3-.7-.3-1.1v-.5c0 .1-.1.3-.4.6l-.8-.8c.1.5.1.9.2 1.1.6-.2.9 0 .9.5 0 .2 0 .4-.1.6l.5-.4zm3.7-3.5c-.1-.1-.6-.5-1.4-1.1-.7-.6-1.1-.9-1.2-.9-.2 0-.6.1-1 .2s-.8.2-1.1.2h-.1c.1.2.1.4.1.5.1 0 .3-.1.4-.1.2 0 .4.1.5.2-.1.3-.1.6-.1.9V98.3c.3-.6.5-1 .6-1.3.6.1.9.5.9 1.1v.2c.4-.1.6-.2.5-.2h.1c-.3-.2-.5-.4-.6-.6l.3-.3c.1.1.3.2.5.3l.3-.3c.1.1.1.3.2.4-.1-.7-.2-1-.2-1l.4.5c0 .1 0 .3-.1.6s-.1.5-.1.6c.2 0 .4-.1.7-.2 0-.2 0-.5-.1-.9.1.1.3.2.5.3zm-4.4.3v-1.1h-.3v1.1h.3zm2.2-.8h-.7c-.3-.4-.5-.6-.8-.6l.4-.5c.5.2.9.6 1.1 1.1zm.5 2.5l-.2-1.1h-.3l.2 1.1h.3zm.2.9v-.9h-.3v.9h.3zm.4-.3h-.3l-.1.7h.3l.1-.7zm.5-1v-.7h-.3v.7h.3zm2.2 2.5c-.6-.6-.9-1-.9-1.2 0-.1.2-.3.5-.7 0 .1.2.7.4 1.9zm.7 5v-.6h-.3v.5h.3zm3-8.6c0 .3-.1.6-.2.7-.1 0-.3-.3-.7-.9.1.1.4.2.9.2z"/><path class="st0" d="M370.5 64l-.7.4-.2-.3.7-.4.2.3zm2.9.2c-.7.3-1.2.5-1.6.5-.1 0-.3-.1-.5-.2s-.4-.2-.5-.1c.4-.1.9-.2 1.3-.2h1.3zm27.9 34.4c0 5.5-2.1 9.2-6.2 11.2-.1.2-.2.5-.5.9v-.1c0-.1.1-.2.2-.3l-.1-.3c-.2.1-.5.3-.7.5h-.2c-.6 0-1.3.1-2.4.3l.3.4c-.4-.3-1.1-.5-2.1-.5-.7 0-1.5 0-2.2-.1-2.3-.2-4.4-1.5-6.3-4-1.8-2.3-2.7-4.7-2.7-7.1v-1.3l6.8-1.1c0 1.5.2 2.9.6 4.2.6 1.8 1.4 2.7 2.5 2.7.3 0 .6 0 1.1.1.5.1.9.1 1.1.1.6 0 1.1-.1 1.4-.3-.3-.4-.7-.6-1.2-.6-.3 0-.6.1-1 .3 0-.1.1-.3.4-.5-.3-.3-.8-.7-1.5-1.2.2 0 .4-.1.7-.4l-.3.4.4.3c0-.1.1-.3.2-.6s.1-.5.1-.6v-5.7c0-.1-.1-.3-.2-.6-.1-.2-.2-.4-.2-.6 0-.2 0-.6.1-1.1.1-.5.1-.9.1-1.1 0-.4 0-.6-.1-.7-.6-.5-1.3-1.2-2.2-2.1-1.5-1.4-3-3.1-4.7-5-1.3-1.4-2.2-2.9-2.8-4.5-.4-1.1-.6-2.8-.6-5.1 0-3.5 1-6.3 2.9-8.5 2-2.2 4.7-3.3 8.1-3.3 2.2 0 4.3.7 6.1 2 1.8 1.3 3 3 3.5 5.2l.7 2.8c0 .1.1.3.1.3v1c-1 .1-2.5.3-4.5.6-.1 0-.2.1-.4.3s-.4.2-.5.2c-.1 0-.1-.1-.1-.3 0 0-.1-.1-.2-.1-1.5 0-2.4 0-2.8-.1.4-.1.8-.1 1.4-.1l.3-.3v-.7c-.2-.2-.5-.5-.9-1 .1-.3.1-.6.1-.8 0-1.6-1-2.4-3.1-2.4-.9 0-1.3.4-1.3 1.3 0 .5.1 1.7.3 3.5.2 1.9.4 3 .5 3.3v.3c0 .6.2 1.2.5 1.6 0 .5-.1.9-.2 1.4-.1 0-.2 0-.2.1.1.1.1.2 0 .2 0 .5.2.8.7.8.1 0 .2-.1.2-.2v.1c0 .1-.1.1-.1.2l.5.3c.1-.1.2-.3.2-.6.1.6 1 1.8 2.8 3.4l.5-.5c-.1.1-.2.3-.4.6.4.2.9.6 1.4 1.2h.5c.1-.1.2-.4.2-.8 0 .4.1 1 .3 1.7 3.5 3.7 5.1 7.5 5.1 11.4zm-12.8-29.1c-1.6.8-2.4 2.3-2.4 4.5 0 1.5.7 3.4 2.2 5.5l.2-10zm-.3-12.8l-.2.9h-.3l.2-.9h.3zm-.2-2.1h-.3v-.5h.3v.5zm.3 5.7c0 .4-.2.8-.5 1.1v-.7l.5-.4zm.4 37.2c-.1.2-.2.3-.2.4-.1-.1-.3-.2-.5-.4l.3.2c.1-.1.3-.2.4-.2zm-.2-34.8h-.5v-.3h.5v.3zm.3 37.3h-.3l-.3-.4.3-.1.3.5zm.2-1.4c0 .3-.1.7-.1 1.2 0-.3-.2-.5-.6-.5v-.8c0 .1.1.2.2.5l.5-.4zm2.3-4.9V93c-.2-.4-.6-1-1.2-1.7-.2.3-.3.5-.3.8 0 .2.3.4.8.7-.1.4-.2.9-.4 1.6h.7c0-.4.1-.7.4-.7zm-1-18.9h-.5v-.3h.5v.3zm.5-2.5h-.3l-.2-.9h.3l.2.9zm.5 22.6h-.9c.1.3.3.7.7 1.1 0 0 0-.4.2-1.1zm-.3-17.8l-.2.5-.3-.1.2-.5.3.1zm1-2.2h-.9l.3-.5c.1.1.3.3.6.5zm.4 18.9c-.2-.1-.5-.4-.9-.7v1.7c.3-.5.6-.8.9-1zm0 1.5c-.2-.2-.4-.3-.7-.3l.3.9c0-.4.1-.6.4-.6zm.5-12.9c-.3.8-.4 1.1-.4.9-.3-.3-.5-.4-.7-.4l.4-.5h.7zm1.9-.7c-.2.2-.5.3-1 .3v.2c0 .2.1.5.2 1 .1 0 .2-.1.2-.1 0-.1-.1-.1-.2-.3.2.1.3.3.3.5s-.1.4-.2.6c-.1-.1-.4-.7-.9-1.7-.2 0-.5-.1-.9-.3 1.1-.3 1.7-.4 1.7-.4.5 0 .7.1.8.2zM393 95.1l-.3-.1-.2.5.3.1.2-.5zm.6-22.9l-.3-.1-.2.5.3.1.2-.5zm.6 5h-.5v-.3h.5v.3zm1.5-.3h-.3c-.2 0-.5 0-.8-.1.3-.1.7-.3 1-.5v.6zm.2 4.7c-.2 0-.5.1-.9.2.1-.2.3-.4.6-.7.2.1.2.3.3.5zm.1-2.2l-.6 1.5-.3-.1.6-1.4h.3zm.2 3.4l-.2 1.1h-.3l.2-1.1h.3zm0 2.2h-.3v-.9h.3v.9zm1.1 24.6l-.2.2-.5-.4.2-.2.5.4z"/><path class="st0" d="M400.5 66.3c-.3.3-.8.5-1.4.5-.1 0-.3 0-.6-.1s-.5-.1-.6-.1h-2.4c.6-.3.8-.6.8-.9l.4.3c.2-.2.3-.4.3-.5l.6.5c.2-.2.3-.5.3-.8.3.5.6.9.8 1.1.1-.1.2-.2.2-.3 0 .1.2.2.6.3l.4-.4c.4.3.5.4.6.4zm1.1 28.1l-.3.5-.3-.1.2-.5.4.1zm2 2.3h-.2c-.3 0-.6-.2-.8-.5-.1.1-.2.2-.2.3 0-.2-.2-.4-.5-.5.7.2 1.3.5 1.7.7zm-.8-.9c-.1-.1-.4-.2-.7-.2l.3-1.1c0 .2.2.7.4 1.3zm0-2.7c-.3.3-.5.6-.7.8v-1.4c.2 0 .4.2.7.6zm.8-26.5l-.9-.3c.3 0 .5-.1.7-.3.1.3.2.5.2.6zM435 95.7c-.1.1-.1.2-.2.4-.2.2-.4.7-.6 1.4-.8.2-2 .6-3.7 1.2 0-.4-.1-.6-.2-.8-.1.1-.1.3-.1.6-.2 0-.3-.1-.4-.2-.1.1-.2.3-.4.5 0-.3-.1-.4-.2-.5-.1 0-.2 0-.3.1.2.6.5 1.1 1 1.4.2-.2.5-.6.8-1 0 .5 0 .7-.1.8.2.1.3.1.5.1s.4-.1.6-.2c0 .2-.1.3-.3.3-.1 0-.3.1-.5 0 0 .4-.1 1.1-.3 1.9 0-.1.1-.3.1-.4 0-1.1-.7-1.7-2.1-1.9V111h-7.4c.1-.1.2-.3.2-.4 0-.4-.6-.9-1.7-1.4-.6.5-.9.8-1 1-.1.2-.2.6-.2 1.3 0 .6.1 1.2.4 1.6v.9l-.4-.3c-.3.2-.4.5-.4.8v-.2c0-.4 0-.7-.2-1-.1.1-.2.2-.2.4 0-.5-.1-.8-.3-.8-.1 0-.2.1-.2.3 0-1.6-.1-2.5-.2-2.7-.1-.2-.6-.3-1.5-.3-.1 0-.6.3-1.5.9.5-.5 1-1 1.7-1.4-.2-.4-.5-.9-1-1.5.2-.1.3-.3.3-.4 0 .2.1.4.4.7.2-.1.3-.6.4-1.3.1-.8.2-1.4.2-1.5.1.5.1 1.1.1 2l.5.5c.2-.1.3-.2.5-.2.1 0 .2 0 .3.1-.3 0-.5.1-.8.4.3.4.4.7.4.7.6 0 1-.3 1-1 0 .1.1.2.4.2.1 0 .3-.1.4-.3.1-.2.3-.3.3-.3.5.5 1.2.8 2 .8V106c.6-.2 1.2-.7 1.9-1.7l-.1-1c-.2.3-.4.6-.7 1.1-.7-1-1.2-1.5-1.4-1.5 0 0-.1 0-.1.1s.1.1.1.3c0 0-.1.1-.2.1s-.2-.1-.2-.2-.1-.2-.3-.2c-.6 0-1-.4-1.3-1.3l.4.4c-.1-.3-.3-.7-.6-1.2-.1.2-.4.4-.8.8l.7-1.4c-.1-.1-.2-.2-.3-.2-.1 0-.3.1-.4.2v-.2c0-.2-.1-.3-.2-.5l-.2.1c.1-.2.2-.5.3-.9h.9l.9 1.5.5-2.3c.2.4.6 1 1.2 1.7.2-.2.3-.4.3-.7 0-.3-.2-.5-.5-.6 0-.4-.1-1.5-.1-3.2-.3-.7-.4-1-.4-1 0-.2.1-.5.2-.9s.2-.7.2-.9c.1 0 .3-.2.5-.4 0-.2-.2-.3-.5-.3v-2.1H413c-.1 1.4-.1 2.6-.1 3.6 0 1.9.5 3.7 1.7 5.6l-.4-.3c-.1.1-.4.3-.9.5 0 .3.2.5.6.5-.1.3-.1.6-.1.9 0 .4.1.8.3 1.4.3.8.5 1.3.5 1.3-.3-.5-.7-1.3-1.4-2.5v10.6h-7.3V94.8l-.4-.4h.1c.1 0 .2 0 .3.1V67.3c-.1-.1-.8-.3-2.2-.5.1-.5.3-.7.7-.7.1 0 .2 0 .4.1s.3.1.4.1c.5 0 .8-.5.9-1.4v.6c0-.4-.1-1.2-.1-2.2h2.5c0-.2.1-.5.2-1 .3 0 .6.1.8.3.3-.5.6-.8.8-.8.1 0 .3.1.4.2.1.1.2.2.3.2.2 0 .4-.1.7-.2.3-.1.5-.2.7-.2v.3c0 .1 0 .1.1.1-.4-.1-.8-.1-1.2-.1-1 0-1.7.3-2.3.8.6.1 1.2.1 1.9.1s1.4 0 2.2-.1v19.8h7.9V63.3h7.4c-.1.6-.2 1.3-.2 2.1 0 .7 0 1.3.1 2.1.2-.1.3-.3.4-.3-.4.6-.7 1.9-.7 3.7V91.6c.3.3.7.4 1.1.4-.2.2-.3.4-.3.7 0-.1-.1-.2-.2-.3l-.4.3v-.1c0-.1 0-.2-.1-.3-.1.1-.1.4-.1 1 0 .4 0 .7.1.9.3.2.9.6 1.7 1.2.1-.6.2-1.1.2-1.7 0-.7-.1-1.3-.4-1.9v-1.2c.2 0 .4-.1.7-.2v.5c0 .4 0 .6.1.6.2 0 .3-.1.5-.2l-.6.6 1.1.2 1.1 1.7.4-.4c-.1.2-.2.3-.3.5.2.5.5 1.3.9 2.4.6-.2.9-.4 1.5-.6zm-23.8 4.1v-.7c-.6.3-.9.6-1.1.9.3-.1.6-.2 1.1-.2zm2.8-2.1l-.2-.9h-.3l.2.9h.3zm.1 5.1h-.3v-.5h.3v.5zm4.3-43.3c-.5.2-.8.3-.8.3-.2 0-.4-.2-.5-.6-.1.1-.2.3-.2.4-.4-.1-.8-.2-1.2-.2-.4 0-.7.1-1 .2l-.4-.5h1.6c.1 0 .2-.1.3-.2.1-.1.2-.2.3-.2.1 0 .5.1.9.4.5.2.8.4 1 .4zm-2.7 40.4l-.3.5-.3-.1.3-.5.3.1zm.4 5.1h-.9v-.3h.9v.3zm.8-4.8c-.1-.1-.2-.1-.3-.1-.1 0-.2 0-.4.1 0-.3-.3-.8-.8-1.4.5-.7.8-1.3 1.1-2 0 .1-.1.3-.3.4.1.1.3.2.4.2-.2.2-.3.3-.3.5 0 .1.1.2.2.3-.1-.1-.1-.1-.2-.1s-.2.1-.3.1c.1.4.5 1.1.9 2zm-.9 2.4h-.3v-.9h.3v.9zm.4 6.7l-.2-.6-.3.1.2.5h.3zm.9-5.5c-.2-.1-.4-.2-.5-.2 0-.4.1-.5.3-.5 0 .3.1.5.2.7zm.3.8h-.3l-.2-.5.3-.1.2.6zm.2.6l-.2.2-.4-.5.2-.2.4.5zm0-3.8l-.3.5-.3-.1.3-.5.3.1zm.5 9.9h-.3l-.2 1.3h.3l.2-1.3zm4.1-51.4c0-.3-.4-.4-1.3-.4-.2 0-.6 0-1.1.1s-.8.1-1.1.1c0-.1-.1-.4-.2-.7h1.2c.7 0 1.2-.1 1.3-.3.6.4 1 .8 1.2 1.2zM421 94.6l-.3.2-.4-.6.3-.2.4.6zm.2 1.9h-.3l-.4-.8.3-.1.4.9zm0 12.5l-.3-.1-.3.5.3.1.3-.5zm4.9-48.4c-.1-.1-.3-.2-.5-.4-.2.2-.3.4-.3.5h-.7c0-.4-.2-.5-.5-.5l-.4.2c-.1 0-.1-.2-.1-.5v-.1c-.1.1-.2.2-.2.3h-.5c.2-.1.5-.3.9-.5 1 0 1.8.3 2.3 1zm2.7 38.8v-.7h-.3v.7h.3zm.6-10.7h-.3l-.2-.4.3-.1.2.5zm.3-22.5l-.1.3-.6-.3V66l.7.2zm.1 20.9l-.2.7-.3-.1.2-.6h.3zm1.4-16.2c-.1.6-.2 1.4-.2 2.6-.3 0-.5-.1-.7-.3.4 0 .6-.2.6-.5 0-.8-.5-1.3-1.5-1.5.1-.1.3-.2.5-.2s.3 0 .5.1c.1-.1.2-.3.2-.4.2 0 .5 0 .6.2zm-1.4-3.2h-.3v-.5h.3v.5zm.3-3h-.3l-.2-1.7h.3l.2 1.7zm.5 32.1v-.3h-.9v.3h.9zm.6-34.9l-.2 7.2c-.3-.4-.6-1.1-1-1.8.1 0 .3-.1.4-.3 0 .2.1.4.3.5.2-.3.3-.7.3-1.1 0-.2 0-.5-.1-.8-.1-.4-.1-.7-.1-.8 0-.5.1-.9.3-1.2-.1-.1-.4-.4-.8-.7l.9-1zm-.3 26.3l-.1 1.5h-.3l.1-1.5h.3zm.2-13.9l-.2 1.3h-.3l.2-1.3h.3zm-.2 13.3h-.3v-2h.3v2zm0 16h-.3v-1.5h.3v1.5zm0 4.2h-.3v-1.3h.3v1.3zm.5 1.6c0 .2-.2.6-.5 1.1 0-.3-.1-.6-.2-1.1h.7zm-.3-29.5h-.3v-.7h.3v.7zm.7 14.9c-.1-1.1-.3-1.8-.7-2.1v2.2c.2 0 .4-.1.7-.1zm.1 7.7h-.3l-.2-.7.3-.1.2.8zm1.2 7c-.8.1-1.3.2-1.3.2.1-.2.1-.4.2-.7.4.1.7.2 1.1.5zm-.7-38h-.3V71h.3v.5zm1.1 28.5c-.3.4-.7.9-1.3 1.5v-.9c.1.1.3.2.4.2.1-.1.2-.2.2-.4s-.1-.4-.2-.6c.1.1.3.3.4.6.2-.2.4-.3.5-.4zm.1-36l-.3.5-.3-.1.3-.5.3.1zm0 2.9l-.3.5-.3-.1.3-.5.3.1zm.7 25.8c-.1-.1-.3-.2-.4-.3-.1.3-.3.4-.7.6.2-.5.3-1.1.3-1.8-.1.4.2.9.8 1.5zm-.7-17.7h-.3v-1.3h.3V75zm.7 18.8l-.3.1-.4-.9h.3l.4.8zm-.3 16.3h-.3V109h.3v1.1zm1.3-12.5l-.2.2-.6-.7.2-.2.6.7zm0-3.9l-.5.5-.2-.2.4-.5.3.2zm-.2-26.5h-.3v-.7h.3v.7zm1.4 24.9h-.8c.1 0-.1.1-.4.3 0-.1.1-.4.3-.7.1.1.2.1.3.1.1 0 .3-.1.5-.3-.1.4 0 .6.1.6zm.1 2.2l-.9.9c.1-.2.2-.5.3-.8-.1-.2-.3-.3-.3-.5.2.1.5.2.9.4zm-.5 2.1h-.3v-.7h.3v.7zm.5 1.8c-.4 0-.6-.1-.8-.2l.5-.5c0 .4.1.6.3.7zm.3-1.1c-.3 0-.6.1-1.1.2 0-.4.1-.6.3-.6.1 0 .2.1.3.1l.3-.3v-.2c0-.2 0-.4.1-.8v1.6zm-.5-14.1h-.3v-.5h.3v.5zm.5 26.9c0 .3-.1.6-.3.8l-.4-.5c.2-.1.4-.2.7-.3zm-.3-.6h-.3v-.5h.3v.5zm0 2.3h-.3v-.7h.3v.7zm.9-44.5h-.7v-.3h.7v.3zm.5 27h-.3v-.7h.3v.7zm1.3 8.9h-.3v-.7h.3v.7zm.2 6.2l-.3.5-.3-.1.3-.5.3.1zm.4-2.3l-.3.5-.3-.1.3-.5.3.1zm.2-2.1l-.3.5-.3-.1.3-.5.3.1z"/><path class="st0" d="M439.7 111.2h-4.4v-4.8h2.6c0 .3 0 .5.1.6v-.6c.3.2.5.3.5.3h.4v.4c0 .3 0 .7.1 1 .1-.1.2-.4.2-.9.2 0 .4.1.4.2v3.8zm-.5-1.6c-.1-.2-.2-.5-.2-.8v-.3c0 .1-.1.2-.2.4l-.5-.5c0 .2 0 .5.1.7h.2c.2 0 .3.1.3.3 0 .1.1.2.1.3 0 .1 0 .2-.1.3l.3-.4zm-.4-2.1v-.7h-.2v.7h.2zm.9-.6c0-.2-.1-.3-.3-.3h-.1l.3-.3c0 .1.1.3.1.6z"/><path class="st0" d="M439.5 106.7l-.3.5-.3-.1.3-.5.3.1zm.2-2.1l-.3.5-.3-.1.3-.5.3.1zm1.6-60.4h-.3v-.5h.3v.5zm.2 2.1l-.2.9h-.3l.2-.9h.3zm.1 3.7c0 .5-.2.8-.5 1.1v-.7l.5-.4zm.4 38.6s0-.1 0 0c-.1 0-.3.1-.5.3l-.3-.3c.1.1.3.2.6.4 0-.1.1-.2.2-.4zm-.2-36.1h-.5v-.3h.5v.3zm3 20.6c-.3 0-.8-.1-1.4-.2-.1.4-.2 1-.2 1.7 0 1.1.1 1.8.4 2.3v1c-.2.1-.4.4-.4 1s-.1 1-.3 1.2c0-.9 0-1.8-.1-2.8 0-.2-.1-.6-.2-1.1-.1-.5-.2-.9-.2-1.2v-.4c-.2-.1-.5-.2-.8-.4.3-.1.4-.3.4-.6 0-.2-.1-.5-.2-.8s-.2-.6-.2-.8c0-.1 0-.2.1-.4s.1-.3.1-.4c0-.2 0-.5-.1-1s-.1-.7-.1-1c0-.5.1-.9.3-1.2l-.3-.3c0-.2 0-.5-.3-.9.4-.4.5-.9.5-1.5-.3-.5-.4-1.1-.4-1.8 0-.4.1-1.1.2-1.9.1-.9.2-1.5.2-2v-.2l.4.4c-.2 3.9.2 7.2 1.1 9.9-.2.3-.3.6-.3.8 0 .2.1.4.2.5-.1.4-.2.7-.2.9 0 .5.4.7 1.2.7 0 0 .1-.1.5-.4v.9zm-2.7 18h-.3l-.3-.4.3-.1.3.5zm.3-1.4c0 .1-.1.5-.1 1.2 0-.3-.2-.5-.6-.5v-.8c0 .2.1.4.2.5l.5-.4zm11.7-22.3c-.3 1-.4 2.7-.4 5.2v38.2h-4.4v-.2c0-.2-.1-.3-.4-.3-.1 0-.4.1-.6.3-.3.2-.5.3-.6.3h-1.5V102c-.1-.1-.2-.1-.3-.1-.1 0-.3 0-.4.1.1-.2.3-.5.4-1-.1.1-.3.2-.6.3.2-.3.5-.5.8-.7v-5.3c-1-.6-1.6-.9-1.9-.9-.1 0-.3 0-.6.1-.2.1-.4.1-.5.1 0-.1.1-.2.4-.5-.3-.3-.9-.7-1.6-1.2.2 0 .4-.1.7-.4 0 .1-.1.3-.3.5.1 0 .2.1.4.3.1-.4.2-.7.2-1 0-.5-.1-.9-.4-1.1v-1c.3-.7.4-1.4.4-2.3 0-.4 0-.9-.1-1.7-.1-.7-.1-1.3-.1-1.6 0-.7.1-1.6.3-2.6 0 .4.3 1 .9 1.8-.1.4-.2 1-.2 1.7h.5c.2-.2.3-.3.2-.4.1-.1.2-.7.2-1.7.2.1.4.4.6.8.1-.1.1-.2.1-.3.2 0 .4.1.7.3.2-.2.3-.4.3-.7 0-.5-.3-.8-.8-.9l-.1.1c.7-.6 1-1.2 1-1.7 0-.1-.1-.4-.2-.6s-.2-.5-.2-.7c-.1-.1-.3-.3-.4-.3-.1.2-.3.6-.6 1.1.1 0 .1.1.2.1s.2-.1.4-.2v1.4c-.1 0-.1-.1-.2-.1.3 0 0 .1-.9.3 0-.1-.1-.3-.3-.5.3 0 .5-.1.8-.4 0-.1-.2-.4-.6-.7-.4-.3-.6-.5-.6-.6 0-.2.1-.3.4-.5.3-.2.4-.3.4-.4.2 0 .4.1.7.4v-.1c0-.1-.1-.4-.3-.8.3 0 .6.1.9.3.1-.1.2-.3.2-.5 0-.6-.2-1-.7-1.2 0-.3.1-.4.3-.4l.1.1c.1-.5.2-.9.2-1.3 0-.9-.3-1.4-.8-1.7.2-.1.5-.3.8-.6-.2-.2-.3-.4-.3-.5 0-.1.1-.2.3-.2l-.4-7.3c.3-.1.4-.6.5-1.5.1-.8.4-1.2.9-1.2-.1 0-.2.1-.2.4h1.7c.1-.2.2-.4.2-.5 0-.3-.2-.5-.7-.7.3-.4.5-.9.7-1.7.2.1.3.4.3.8 0 .1 0 .4-.1.7 0 .3-.1.5-.1.7 0 .6.3.9 1 .9h2.9c.1-.1.1-.1.2-.1s.3.1.4.4c-.1.6-.1 1.1-.1 1.6.3.8.5 1.7.9 2.5zM443 95.3c-.2.1-.4.2-.5.3 0-.3-.1-.5-.3-.5l.8.2zm.7-30.2h-.5v-.3h.5v.3zm.6-2.6h-.3l-.2-.9h.3l.2.9zm0 14.3l-.3.5-.3-.1.3-.5.3.1zm.5 9h-1c.1.3.3.7.7 1.1 0 .1.1-.3.3-1.1zm-.4-18.4l-.3.5-.3-.1.3-.5.3.1zm.6 15c-.2.2-.4.4-.5.6v-1l.5.4zm.2-2.3l-.4-.8h-.3l.5.9.2-.1zm.3-14.9h-.9l.3-.5c.1 0 .3.2.6.5zm.4 8.9c0 .5-.1.8-.3.9-.4.2-.7.3-.7.3.2.2.3.5.3.7l-.7-.6v-.7c.4-.2.9-.4 1.4-.6zm-.2 3.7c-.1-.1-.4-.1-.7-.1.1-.1.2-.4.4-.7.2.1.3.4.3.8zm.5 7.2v-.7c-.1.1-.3.1-.4.1-.3 0-.5-.1-.7-.3v1.7c.2-.2.4-.4.8-.7.1-.2.2-.2.3-.1zm-.7 12.7h-.3V97h.3v.7zm.5-11.4c-.2-.2-.4-.3-.8-.3l.3.9c0-.4.2-.6.5-.6zm1.4 14.2c-.3-.1-.6-.3-1.1-.4 0 .1.1.4.2.7s.2.5.2.7c.3-.5.5-.7.7-1zm.4.3v-.9h-.3v.9h.3zm2.1-20.7l-.9-.3c-.8.6-1.3 1.3-1.3 2.1 0 .4.4.9 1.2 1.5-.7.2-1 .5-1 .9 0 .2.3.3.8.3-.1-.1-.2-.3-.2-.4 0-.1.1-.2.2-.3.2.1.3.2.5.3v.2c0 .4-.1.7-.2.8h.8V81c-.3.3-.6.5-.8.6l-.2-.9c.2-.1.6-.3 1.1-.6zm-.8-23l-.2 1.1h-.3l.2-1.1h.3zm.3 42.9l-.8-.3v.3l.7.2.1-.2zm-.2-41.1l-.3.5-.3-.1.3-.5.3.1zm2.7 22.4c-.4-.2-.9-.6-1.5-1v.6c0 .3-.2.5-.5.6.3.2.5.5.4.9.8-.3 1.3-.6 1.6-1.1zm.2 4.6V85c-.6-.3-1-.7-1-1v-.5-.5c-.1.1-.4.1-.7.1v2.8h1.7zm.2 12.5c-.4-.4-.8-.6-1.2-.6v.5c0 .2 0 .5.1.9.5.1.8-.2 1.1-.8zm2.1-14h-.4V81h.3v3.4zm0 7.2h-.4v-1.1h.3v1.1zm0 2.1h-.4v-.5h.3v.5zm.4-23.8l-.2.2-.5-.5.2-.2.5.5zm.1 30.4h-.7v-.3h.7v.3zm.1-8.2l-.5.7-.3-.2.4-.7.4.2zm0-21.2l-.3.5-.3-.1.3-.5.3.1zm0 25.3l-.2 1.1h-.3l.2-1.1h.3zm1.3-29.7l-1-.3v2.1c-.1-.3-.2-.8-.4-1.5-.1.1-.2.2-.2.3 0-.2.1-.4.2-.8s.2-.6.2-.8c0 .3.1.5.4.5.1 0 .2-.1.2-.4.1.1.4.2.7.2v7.1c-.3-.4-.7-1-1.1-2 .1-.2.2-.3.2-.4.1.1.2.3.5.5l.3-.3c0-.3-.2-.5-.6-.7v-2.3c0-.2.1-.4.3-.6.1-.4.3-.6.3-.6zM455.2 99c0 .3-.1.5-.2.7-.1-.2-.1-.4-.3-.5.4 0 .5-.1.5-.2zm.9 4.8c0 .3 0-.3-.1-2-.1.3-.4.6-.8 1l.1-.1c.1 0 .2.1.4.3-.5.2-.7.5-.7.8 0-.2.1-.4.2-.5.1 0 .3.1.5.3-.1.1-.2.3-.2.4.4 0 .6 0 .6-.2zm-.3-22.7h-.3l-.3-.6.3-.1.3.7zm-.2 20.5h-.3v-.5h.3v.5zm.9-12.2c-.3.1-.6.2-1 .2 0-.3-.1-.6-.2-.9 0-.1.2-.2.5-.5.1-.7.2-1.3.3-1.8.2 1.3.4 2.3.4 3zm-.2-11.9c-.3 0-.6-.2-1-.5h.1c.1 0 .2.1.3.2.1-.6.2-1.3.2-2 .3.5.4 1.3.4 2.3zm.6 22.8c-.4.1-.8.2-1.1.3 0-1.4-.1-3.1-.4-5.1.2 0 .4-.1.7-.2 0 2.2-.1 3.7-.2 4.6.4.2.7.3 1 .4zm-1.1-18.4h-.3v-.5h.3v.5zm.3 12.7c-.2 0-.4-.1-.5-.3.2-.6.3-1 .3-1.3.1.4.2.9.2 1.6zm.2 10.8h-.8c.3-.6.5-.8.5-.9-.1.6-.1.8-.1.6 0 .2.2.3.4.3zm.1-27.1l-.2 1.3h-.3l.2-1.3h.3zm0 5.2l-.2.9h-.3l.3-.9h.2zm0-18.4l-.3.5-.3-.1.3-.5.3.1zm-.2 27.4h-.3v-2.1h.3v2.1zm.4 5.6h-.3v-.5h.3v.5zm1.4 2.2l-.3.5-.3-.1.3-.5.3.1zm0-24h-.3v-.5h.3v.5zm3.1 24.4c-.4.4-.6.9-.7 1.3h-1c-.1 0-.2-.1-.4-.3-.1-.1-.3-.1-.5-.1h-.2v-.7c.3.1.6.4 1 .8.1-.1.3-.1.5-.1.3 0 .5-.3.6-1 .4 0 .6.1.7.1zM459 70.4l-.3.9h-.3l.2-.9h.4zm0 15.6h-.3l-.3-.5.3-.1.3.6zm.1-17.8c-.2-.1-.4-.2-.5-.2v-.7c.1.3.2.6.5.9zm0 29c0 .2 0 .4-.1.7l-.5-.5V96c.4.2.6.6.6 1.2zm-.1-18.4h-.3v-1.1h.3v1.1zm.3 24.5c-.3 0-.5.1-.5.2v-1.4c.1.2.3.6.5 1.2zm.5-3.9h-.3l-.2-1.3h.3l.2 1.3zm.2-2l-.3.5-.3-.1.3-.5.3.1zm.8 5.6c-.1-.1-.4-.1-.9-.1.1-.2.2-.4.2-.5l.7.6zm0-32.2h-.3l-.2-1.1h.3l.2 1.1zm-.1 5.4l-.3.5-.3-.1.3-.5.3.1zm.2 22.8c-.1 0-.4.1-.7.2.1 0 .3-.3.6-.9 0 .3 0 .6.1.7zm-.2-21.5h-.3V77h.3v.5zm.3 21.8l-.3.8-.3-.1.2-.6h.4zm.2 3.2h-.3l-.3-.4.3-.1.3.5zm1.1-5.3c-.4-.1-.9 0-1.4.3v-.7s.4-.1 1.1-.2c0 .4.1.6.3.6zm-1-29h-.3v-.5h.3v.5zm.5 1.1l-.3.2-.5-.7.3-.2.5.7zm.5 30.7h-1l.3-1.1c.1.1.3.4.7 1.1zm-.1.3c0 .1-.3.6-.9 1.5v-.7c.5-.3.7-.5.9-.8zm.4 2.3c0-.2-.1-.3-.2-.5-.3.3-.6.5-1 .7.2-.2.3-.4.3-.6 0-.1-.1-.2-.2-.3.4 0 .6 0 .7.1.3-.3.4-.7.4-1.3v1.9zm-.5.7c0 .3-.1.7-.3 1l-.3-.9c0-.3.2-.4.6-.4V103.3zm.2-32.3l-.6.3V71l.4-.2.2.2zm.8-1.4l-.6.3v-.3l.4-.3.2.3zm.2.5l-.5.7-.3-.2.5-.7.3.2zm1.3-3.3h-1.5v-.3h1.5v.3zm-.6 32.4h-.3v-.7h.3v.7zm2.6-5.5c-.1-.8-.5-1.4-1.1-1.6l.9-.9c.1.5.2 1.3.2 2.5z"/><path class="st0" d="M445.1 89.9l-.3.9h-.3l.2-.9h.4zm39.3 21h-6.7l-6.4-17.6-.6.6c-.1-.2-.4-.4-.8-.8V94c-.4.3-.9.8-1.4 1.6-.7-1.4-1-2.3-1-2.6 0-.3.2-.8.5-1.4.3.6.4 1.2.4 1.7.1 0 .3.1.5.3.3-.3.5-.5.5-.9s-.1-.8-.4-1.4c-.3-.7-.6-1-.9-1-.1 0-.2.1-.2.3 0 .1-.1.1-.2.1 0 0-.1-.1-.5-.2V102c.2-.3.5-.6 1-1.1v3.6c-.7.5-1.1 1.5-1.2 3v3.5h-6.9c.1-.6.2-1.2.2-1.8 0-.6-.1-1.3-.2-2-.5.2-.7.3-.8.3.4-.7.7-1.1 1-1.2v-9.9c-.9-.9-1.3-1.5-1.3-1.7 0-.2.1-.3.3-.4 0-.3-.2-.4-.5-.4-.1 0-.1 0-.2.1s-.1.1-.2.1-.3-.2-.6-.6c-.2-.3-.5-.4-.7-.4-.2 0-.4.1-.7.2-.3.1-.5.2-.6.2v1.1c-.2-.5-.6-.9-1-1.3-.4.3-1.2.6-2.4 1-1.1.4-1.9.8-2.5 1.4-.1.1-.2.5-.4 1.1-.2.7-.4 1-.6 1-.3 0-.6 0-.8-.1 0-.1-.1-.5-.1-1.1-.4-.1-.7-.2-.9-.2l-.3.3.4.3c-.3.4-.7.9-1.2 1.7 0-.1.1-.4.3-.7s.3-.6.3-.7c0-.7-.3-1-1-1-.2 0-.3.1-.5.2-.2 0-.3-.2-.3-.5s.4-.6 1.2-1.2c-.1-.5-.2-.9-.3-1.4-.1-.6-.4-1-.7-1.2v-.7c.4.6 1 1.4 1.8 2.5.2.3.3.5.3.8 0 .1.1.1.3.1l.1-.1c.3-.1.9-.5 1.9-1-.2-.7-.3-1.3-.3-2 .7.4 1 1 .9 1.7h2.2c.9-.4 2-.9 3.4-1.5v-.1c0-.3-.1-.9-.3-1.7 1.4 1.7 2.5 2.6 3.2 2.6.2 0 .7-.2 1.4-.5V81.6c0-.2-.1-.5-.4-.8v-7c.1 0 .2.1.2.1.1 0 .2-.1.2-.3V62.9h4.9c.2-.3.3-.6.3-1 .2.5.3.9.3 1 .4 0 1.1 0 1.9.1.4.9 1 2.6 1.8 5.1.6 1.7 1 2.6 1.2 2.6.2 0 .3-.1.4-.2v.3c0 .4.1.7.3 1-.2.1-.3.3-.3.4 0 0 .3.3 1 .6h-.1c-.2 0-.4-.1-.7-.4-.1.1-.1.2-.1.4 0 .6.3.8.9.8-.1.1-.3.2-.5.4l5.9 16.8v-28h6.8v48.1zm-37.7-11.1c-.3 0-.6.1-.7.3 0-.4.1-.6.3-.8l.4.5zm.3 1.4h-.3v-.5h.3v.5zm1.1-1.7l-.2.2-.4-.5.2-.2.4.5zm.3 6.1c-.1 0-.4.1-.7.2v-1.1c.2 0 .4-.1.7-.2v1.1zm.8-8.9c0-.3-.2-.5-.7-.5v.8c.4 0 .6-.1.7-.3zm2.4 8.5l-.6.3v-.3l.4-.2.2.2zm.4-4h-.3v-1.1h.3v1.1zm2.1 6.7h-.3v-.9h.3v.9zm1.6-18.1h-.3l-.2-1.3h.3l.2 1.3zm.9 5.3l-.5.5c0-.5.1-.8.3-1 0 .4.1.5.2.5zm.1-6.6c-.1 0-.3-.1-.5-.3.2-.2.4-.3.5-.4v.7zm.7 17.8l-.3.5-.3-.1.3-.5.3.1zm2.3-18.9c0 .2-.3.5-.9 1-.2-.2-.3-.5-.3-.9 0-.5.2-1 .7-1.4 0 .1.1.3.2.6s.3.5.3.7zm-.7-12.9h-.3v-.7h.3v.7zm.8-1.9c0-.1-.3-.2-.9-.2.1-.5.2-1.1.4-1.9.3.1.4.8.5 2.1zm.2 6.2l-.2.2-.5-.5.2-.2.5.5zm0 13.4h-.7v-.5h.7v.5zm0 5.5c-.2 0-.4.1-.7.4 0-.7.2-1.1.7-1.3v.9zm.3-17.4l-.2-.6-.3.1.2.4h.3zm4.2-22.4h-.9V57c.2-.2.5-.5.9-.8v1.7zm1.2 2.3l-.3 1.1c-.4-.7-.8-1.5-1.5-2.6.1-.1.3-.1.6-.2v.1c0 .4.4 1 1.2 1.6zm2 22.6l-.2-.9h-.3l.2.9h.3zm.3 7.1c-.1-.4-.2-1.1-.2-2.1-.3.4-.5.7-.5 1s.2.6.7 1.1zm0 14.7c-.2-.4-.5-.6-.8-.6 0 .6.1 1 .3 1.1.1-.2.3-.3.5-.5zm.1-19.9l-.4-1.1-.3.1.4 1h.3zm-.2 21.4h-.3l-.2-.4.3-.1.2.5zm2.4-8.7l-.3 1.3-.5-.5c.3-.2.4-.5.4-.9h.1c0-.1-.1-.1-.3-.1-.3 0-.6.3-.9.8-.4.6-.7 1-.9 1.1.1-.2.3-.5.5-.9.1-.5.3-1.1.5-1.9h.7c.1 0 .4.4.7 1.1zm0-6.8c-.4-1.3-.6-2.1-.7-2.3-.3-.9-.7-1.6-1.2-2.1v.6c0 .4.2 1.1.7 2.1.6 1.2 1 1.7 1.2 1.7zm-.2 17.9c0 .5-.2.7-.7.7-.1-.1-.2-.4-.3-1l1 .3zm0 2.3c-.4-.5-.7-.9-.9-1.1l.9.2v.9zm0-10.6c-.3.3-.6.4-.9.4v-.4c0-.4.1-.7.4-.9.4.3.5.6.5.9zm-.2 2.7l-.5-.5c.1-.1.3-.2.5-.3v.8zm.4 10.1c-.2.3-.5.4-.9.4 0-.1.3-.6.9-1.3v.9zm.4-46c-.3.3-.6.5-.9.5-.1-.4-.2-.6-.2-.6 0-.1.1-.2.3-.2.1 0 .4.1.8.3zm.2-1c-.1.1-.4.2-.7.2v-1.5c.2.1.4.2.7.4 0 .1.1.3.1.7v.2zm-.2-1.8c-.1.1-.3.2-.5.4v-2.3c.3.3.5.9.5 1.9zm.1 28v-.7h-.3v.7h.3zm1-24.6h-.3l-.3-.5.3-.1.3.6zm0 28.8h-.3v-.9h.3v.9zm.7 13l-.1.3-.6-.2v-.3l.7.2zM515.1 110.8h-7.6c-1.7-6.3-2.6-9.5-2.6-9.8 0-.3.1-.5.3-.6-.6-.9-1.3-2.7-2-5.5-.9-3.3-1.5-5.3-1.7-6.1-1 1.7-2 3.9-3.1 6.5 0 .3.1.6.1 1 0 1.1-.1 2.4-.4 4.1.2.8.3 1.8.3 3.1 0 .6-.1 1.8-.2 3.6-.1 1.5-.1 2.7-.1 3.6h-7.2c.2-1.2.3-2.4.3-3.7 0-1.2-.1-2.4-.3-3.6l-.4.3c.4-.6.5-2.1.5-4.5V62.9h7.3v18.5l8.4-18.4h7.4l-8.2 16.6c1.5 5.3 2.3 8.1 2.3 8.4 0 .9-.4 1.5-1.3 1.8v.5c0 .3.2.5.5.8.5-.3.9-.4 1.2-.6.4 0 .7.3.9.9.2.8.6 2 1 3.6.7 2.2 1.5 4.8 2.4 7.8 1.4 4.6 2.2 7 2.2 7.1v.9zm-21.4-3.6l-.8-.3v.3l.6.2.2-.2zm3.2-22.3c0-.2-.1-.4-.2-.7-.1-.3-.2-.5-.2-.7-.2.7-.5 1.7-.9 3 .2.2.4.3.7.5 0 0 .1-.2.1-.4 0-.5.1-.8.3-1 .1-.3.2-.5.2-.7zm3.1.8l-.5-.7c-.4.1-1 .2-1.6.2v1.1h.9c.3-.1.7-.3 1.2-.6zm-.2-19.7h-.7v-.3h.7v.3zm1.9-.3l-.5.3v-.3l.4-.2.1.2zm3.7-6.2l-.2.2-.5-.5.2-.2.5.5zm5.4 43.9l-.3-.1-.3.5.3.1.3-.5z"/></g></svg>