<svg id="Layer_1" data-name="Layer 1" xmlns="http://www.w3.org/2000/svg" viewBox="0 0 261.46 93.13"><title>trash_text</title><path d="M6.8,16.43a1.89,1.89,0,0,1,1.15-.7,4.06,4.06,0,0,1,.51,0,.26.26,0,0,1,.25.29s.66.3,1.85.76a24.65,24.65,0,0,0,2.55.57l3.12.57a13.2,13.2,0,0,0,3.47.67q1.75.1,2.58.1,1.78.06,1.85.76A3.17,3.17,0,0,1,23.74,21a2,2,0,0,1-1.08.76q-.64.06-.76-.38,0-.25-.48-.51a2.2,2.2,0,0,0-1.05-.25l-1.37,0a6.38,6.38,0,0,1-1.62-.29A3.5,3.5,0,0,1,16.13,20q-.67-.25-.67-.51h-.7v7.13q0,2.55-.06,5.47a30.21,30.21,0,0,1-.32,4.33q0,1.4-.19,3.79T14,44.32q0,2-.19,4.93t-.19,5.25q-.25,2.29-.32,5t-.06,4.42q0,1.4.06,3a6.91,6.91,0,0,0,.32,2.2q0,.57-.06,2.13t-.32,3.53q-.25,1.72-.51,3.92a32.45,32.45,0,0,0-.25,3.6q0,1.4-.06,3.12A10.7,10.7,0,0,1,12.09,88q-.25.83-.51,2.1a12.34,12.34,0,0,0-.25,2.42,14.67,14.67,0,0,1-.19,2.1A16.39,16.39,0,0,0,10.94,97a15.3,15.3,0,0,0-.32,2.64q-.06,1.5-.06,2.64a12.83,12.83,0,0,0,.19,2,12.08,12.08,0,0,1,.19,1.75,1.82,1.82,0,0,1,.06,1.24,2.29,2.29,0,0,1-.45.67q-.38.51-1.46,0-.25,0-.32-.83t-.06-3.69q0-1.72.19-4.14t.19-4.14A18.58,18.58,0,0,1,9.35,92a4.24,4.24,0,0,1,.51-1.72A5.24,5.24,0,0,1,10,89a4.88,4.88,0,0,0,.19-1,9.23,9.23,0,0,1,.16-1.5,9.23,9.23,0,0,0,.16-1.5q0-.57.06-2.07a31.09,31.09,0,0,1,.32-3.21q0-1.4.06-2.64a2.78,2.78,0,0,1,.32-1.5q0-.57.19-3.56t.19-6.62q0-3.95.19-8.63t.19-7.54q0-2.87.19-5.35t.19-3.31a16.38,16.38,0,0,1,.19-2.42,14.68,14.68,0,0,0,.19-2.1V21.33l-.38-2.23-2.61-.38a6.75,6.75,0,0,1-2-.25A2.83,2.83,0,0,1,6.8,18,1.26,1.26,0,0,1,6.8,16.43Z" transform="translate(-6.55 -15.67)" style="fill:#fff"/><path d="M28.23,16.43a8.23,8.23,0,0,1,1.31-.76h1.53a5.32,5.32,0,0,1,1,.19,6.55,6.55,0,0,0,1.59.19,11,11,0,0,1,2.16.57,8.69,8.69,0,0,1,1.59.89l1.27,1.31,1,1a7.67,7.67,0,0,1,.76,1,6.12,6.12,0,0,1,.76,1.59,10,10,0,0,1,.89,1.53q.32.7.57.7.51,1.46.76,2.29t.76,2.13a14.62,14.62,0,0,1,.76,2.71q.25,1.4.45,3.06a22.91,22.91,0,0,1-.06,4.46q0,2.8-.16,4.58a16.56,16.56,0,0,1-1,4.07q-.57,2.55-1,3.95a8.57,8.57,0,0,1-1.59,2.8q-.57.83-1.5,2a20.46,20.46,0,0,1-1.5,1.75,6.61,6.61,0,0,1-2.29,1.85,8.84,8.84,0,0,0-1.46,1.15,6.43,6.43,0,0,1-1.53,1.08q-1,.51-1.53.76a5.34,5.34,0,0,1-1.46.76c0-.17,0-.21-.06-.13s-.15.13-.32.13a1.74,1.74,0,0,0,.45.83,4.34,4.34,0,0,1,.7,1.4,10.26,10.26,0,0,1,1.11,1.34A10.37,10.37,0,0,0,33.29,69a5.77,5.77,0,0,0,1,1.37,4.48,4.48,0,0,1,1,1.62,23.08,23.08,0,0,1,1.46,2.61,8.42,8.42,0,0,1,.8,1.05,17,17,0,0,1,1.11,1.94q.57.83,1.5,2.32a19.93,19.93,0,0,1,1.5,2.9,22.63,22.63,0,0,1,1.69,2.8A10.19,10.19,0,0,0,44.94,88q.57,1.15,1.46,2.61-.26,0-.06.25a4.92,4.92,0,0,0,.45.51,5.6,5.6,0,0,1,.7,1A3.12,3.12,0,0,1,47.93,94q.25.57.54,1.3t.54,1.3q.25.57.51,1.11a2.18,2.18,0,0,1,.25.8,3.44,3.44,0,0,0,.73,1.66q.73,1.08,1.56,2.48a12,12,0,0,0,1.27,2.39q.7,1,1,1t.38.38a3.17,3.17,0,0,1-.38,1.46,2.2,2.2,0,0,1-1.15.38q-.57.13-1.85-2.61A26.87,26.87,0,0,0,50,102.95a24.87,24.87,0,0,0-1.3-2.16,16.86,16.86,0,0,1-1.11-1.88,11.72,11.72,0,0,1-.8-1.88q-.25-.57-.7-1.5a3.67,3.67,0,0,1-.45-1.5,2.55,2.55,0,0,0-.7-1.85A2.27,2.27,0,0,1,44.17,91a8.63,8.63,0,0,1-.76-1.85,4.36,4.36,0,0,1-1.15-1.91q-.25,0-.54-.45a7.59,7.59,0,0,1-.54-1q-.25-.57-1.3-2.51t-2.45-4.23q-1.4-2.29-3.37-5.67.06-.51-1.53-2.61Q31.95,70,31.22,69a14.45,14.45,0,0,0-1.31-1.56,5.94,5.94,0,0,0-1.15-1.91V69A17.42,17.42,0,0,0,29,71.59a13.41,13.41,0,0,1,.19,1.81,3.86,3.86,0,0,1,.32,1.11,7.59,7.59,0,0,1,.06.8q0,.57.19,4.71t.19,9.48q0,5.35.19,9.52t.19,4.74q.25,1.15,0,1.4a2.34,2.34,0,0,1-.8.51,2.21,2.21,0,0,1-.7.45q-.45.19-.45-.06-.25,0-.29-4.36t0-10.28q0-5.92-.19-10.34t-.19-4.68q0-.25-.06-1a7.54,7.54,0,0,0-.32-1.59,17.9,17.9,0,0,0-.19-2A21.4,21.4,0,0,1,26.92,69a31.06,31.06,0,0,0-.19-3.21,31.08,31.08,0,0,1-.19-3.21,11,11,0,0,1-.25-2.39,7.14,7.14,0,0,1,.25-2.07q0-.83.06-4.33t.32-7.7v-12a25.51,25.51,0,0,1,.19-2.55,28.57,28.57,0,0,0,.19-3.12,44.58,44.58,0,0,0,.38-6,7.93,7.93,0,0,1-.38-2.23h.76v-.38a1.83,1.83,0,0,0-.38-.32.89.89,0,0,0-.38-.06q-.06.45-.76.38-.38-.13-.38-.38a1.58,1.58,0,0,1-.16-1,3.34,3.34,0,0,1,.92-1.24A8,8,0,0,0,28.23,16.43Zm8.34,2.9-1.05-1a8.17,8.17,0,0,0-3.76-.76,8,8,0,0,0-2.07.25q-.92.26-.92.51-.45.13-.38.76a3,3,0,0,1,.51,1.21A7,7,0,0,1,29.15,22a8.46,8.46,0,0,1,.32,2q.06,1.18.06,1.75a8.75,8.75,0,0,1-.19,1.56,9.59,9.59,0,0,0-.19,1.81q0,.83-.19,4.26t-.19,7.38q0,3.95-.19,8.31t-.19,6.65l-.32,4.9,1.46.76,1.15.7,2.61-1.85q.83-.57,1.78-1.3a3.86,3.86,0,0,0,1.21-1.3,6.31,6.31,0,0,1,1.15-.76q.64-.06,1.15-1.15a10,10,0,0,0,1.85-2.23l.76-1.75a20.11,20.11,0,0,0,.76-2,9.6,9.6,0,0,0,.83-2.42,11.15,11.15,0,0,0,.25-2.1,11.16,11.16,0,0,0,.51-2.48,29.33,29.33,0,0,0,.25-3.88,34.76,34.76,0,0,0-.19-3.56q-.19-1.85-.19-2.42-.25-.57-.51-1.31a4,4,0,0,1-.25-1.3,7.47,7.47,0,0,0-.22-1.21q-.22-1-.48-1.78A7.89,7.89,0,0,1,41,25.54a3.8,3.8,0,0,0-.6-1.21q-.25,0-.51-.45a1.56,1.56,0,0,1-.25-.7,2.41,2.41,0,0,0-.45-1,7.42,7.42,0,0,0-1-1.27Z" transform="translate(-6.55 -15.67)" style="fill:#fff"/><path d="M87.53,18.5q.57-1.05,1-1.81a2.53,2.53,0,0,1,1.53-1,9.8,9.8,0,0,1,1,1q.7,2,1.08,3.12a4.92,4.92,0,0,1,1.15,2.39A12.42,12.42,0,0,1,93.64,25a11.19,11.19,0,0,1,.51,2.48,6.09,6.09,0,0,0,.51,2.1,4.42,4.42,0,0,1,.76,1.75q.38,1.37.76,2.9t.8,3.21a12.64,12.64,0,0,0,.8,2.45,10.1,10.1,0,0,1,.7,2.45,17.38,17.38,0,0,1,.32,3.21q.38,1.15,1,3.85t1,5.38q.76,2.67,1.4,4.49a10.87,10.87,0,0,1,.64,2.2,4.31,4.31,0,0,0,.06.73.4.4,0,0,0,.45.35,10,10,0,0,0,.29,1.66A11,11,0,0,1,104,66.6a15.78,15.78,0,0,0,.64,3.56q.64,2.42,1.4,4.71t1.46,4.68q.7,2.39,1.08,3.53a11.61,11.61,0,0,0,.25,2.07,11.26,11.26,0,0,1,.25,2.07,11.11,11.11,0,0,1,.73,2.1,9.71,9.71,0,0,1,.35,2.48,13.31,13.31,0,0,0,.51,3.12,4.35,4.35,0,0,1,.51,1.4l.7,2.67q.38,1.46.67,2.83a11,11,0,0,1,.29,1.94,4.5,4.5,0,0,1,0,3.63q0,.76-.32.89a1.87,1.87,0,0,1-.7.13q-.38,0-.86-.92a25.29,25.29,0,0,1-1.24-3.21q-.19-.76-.57-2.58t-.76-3.76q-.38-1.94-.6-3.6t-.22-2a15.16,15.16,0,0,0-.32-2q-.32-1.59-.7-3.12Q105.8,83.15,105,80a16.55,16.55,0,0,1-1-4.07,1.38,1.38,0,0,0-1.18-.83,48.92,48.92,0,0,0-5,.32H83.32q-3.44,0-7.07-.25t-4.77-.25H68.94l-1,2q-.38,1.15-.7,2.26A7.06,7.06,0,0,0,66.9,81a9.65,9.65,0,0,1-.35,2.16l-.73,2.93q-.38,1.53-1,3.63t-1,3.63q-.38,1.15-.76,2.48a12.57,12.57,0,0,1-.76,2.1,3.49,3.49,0,0,0-.7,1.31,4.77,4.77,0,0,0-.32,1.3,6.16,6.16,0,0,1-.25,1.34,6.74,6.74,0,0,0-.25,1.72q-.38,1.15-.8,2.2a4.41,4.41,0,0,1-.8,1.43,5.08,5.08,0,0,1-.76.64.56.56,0,0,1-.76-.13q-.64,0-.51-1.53a9.58,9.58,0,0,1,.32-1.69q.32-1.31.7-2.45.38-1.53.76-3a12.19,12.19,0,0,1,.76-2.2,7.39,7.39,0,0,0,1.05-2,22.79,22.79,0,0,0,1.05-3.15q.38-1.53.7-2.86a10.14,10.14,0,0,0,.32-1.72,10.66,10.66,0,0,1,.32-1.75q.32-1.37.7-2.9t.76-3.21a11.69,11.69,0,0,1,.76-2.45q.38-1.15.8-2.45a4.57,4.57,0,0,1,.8-1.69q.38-.76,1-2a5.33,5.33,0,0,0,.57-2,13.56,13.56,0,0,1,1-2.67q1-2.29,2.1-4.58A25.36,25.36,0,0,1,73.17,57a8.45,8.45,0,0,0,.92-2.2,10.09,10.09,0,0,0,1.53-2.55q.38-1.15,1-3.21a40.69,40.69,0,0,0,1-4A19,19,0,0,1,79,41q.92-2.07,1.3-3.21.38-.76,1.4-3.37t2.16-4.9q.76-2.67,1.75-5.38T87,20.32A3.94,3.94,0,0,1,87.53,18.5Zm3.92,9A9,9,0,0,1,91,25a10.4,10.4,0,0,0-.32-2.45,3.9,3.9,0,0,0-.7-1.69q-.38-1.15-.7-.32T87.46,26q-1.15,2.67-2.26,5.76t-1.88,5L81.86,40.4q-.7,1.75-1.08,2.51a11.63,11.63,0,0,0-.7,1.81,6.41,6.41,0,0,0-.32,1.81,5.36,5.36,0,0,0-.51,2.55,5.86,5.86,0,0,1-.67,1.75q-.67,1.37-1.43,2.9a19.33,19.33,0,0,1-1.34,3.53,26.08,26.08,0,0,1-1.72,3.15A25.6,25.6,0,0,1,73,63.64q-.67,1.69-1.05,2.45a16.44,16.44,0,0,0-1,3.12,2.94,2.94,0,0,1-.25,1,2.94,2.94,0,0,0-.25,1q-.38.76.16,1a23.24,23.24,0,0,0,2.45.57q1.15,0,3.53.25a44.06,44.06,0,0,0,4.68.25,48.08,48.08,0,0,1,5.86-.45q3.18-.06,5.47-.06A17,17,0,0,0,97,73q2.07-.19,2.83-.19l2.55-.51-.51-1.53a7.87,7.87,0,0,0-.25-1.81,7.86,7.86,0,0,1-.25-1.81,7.47,7.47,0,0,0-.25-1.78,7.47,7.47,0,0,1-.25-1.78,7.59,7.59,0,0,0-.32-2.2,3.58,3.58,0,0,0-.7-1.43,11.12,11.12,0,0,0-.32-2.2q-.32-1.43-.7-3T98,51.89a4.61,4.61,0,0,0-.8-1.72,3.19,3.19,0,0,0-.25-1.05,3.19,3.19,0,0,1-.25-1.05,11.22,11.22,0,0,0-.25-1.65A12.35,12.35,0,0,1,96.18,44q-.38-1.15-.76-2.77a11.73,11.73,0,0,0-.76-2.39,10.07,10.07,0,0,1-.7-2.07,9.21,9.21,0,0,1-.32-2.07,10.15,10.15,0,0,0-.32-2.13q-.32-1.37-.7-2.51A9.31,9.31,0,0,1,91.44,27.51Z" transform="translate(-6.55 -15.67)" style="fill:#fff"/><path d="M133.17,17.74q1.15-.73,1.91-1.31l1.5-.48a4,4,0,0,1,1-.22,3.53,3.53,0,0,1,2.1,1,3.49,3.49,0,0,1,1.24,1.18,16.81,16.81,0,0,1,1.24,2q.25.76.64,1.65a3.93,3.93,0,0,1,.38,1.46,4.59,4.59,0,0,0,.06.67q.06.41.32.41a5.76,5.76,0,0,0,.16,1,8.7,8.7,0,0,1,.16,1.81,13.76,13.76,0,0,1,0,5.6,25.82,25.82,0,0,1-.16,2.61q-.16,1.53-.16,2.29-.25.76-.7,1.85t-.7,1.65a6.35,6.35,0,0,1-.7,1.18q-.45.6-.7.61v-.32q-.13-.7.32-.76v-1a4,4,0,0,1,.38-1.78,3,3,0,0,1,.16-1,2.25,2.25,0,0,0,.16-.7,5.23,5.23,0,0,1,.19-1.3,5.9,5.9,0,0,0,.19-1.5,15.29,15.29,0,0,0,.48-1.94,12,12,0,0,0,.22-2.26,7,7,0,0,0,.06-2.48q-.19-1.15-.45-2.48-.57-1.34-1.05-2.74a7.92,7.92,0,0,0-1.05-2.17,11.32,11.32,0,0,0-1.78-2.8h-1.72a2.39,2.39,0,0,0-1.24.41,10.39,10.39,0,0,1-1.24.67,4.16,4.16,0,0,1-.89,1.21L132.28,21a3.16,3.16,0,0,0-1.21,1.34,20.08,20.08,0,0,1-1.21,1.85,8,8,0,0,0-1.05,2.13,24.85,24.85,0,0,0-.73,2.45,22.17,22.17,0,0,0-.8,3.41,39.38,39.38,0,0,0-.22,5q0,2.67,0,5a12.39,12.39,0,0,0,.29,3.09,7.33,7.33,0,0,0,.19,1.81,4.9,4.9,0,0,1,.19,1c.17,0,.27.13.29.38s0,.47,0,.64a5.26,5.26,0,0,0,.19,1.31,5.89,5.89,0,0,1,.19,1.5,7.59,7.59,0,0,0,.16,1.4,7.52,7.52,0,0,1,.16,1.08,3.66,3.66,0,0,0,.22,1.21q.22.64.48,1.21a14.58,14.58,0,0,0,1.4,3.18l.54,1.21A3.11,3.11,0,0,0,132,62q.83,2.61,1.4,4.2a22,22,0,0,1,1.31,2.67q.54,1.34.8,1.91a1.73,1.73,0,0,0,.22.7,2.65,2.65,0,0,0,.48.7,6.63,6.63,0,0,0,.41,1.4q.41,1.15,1,2.48a23.65,23.65,0,0,0,.7,2.74q.45,1.4.7,2.16a9.18,9.18,0,0,1,.25,2.1A28.73,28.73,0,0,1,139,86.2q-.25,1.34-.48,3a20.49,20.49,0,0,0-.22,2.71,12.13,12.13,0,0,1-.41,2.77q-.41,1.69-1,3.53l-1.24,2.9a11.7,11.7,0,0,1-1.24,2.32,11.28,11.28,0,0,1-.7,1.62q-.45.86-.7.86a9,9,0,0,1-2.1,1.4,2.69,2.69,0,0,1-1.15.48,6.86,6.86,0,0,1-1.66.22,2.49,2.49,0,0,1-1.46.06,4.08,4.08,0,0,1-1-.76l-1-.41q-.41-.16-.41.1a2.51,2.51,0,0,1-1.46-.7,5.55,5.55,0,0,0-1-.7,5.31,5.31,0,0,1-1.08-.7q-1-.57-1-1.08a3,3,0,0,1-.32-.35.68.68,0,0,1-.06-.35q-.45,0-1-1.08a2.42,2.42,0,0,1-.48-.89,3.67,3.67,0,0,1-.22-1.21,5.1,5.1,0,0,0-.22-1.05,2.55,2.55,0,0,0-.48-1,10.77,10.77,0,0,1-.54-1.88q-.29-1.31-.54-2.64V84.49a1.19,1.19,0,0,1,1.08-.38q.76,0,.86.16t-.16.92a14.07,14.07,0,0,1-.19,1.85,16,16,0,0,0-.19,2.36q0,1.08.06,2.61a8.91,8.91,0,0,0,.32,2.29A7.24,7.24,0,0,0,117.8,96a8.91,8.91,0,0,0,.48,1.5,11.48,11.48,0,0,1,.51,1.46q.25.89.51,1.66a13,13,0,0,1,1.05,1.66,2.44,2.44,0,0,0,1.05,1.15,11.52,11.52,0,0,0,1.53,1.24,5.87,5.87,0,0,0,2,.92,9.67,9.67,0,0,0,2.23.86,6.51,6.51,0,0,0,2-.16,7.24,7.24,0,0,0,2.8-1.78q.25-.57.89-1.69t1.21-2.2a10.4,10.4,0,0,0,1.24-2.36,6.1,6.1,0,0,0,.48-1.85,2.56,2.56,0,0,1,.19-1,1.94,1.94,0,0,0,.19-.7,9.68,9.68,0,0,0,.32-2.1,16.15,16.15,0,0,1,.22-2.48q.22-1.4.48-2.48,0-1.08.13-2.61a8.52,8.52,0,0,0-.13-2.61,12.17,12.17,0,0,0-.22-2.26,15.33,15.33,0,0,0-.48-1.94,2.94,2.94,0,0,1-.64-1.5c0-.49-.06-.82-.06-1a2.62,2.62,0,0,0-.38-1,9,9,0,0,1-.64-1.46,28,28,0,0,0-1.15-2.64q-.89-1.88-1.66-3.72t-1.43-3.41a9.13,9.13,0,0,1-.67-1.81q-.06-1.27-.7-1.4a3.2,3.2,0,0,1-.54-1.18q-.29-.92-.54-1.69a8.72,8.72,0,0,1-.8-2,6.69,6.69,0,0,1-.22-1.5q0-.57-.06-1.72a7.39,7.39,0,0,0-.64-2.48q-.25-1.59-.48-3.28a23.36,23.36,0,0,1-.22-3q0-1.08-.19-2.9a32.6,32.6,0,0,1-.19-3.41q0-1.59.06-3.41a15.56,15.56,0,0,1,.32-2.9,35.61,35.61,0,0,1,2.1-6.37q1.08-1.59,1.91-3a10.76,10.76,0,0,1,1.59-2.2A11.28,11.28,0,0,1,133.17,17.74Z" transform="translate(-6.55 -15.67)" style="fill:#fff"/><path d="M151.6,18.18a7.6,7.6,0,0,1,.54-2.07,1.73,1.73,0,0,1,.89-.45q.32,0,.38,1.43t.06,3.41q0,2,.22,4.27t.22,3.63q0,1.34-.06,2.83a9.11,9.11,0,0,1-.38,2.45q0,.64-.22,3.57T153,43.81q0,3.25-.22,5.86t-.22,2.93a28.77,28.77,0,0,0-.45,4.39v3.95l2.23.83q1,.32,2.2.67t2.2.67q1.66.32,3,.54a12.41,12.41,0,0,0,3.6-.1q1.66,0,3.88-.22t3.56-.22l7.19.32v1.34q.32.64.13,1a.57.57,0,0,1-.51.32,1.69,1.69,0,0,1-1.34-.38q-.19,0-1.11-.1t-2.26-.19q-1.34-.1-2.8-.13a24.19,24.19,0,0,0-2.8.1q-1.66,0-3.56.19t-2.55.19a9.06,9.06,0,0,0-2.13-.41,5.11,5.11,0,0,1-1.81-.41,13.12,13.12,0,0,1-2.42-.29,19.88,19.88,0,0,1-2.42-.61,11.56,11.56,0,0,0-2.67-.45V67a18.63,18.63,0,0,1-.25,2.93,4.31,4.31,0,0,1-.57,1.91v7.45q0,2.29.19,5.09t.19,4.14q0,1.66,0,3.37a6.18,6.18,0,0,1-.35,2.36,14.66,14.66,0,0,1-.22,2,15.39,15.39,0,0,0-.22,2.35,10.6,10.6,0,0,1-.22,2.07,9.89,9.89,0,0,0-.22,1.43,1.77,1.77,0,0,1-.45.89,3,3,0,0,1-.22.92,3.55,3.55,0,0,0-.22,1.24,11,11,0,0,1-.06,1.21q-.06.57-.38.57v.45a.75.75,0,0,1-.29.57.9.9,0,0,1-.6.25q-.64,0-.8-.38t-.48-1.34a7.53,7.53,0,0,1,.32-1.81,7.2,7.2,0,0,1,1-2.13,19.94,19.94,0,0,0,.6-2.42,13.09,13.09,0,0,0,.29-2.42,23.8,23.8,0,0,1,.22-2.74,27.75,27.75,0,0,0,.22-3.44q0-1.34-.22-3.92t-.22-5.25a45.57,45.57,0,0,0-.22-4.77q-.22-2.1-.22-2.74,0-.32.06-1.15a3.9,3.9,0,0,1,.38-1.46,8.93,8.93,0,0,0,.6-2.07,14.12,14.12,0,0,0,.29-2.77q0-1.34.29-4.17t.6-5.51q0-2.67.22-6.37t.22-6.37q0-2.67.19-5.44t.19-3.72a22,22,0,0,0,.38-4.2q.06-2.87.06-6.81A42.62,42.62,0,0,1,151.6,18.18Zm-4.74,89.28.51-.19Q146.86,107.15,146.86,107.47Zm29.89-89.12q.29-.51.6-.51a.35.35,0,0,1,.29-.38,2.81,2.81,0,0,1,.6-.06q.32,0,.57.86a6.37,6.37,0,0,1,.25,1.81,19.7,19.7,0,0,0,.32,2.39l.7,4.14q.38,2.26.7,4.3a21.79,21.79,0,0,1,.32,2.8q.32,2,.6,3.69t.29,2a5.31,5.31,0,0,0,.22,1.15,5.74,5.74,0,0,1,.22,1.46,13.93,13.93,0,0,1,.38,3.5q.07,2.55.06,6.17,0,1.53-.1,3.72t-.19,4.68q-.1,2.48-.13,5t0,4.62q0,3.95-.22,7.29T182,80.67q0,.32-.22,2.32a42,42,0,0,0-.22,4.68,38.33,38.33,0,0,1-.22,4.49q-.22,1.81-.22,2.13a18.22,18.22,0,0,0-.45,3.5,24,24,0,0,0,.22,3.06,22.24,22.24,0,0,1,.22,2.67q0,1.34-.06,2.26a2,2,0,0,1-.38,1.24,4.87,4.87,0,0,1-.64.54.45.45,0,0,1-.64-.1,11,11,0,0,0-.22-1.46,11,11,0,0,1-.22-2.1,14.89,14.89,0,0,1-.38-2.8q-.07-1.46-.06-2.42a9.6,9.6,0,0,1,.22-1.75,9.44,9.44,0,0,0,.22-1.75q0-.32.22-2a24.8,24.8,0,0,0,.22-3.31,33.41,33.41,0,0,1,.22-3.66q.22-2,.22-3t.22-4.33q.22-3.37.22-6.62,0-3.63.19-8t.19-7q0-2.67.22-5.32t.22-4.3q0-1.34-.06-2.83a9.13,9.13,0,0,0-.38-2.45q-.32-1.34-.57-3.09a21.73,21.73,0,0,1-.25-3.09,17.86,17.86,0,0,0-.35-2.55q-.35-1.91-.76-4t-.83-3.88q-.41-1.78-.54-2.29a5.7,5.7,0,0,0-.29-1.81q-.29-.86-.6-.86V19.17A1.81,1.81,0,0,1,176.75,18.34Z" transform="translate(-6.55 -15.67)" style="fill:#fff"/><path d="M187.35,94.16a11,11,0,0,1,1.08-1.4,4.15,4.15,0,0,1,1.08-.73,2.69,2.69,0,0,1,1.08-.35q1,.19,1,.57a3.69,3.69,0,0,0,1.08.7,2.9,2.9,0,0,0,1.08.32,2,2,0,0,1,1.08.64q.7.64,1.08,1a12.91,12.91,0,0,1,.73,1.88,6.47,6.47,0,0,1,.35,1.88q0,.76-.1,2.13a5.77,5.77,0,0,1-.48,2.13q-.38.76-.86,1.78a2.81,2.81,0,0,1-1.24,1.4,3,3,0,0,1-1.43,1.27l-1.81.89a17,17,0,0,1-1.75-.06,1.52,1.52,0,0,1-.92-.45q-.38,0-.51-.57a2.63,2.63,0,0,0-1.08-1.59,3.16,3.16,0,0,1-.92-1.78,21.55,21.55,0,0,1-.16-3.06q0-1.21.06-2.64a5.61,5.61,0,0,1,.45-2.2A15.47,15.47,0,0,1,187.35,94.16Zm1.59,3.95a4.08,4.08,0,0,0-.06-.73.4.4,0,0,0-.45-.35,2,2,0,0,1-.51,1.08,9.79,9.79,0,0,0,.06,1q.06.6.45.6Q188.31,99.64,188.94,98.11Zm5.92,0a2.15,2.15,0,0,0-.51-1.08q-.7.06-.57,1.08a10.05,10.05,0,0,1-.35,2.2q-.35,1.43-.73,2.64-.38.76-1.08,2.67c0,.25.12.29.35.1s.48-.41.73-.67q.38,0,.83-.6a8.6,8.6,0,0,1,.83-1,3.19,3.19,0,0,1,.25-1.05,3.19,3.19,0,0,0,.25-1.05Z" transform="translate(-6.55 -15.67)" style="fill:#fff"/><path d="M200,19.55a5.63,5.63,0,0,1,.64-2.55,1.86,1.86,0,0,1,.25-.86.74.74,0,0,1,.64-.48q.38,0,.41,2.2t0,7.23q0,4-.22,7t-.22,3.69q0,.7,0,1.59A3.54,3.54,0,0,0,202,39q0,.7.22,3.85t.22,6.84q0,3.69.22,7.83t.22,6.49a42.57,42.57,0,0,1,.41,6.21q0,3.85,0,7.23t0,6q0,2.61.41,3,0,.38,0,1.11a16.38,16.38,0,0,1-.41,2.45,22.89,22.89,0,0,0-.64,3.44,34.33,34.33,0,0,0-.25,4.14,33.91,33.91,0,0,1-.22,3.72,29.78,29.78,0,0,0-.22,3,17.93,17.93,0,0,1-.1,2.1,2.53,2.53,0,0,1-.8,1.46q-.38.38-.51.32a6.81,6.81,0,0,1-.83-.76q-.7-.38-.76-.86a5.51,5.51,0,0,1,.32-1.81,14.26,14.26,0,0,0,.64-3,29.66,29.66,0,0,0,.25-3.72,25,25,0,0,1,.22-3.56,17.41,17.41,0,0,0,.22-2.23,2.07,2.07,0,0,0,.45-1.34,6.06,6.06,0,0,1,.45-1.34V87.73q-.38,0-.41-.48t0-.86V72.07q0-3.37-.22-8.4t-.22-9q0-4-.22-7.54t-.22-4.55a13.29,13.29,0,0,1-.41-3.37q0-2,0-3.37V25.09A49,49,0,0,1,200,19.55Z" transform="translate(-6.55 -15.67)" style="fill:#fff"/><path d="M212.59,18.25a4.91,4.91,0,0,1,.48-2.51h1a1.17,1.17,0,0,1,.8.45,4.6,4.6,0,0,1,.8,1.66A9.64,9.64,0,0,0,216,20q.35,1.4.73,2.61a38.49,38.49,0,0,1,1.4,3.92,66.85,66.85,0,0,1,1.78,6.78q1.21,3.63,2.36,7.38A42.15,42.15,0,0,0,224.21,46q.38,2,1,4.07a12.82,12.82,0,0,1,.6,2.87,10.23,10.23,0,0,0,.29,2.07,10.58,10.58,0,0,1,.29,1.69,17.92,17.92,0,0,0,.25,2.42,19.19,19.19,0,0,1,.25,2.86q.38,1.21.8,2.9a12.69,12.69,0,0,0,.8,2.45,19.44,19.44,0,0,0,.29,3,21.31,21.31,0,0,1,.29,3.37q.38,2,.7,3.47a12.89,12.89,0,0,1,.32,1.88,11.11,11.11,0,0,1,.57,2.67,7.67,7.67,0,0,0,.51,2.61,14.51,14.51,0,0,0,.25,1.81,17.25,17.25,0,0,1,.25,3q0,.83.16,2.51t.35,3.41q.19,1.72.35,3.09t.16,1.56a6.07,6.07,0,0,1,.51,2.1v1.08a1.22,1.22,0,0,0,1.08-1.08V96.45q0-1.91,0-3.82t0-2.93a22.36,22.36,0,0,1,.6-4.71q.6-2.74,1-4.33a27.58,27.58,0,0,0,.48-3.85q.1-1.88.1-3.09,0-.76.06-2.9a36.15,36.15,0,0,1,.45-4.55,38.18,38.18,0,0,0,.45-6.08q.06-4.11.06-7.74,0-1.78-.1-4.17t-.19-5q-.1-2.61-.16-5.19T237,33.3q0-2.17-.13-4.62t-.29-4.55q-.16-2.1-.25-3.66t-.1-1.94a2.2,2.2,0,0,1,.32-1.24,5.65,5.65,0,0,1,.7-.86,1.51,1.51,0,0,0,.73-.19q.35-.19.35.19.38,0,.45,1.4t.06,3.37q0,.83.1,3.41t.25,6.08q.16,3.5.32,7.54t.16,7.8q0,8.79-.1,13.91a31.67,31.67,0,0,1-.48,6.33q0,.38-.25,2.07a21.86,21.86,0,0,0-.25,3.28q0,2-.06,4.11a12.85,12.85,0,0,1-.45,3.34,12.16,12.16,0,0,1-.29,2.55,11.17,11.17,0,0,0-.29,1.72v1a.4.4,0,0,0-.45.35,3.91,3.91,0,0,0-.06.73q0,.19,0,1.69t0,3.41v6.56a37.57,37.57,0,0,1-.29,4.39,33.82,33.82,0,0,0-.29,3.63,13.42,13.42,0,0,1-.51,3.18.4.4,0,0,1-.35.45,4.25,4.25,0,0,1-1.46,0,.4.4,0,0,1-.35-.45,2.5,2.5,0,0,1,0-2.67V104a3.61,3.61,0,0,0-.7.06.39.39,0,0,0-.32.45,1.9,1.9,0,0,0-.8.19.66.66,0,0,1-.8-.19q-.38,0-.73-.8a6.22,6.22,0,0,1-.35-2.39q0-.57-.16-2.23t-.35-3.57q-.19-1.91-.32-3.56t-.13-2.29a8.56,8.56,0,0,0-.29-2.26,6.73,6.73,0,0,1-.29-1.43,8.21,8.21,0,0,1-.51-2.67q0-.76-.1-1.78a2.3,2.3,0,0,0-.48-1.4,18.46,18.46,0,0,0-.32-2.64q-.32-1.88-.7-4.3t-.73-4.3a16.86,16.86,0,0,1-.35-2.64,2.18,2.18,0,0,1-.45-1.4q-.06-1-.06-1.78a13.69,13.69,0,0,0-.35-2q-.35-1.59-.73-2.8a15,15,0,0,0-.35-2.93,29.39,29.39,0,0,0-.73-2.93,15,15,0,0,0-.35-2.93,29.24,29.24,0,0,0-.73-2.93q-.38-1.21-.86-3.21a10.7,10.7,0,0,0-1.24-3.21q-.38-1.21-1.05-3.25t-1.05-3.63q-.38-1.21-.83-2.9a13.9,13.9,0,0,0-.83-2.45,10,10,0,0,1-.45-1.85q-.06-.64-.06-.25-.38,0-.45,1.66t-.06,3.63a51.52,51.52,0,0,1-.29,5.22q-.29,2.8-.29,4.39a27.91,27.91,0,0,1-.25,3.82,23,23,0,0,0-.25,3.06,15.19,15.19,0,0,1-.25,2.64,13.57,13.57,0,0,0-.25,2.2,30,30,0,0,1-.35,3.72q-.35,2.51-.73,5.32a43.87,43.87,0,0,1-.25,5q-.25,2.2-.25,3a6.3,6.3,0,0,1-.29,1.4,6.7,6.7,0,0,0-.29,1.78,10.56,10.56,0,0,1-.25,1.62,10.62,10.62,0,0,0-.25,1.62,19.11,19.11,0,0,1-.29,2.58,24.28,24.28,0,0,0-.29,3.79,17.06,17.06,0,0,0-.45,3.37q-.06,1.78-.06,3a15.7,15.7,0,0,0,.25,2.67,15.69,15.69,0,0,1,.25,2.67,29.89,29.89,0,0,0,.29,3.79,32.32,32.32,0,0,1,.29,4.17,38,38,0,0,1-.16,4.33,1.84,1.84,0,0,1-.92,1.53,1.5,1.5,0,0,0-.73.19q-.35.19-.35-.19-.38,0-.45-1.4t-.06-3.37a37,37,0,0,0-.25-3.92,35.14,35.14,0,0,1-.25-3.53V82.77a27.57,27.57,0,0,1,.25-3.25,29.66,29.66,0,0,0,.25-3.63q.38-2,.8-5.06t.8-5.06q.38-2.42.73-5.54a47.54,47.54,0,0,0,.35-5.09,32.39,32.39,0,0,1,.25-4q.25-2,.25-2.42a13.58,13.58,0,0,1,.29-1.85,18.07,18.07,0,0,0,.29-3.44,37.79,37.79,0,0,1,.25-3.95q.25-2.36.25-3.56t.25-4.58q.25-3.37.25-6.56Q212.5,20.38,212.59,18.25Z" transform="translate(-6.55 -15.67)" style="fill:#fff"/><path d="M244.27,20.7q0-4.65,1.4-5a.59.59,0,0,1,.51.29,5.16,5.16,0,0,1,.22,1.88q0,1.59,0,5.06t-.25,9.83q0,3.63-.1,7.07T245.83,46q-.1,2.8-.13,4.71t0,2.42a16,16,0,0,1-.22,2.48,15.62,15.62,0,0,0-.22,1.78,4.24,4.24,0,0,0-.29,1.53q.1.13,1.18-.57.38-.38,1-1A7,7,0,0,0,248,56a8.32,8.32,0,0,1,1.21-1.59q.83-.89,1.21-1.27a7.6,7.6,0,0,0,1-1.91,22.94,22.94,0,0,0,2.36-2.87,20.71,20.71,0,0,0,2.1-2.48,6.23,6.23,0,0,1,1.72-1.78,18.16,18.16,0,0,1,1.24-1.88,16,16,0,0,1,1.56-1.88q.7-1.08,1.72-2.93a25.29,25.29,0,0,1,2.1-3.25q.7-1.78,1.34-3.09a7.12,7.12,0,0,1,1-1.69q.76-.83,1.46.45v1a5.2,5.2,0,0,1-.6,1.62q-.6,1.24-1.31,2.64-1.08,1.4-2.32,3.21a19.27,19.27,0,0,1-1.94,2.51q-.7,1.08-1.94,2.74T257.57,47a27.36,27.36,0,0,0-2.42,2.74,18.17,18.17,0,0,0-1.4,2,3,3,0,0,0-.38.86q0,.16.38.54.38,0,.41.51t0,.89a4.86,4.86,0,0,0,.29,1.27,9.24,9.24,0,0,0,.67,1.59,7.84,7.84,0,0,1,.67,1.91,8.82,8.82,0,0,1,.29,1.91,17.41,17.41,0,0,0,.25,2.67,19,19,0,0,1,.25,3q.38,1.78.67,3.82a27.53,27.53,0,0,1,.29,3.82,16.07,16.07,0,0,0,.22,2.71,12.87,12.87,0,0,1,.22,2,3.94,3.94,0,0,1,.67,1.81,13,13,0,0,1,.29,2.51,15,15,0,0,0,.22,2.64,12,12,0,0,1,.22,1.62,6.54,6.54,0,0,0,.25,1.65,6.55,6.55,0,0,1,.25,1.66,17.45,17.45,0,0,1,.67,2.67,16.9,16.9,0,0,1,.29,3,21.81,21.81,0,0,0,.22,3,18.75,18.75,0,0,1,.22,2.29,8.46,8.46,0,0,1,.67,1.69,7.39,7.39,0,0,1,.29,2.07q0,1.08,0,1.75t-.41.67a2.27,2.27,0,0,1-1.46-.51,3.19,3.19,0,0,1-.67-1.27,5.28,5.28,0,0,1-.29-1.59,9.38,9.38,0,0,0-.22-2.07,7.85,7.85,0,0,1-.22-1.69,2.73,2.73,0,0,1-.45-1.69q-.06-1.31-.06-3.09a22.42,22.42,0,0,0-.22-3,20.48,20.48,0,0,1-.22-2.71,8.82,8.82,0,0,1-.7-1.88,8.82,8.82,0,0,0-.7-1.88V83.59q0-.7-.06-1.37a1.65,1.65,0,0,0-.45-1v-1a1.55,1.55,0,0,0-.45-1q0-.38-.29-3.06t-.67-5.92q0-3.25-.25-6t-.25-3.09a3.29,3.29,0,0,0-.22-1,4,4,0,0,1-.22-1.34q-.7-1.46-1.46-2.86l-.45-1.46-1,1.46a1.92,1.92,0,0,0-.45,1.4,1.55,1.55,0,0,1-.6,1,6.26,6.26,0,0,1-1.31,1,5,5,0,0,0-1.5,1.34,2.07,2.07,0,0,0-.41,1,1,1,0,0,1-1,1,1.22,1.22,0,0,0-.57.73,8.55,8.55,0,0,0-.29,2q-.1,1.43-.1,4.07v32.69a12.28,12.28,0,0,1,.16,3.69,6.94,6.94,0,0,1-.6,1.53q-1.4.57-1.46.45a6.05,6.05,0,0,0,0-.67q0-.29-.41-.29v-5.67a49.74,49.74,0,0,1,.45-5.73V78.31q-.38-6.75-.19-11.81t.19-5.76q0-.7.25-2.9a40.67,40.67,0,0,0,.25-4.68q.19-1.21.32-3.5t.29-5.19q.16-2.9.25-6.17t.1-6.53Z" transform="translate(-6.55 -15.67)" style="fill:#fff"/></svg>